<svg xmlns="http://www.w3.org/2000/svg" width="100%" height="200%" viewBox="-28.685546875 -32.0546875 1042.72265625 156.833984375" fill="none" preserveAspectRatio="xMidYMid meet">
  <path d="M52.00-21.97L52.00-21.97L52.44-21.97Q52.69-18.85 53.13-16.65L53.13-16.65L53.13-16.41Q53.13-16.21 52.88-16.21L52.88-16.21L53.13-15.72Q53.13-15.19 52.88-13.96L52.88-13.96Q52.88-13.18 53.13-11.96L53.13-11.96Q52.69-6.15 52.69-2.83L52.69-2.83L52.44-2.83L52.69-2.39L52.69-2.15L52.25-1.51L52.25 0.29Q52.25 4.74 51.76 4.74L51.76 4.74L52.00 5.18Q52.00 8.30 51.32 8.30L51.32 8.30Q51.32 8.06 51.12 8.06L51.12 8.06L51.12 8.98L51.56 8.74L51.56 9.18Q51.56 9.42 51.32 9.42L51.32 9.42L51.56 9.86L51.32 10.99L50.88 10.74L50.88 11.43L51.32 11.43L51.32 11.87Q51.32 12.30 50.88 12.30L50.88 12.30L51.12 12.74L51.12 14.50Q51.12 15.63 50.68 15.63L50.68 15.63L50.88 16.06L50.88 16.99Q50.88 17.19 50.68 17.19L50.68 17.19L50.88 17.63L50.88 18.31Q50.88 18.75 50.44 18.75L50.44 18.75Q50.44 18.99 50.68 19.43L50.68 19.43Q50.44 21.39 50.24 21.88L50.24 21.88Q50.24 22.07 50.44 22.07L50.44 22.07Q50.24 24.07 50 24.07L50 24.07L50.24 24.56Q49.85 28.08 49.56 28.08L49.56 28.08L49.76 28.56Q49.32 30.22 49.32 30.57L49.32 30.57L49.56 31.01Q49.32 31.64 49.12 31.64L49.12 31.64Q49.32 32.08 49.32 32.32L49.32 32.32Q49.32 34.57 48.88 34.57L48.88 34.57L49.12 35.01L49.12 35.45Q49.12 35.64 48.88 35.64L48.88 35.64Q48.88 35.89 49.12 35.89L49.12 35.89Q48.54 41.21 48.00 42.14L48.00 42.14L48.44 43.02L48.00 43.21L48.00 42.77L47.75 42.77L47.75 43.21L48.24 43.46Q48.00 45.65 47.56 47.46L47.56 47.46Q47.56 47.71 47.75 47.71L47.75 47.71Q46.88 54.54 46.00 66.16L46.00 66.16L46.24 66.60Q45.75 66.60 45.31 76.61L45.31 76.61L45.31 76.86Q45.31 77.05 45.12 77.05L45.12 77.05Q45.12 77.29 45.31 77.29L45.31 77.29L45.12 79.49L45.12 80.86L44.87 81.30Q45.12 81.30 45.12 81.49L45.12 81.49L44.43 81.93Q44.43 81.74 44.24 81.74L44.24 81.74L43.55 82.86L43.55 84.62L43.75 84.62Q43.99 83.45 43.99 83.30L43.99 83.30L44.68 83.30L44.68 84.42Q44.68 85.99 43.99 85.99L43.99 85.99L43.99 86.18L44.24 86.62L43.75 86.62Q43.55 85.84 43.55 85.74L43.55 85.74Q43.99 85.74 43.99 85.30L43.99 85.30Q43.75 85.30 43.31 85.06L43.31 85.06L43.12 86.62L43.12 88.18L42.87 88.62L43.31 88.87Q43.31 86.87 43.99 86.87L43.99 86.87L44.24 87.30L44.24 88.87Q43.85 88.87 43.55 89.31L43.55 89.31Q43.12 89.06 42.87 89.06L42.87 89.06L42.87 89.75Q42.14 96.44 41.99 96.44L41.99 96.44Q41.99 96.63 42.19 96.63L42.19 96.63Q41.75 101.17 41.31 102.00L41.31 102.00Q41.31 102.20 41.55 102.20L41.55 102.20L41.11 105.32L41.31 105.76Q40.87 106.69 40.43 110.89L40.43 110.89L39.99 110.89Q40.19 106.40 40.67 105.32L40.67 105.32L40.43 104.88Q40.97 101.42 41.31 100.88L41.31 100.88L41.31 100.63L40.67 99.76Q40.87 98.19 41.31 98.19L41.31 98.19L41.11 96.63L41.11 96.44Q41.11 96.19 41.31 96.19L41.31 96.19Q41.11 95.75 41.11 95.51L41.11 95.51L40.87 95.51Q40.87 98.44 40.43 98.44L40.43 98.44Q40.43 98.63 40.67 98.63L40.67 98.63Q39.99 102.00 39.99 104.44L39.99 104.44Q39.99 104.74 39.31 105.08L39.31 105.08L39.55 106.20L39.55 106.64L39.11 107.32L39.11 108.89L38.87 108.89L39.11 110.45Q39.11 110.89 38.67 110.89L38.67 110.89L38.67 110.64Q38.28 110.89 37.55 110.89L37.55 110.89L37.55 111.57L38.67 111.13L38.87 111.57L38.87 112.89Q38.87 113.33 38.43 113.33L38.43 113.33Q37.99 112.79 37.99 112.45L37.99 112.45L37.74 112.45Q37.74 112.99 37.30 113.57L37.30 113.57L37.30 114.65L37.55 115.14Q37.16 115.14 36.87 117.14L36.87 117.14Q36.87 117.33 37.11 117.33L37.11 117.33Q36.87 119.73 36.43 120.90L36.43 120.90L35.99 120.90L37.11 109.77L36.87 109.77L37.11 109.33Q36.67 108.79 36.67 108.64L36.67 108.64L36.87 108.64L37.30 108.89L37.30 108.64Q37.11 108.25 37.11 108.01L37.11 108.01Q37.55 108.01 37.55 107.57L37.55 107.57L37.55 106.88Q37.55 105.76 36.87 105.76L36.87 105.76L36.87 105.57Q37.60 105.57 37.74 104.64L37.74 104.64Q37.55 104.25 37.55 104.00L37.55 104.00L37.30 104.00Q37.30 104.44 36.43 104.44L36.43 104.44L36.67 104.88L36.67 105.08Q36.67 105.57 36.18 105.57L36.18 105.57Q36.18 105.76 36.43 105.76L36.43 105.76Q35.99 108.20 35.74 108.20L35.74 108.20L35.99 108.64L35.99 110.21Q35.99 110.45 35.74 110.45L35.74 110.45L35.99 110.89Q35.99 111.33 35.55 111.33L35.55 111.33L35.74 111.77L35.74 112.21L35.55 113.77L35.11 113.77L35.74 105.08L35.74 104.88Q35.40 104.88 34.67 108.01L34.67 108.01L34.18 108.01Q34.86 102.29 35.30 100.88L35.30 100.88L35.11 100.44Q35.30 100.05 35.30 99.56L35.30 99.56Q35.11 99.12 35.11 98.88L35.11 98.88L35.55 98.63L35.30 98.19L35.30 97.07Q35.30 96.88 35.55 96.88L35.55 96.88L35.30 96.44Q35.55 95.75 35.74 95.75L35.74 95.75L35.55 95.31L35.55 95.07Q35.55 94.87 35.74 94.87L35.74 94.87Q35.74 94.63 35.55 94.63L35.55 94.63Q35.74 91.50 35.99 91.50L35.99 91.50L35.74 91.06L35.74 90.43Q35.84 89.99 36.18 89.99L36.18 89.99L35.99 89.50Q36.43 82.57 37.30 77.29L37.30 77.29Q37.11 76.86 37.11 76.61L37.11 76.61Q37.55 75.20 37.74 72.61L37.74 72.61L37.55 72.17Q37.70 71.29 37.99 71.29L37.99 71.29L37.74 70.85L37.74 70.61L37.99 70.17Q37.74 70.17 37.74 69.92L37.74 69.92L38.18 69.73L37.99 69.29Q38.13 68.36 38.43 68.36L38.43 68.36Q38.43 68.16 38.18 68.16L38.18 68.16L38.43 67.04L38.43 65.04Q38.43 64.84 38.67 64.84L38.67 64.84L38.43 64.36L38.87 63.72Q38.87 63.48 38.67 63.48L38.67 63.48Q38.96 59.72 39.31 59.72L39.31 59.72Q39.31 59.47 39.11 59.47L39.11 59.47Q39.40 55.03 39.75 55.03L39.75 55.03Q39.75 54.79 39.55 54.79L39.55 54.79Q41.11 44.78 42.19 32.13L42.19 32.13Q39.79 32.57 38.18 33.20L38.18 33.20L37.74 33.01Q34.52 33.84 34.18 34.13L34.18 34.13L33.74 34.13Q33.54 34.13 33.54 33.89L33.54 33.89Q20.46 36.33 19.29 37.01L19.29 37.01Q19.29 37.40 16.85 41.46L16.85 41.46Q13.04 47.71 11.96 48.34L11.96 48.34L11.96 48.58L12.16 49.02L11.72 49.22Q11.72 49.02 11.52 49.02L11.52 49.02Q10.84 49.61 10.84 50.34L10.84 50.34Q8.64 53.47 7.47 54.59L7.47 54.59L7.47 54.35L9.28 51.46L9.28 51.22Q8.74 51.37 7.03 54.79L7.03 54.79L7.28 55.27Q6.84 55.96 6.84 56.35L6.84 56.35L6.40 56.35Q6.40 56.10 6.59 55.71L6.59 55.71L6.59 55.27L6.40 55.27Q6.40 55.76 5.47 57.28L5.47 57.28Q5.71 57.28 5.71 57.47L5.71 57.47Q5.32 57.47 1.95 62.60L1.95 62.60L1.95 62.16L1.71 62.16L1.71 62.35Q1.95 62.79 1.95 63.04L1.95 63.04Q1.37 64.60-0.05 65.72L-0.05 65.72Q0.15 66.16 0.15 66.36L0.15 66.36Q-0.05 66.36-0.05 66.60L-0.05 66.60L-0.54 66.36L-0.73 66.36Q-0.73 67.48-2.54 68.85L-2.54 68.85L-2.54 68.36L-1.61 66.85L-1.61 66.60L-1.86 66.60Q-2.44 68.16-2.98 68.16L-2.98 68.16L-3.42 68.16Q-3.71 68.16-4.10 67.48L-4.10 67.48Q-2.64 65.82 8.15 46.78L8.15 46.78Q10.35 43.21 11.28 41.21L11.28 41.21L10.84 41.02Q10.60 41.70 10.40 41.70L10.40 41.70L10.60 42.14L10.60 42.33Q9.62 43.16 8.15 46.34L8.15 46.34Q7.37 46.34 7.03 47.22L7.03 47.22L7.03 47.46L7.28 47.46L7.28 47.02L7.71 47.02Q6.54 48.49 4.59 52.59L4.59 52.59Q3.81 52.59 3.47 53.47L3.47 53.47L3.71 53.47Q3.27 54.59 3.27 55.03L3.27 55.03L2.83 55.03L3.03 54.59L3.03 54.35L2.83 54.35Q1.27 57.76 1.27 57.91L1.27 57.91Q-0.54 57.67-0.54 57.03L-0.54 57.03Q0.34 55.32 0.59 55.03L0.59 55.03L0.59 54.59Q-0.29 54.59-0.29 54.15L-0.29 54.15L-0.29 53.71L8.40 39.21L7.96 39.01L4.39 40.14Q3.96 39.89 3.71 39.89L3.71 39.89Q3.71 40.33 3.27 40.33L3.27 40.33L3.03 40.33Q2.83 40.33 2.83 40.14L2.83 40.14L-0.54 41.21L-0.98 41.02Q-8.98 43.21-11.62 43.21L-11.62 43.21L-12.74 43.21Q-13.04 43.21-13.67 41.89L-13.67 41.89Q-13.67 41.41-11.87 41.02L-11.87 41.02L-11.87 40.77Q-12.11 40.77-12.55 40.58L-12.55 40.58L-21.44 42.58L-22.12 42.58Q-22.71 42.58-23.00 40.77L-23.00 40.77Q-21.14 39.89-20.31 39.89L-20.31 39.89L-20.31 39.45L-20.56 39.45L-25.88 40.77L-25.88 40.58L-26.76 41.02L-27.00 40.58Q-27.00 40.14-26.32 40.14L-26.32 40.14L-26.32 39.89Q-27.69 39.89-27.69 39.45L-27.69 39.45Q-27.69 38.62-18.55 37.01L-18.55 37.01L-3.42 33.45Q1.46 32.57 6.84 31.20L6.84 31.20Q6.84 31.45 7.03 31.45L7.03 31.45Q7.03 31.01 13.72 29.88L13.72 29.88Q14.79 29.39 19.29 21.63L19.29 21.63Q29.39 5.96 43.12-12.40L43.12-12.40Q46.00-15.28 49.32-20.21L49.32-20.21L50.24-20.85L50.68-20.85L51.12-20.65Q51.61-21.97 52.00-21.97ZM46.00-3.52L45.75-3.52Q44.24-0.73 42.43 1.17L42.43 1.17Q40.77 4.05 40.19 4.05L40.19 4.05L40.43 4.49Q37.70 8.15 36.67 10.30L36.67 10.30Q36.33 10.30 33.30 14.99L33.30 14.99Q31.15 18.90 27.10 24.76L27.10 24.76Q27.10 25.20 25.98 27.00L25.98 27.00L25.98 27.20L30.86 26.07L30.86 26.32L43.12 23.63Q43.12 22.31 46.00-3.27L46.00-3.27L46.00-3.52ZM31.30 9.62L30.86 9.62Q30.86 10.06 30.42 10.06L30.42 10.06L30.42 10.30L30.86 10.30L31.30 9.62ZM20.61 25.20L20.61 25.20L20.61 25.44L21.04 25.44L21.04 24.76Q20.61 24.85 20.61 25.20ZM42.87 26.56L41.75 26.56L41.75 27.00L42.87 26.76L42.87 26.56ZM41.75 29.64L40.19 30.08L39.75 29.88Q37.30 30.32 37.30 30.76L37.30 30.76L36.87 30.57Q36.43 30.57 35.11 31.45L35.11 31.45L35.11 31.64L35.55 31.64Q41.50 30.57 42.43 30.57L42.43 30.57L42.43 29.64L41.75 29.64ZM42.19 31.20L41.11 31.45L41.11 31.64L42.19 31.64L42.19 31.20ZM34.86 31.45L28.86 32.57L28.86 32.76L29.10 32.76L34.86 31.88L34.86 31.45ZM38.43 31.64L38.18 31.64L38.18 32.13L37.99 32.13Q37.74 32.13 37.74 31.88L37.74 31.88Q37.35 32.13 37.11 32.13L37.11 32.13L37.11 32.32L37.99 32.32Q38.43 32.32 38.43 31.88L38.43 31.88L38.43 31.64ZM28.17 32.76L22.85 33.64L22.85 33.89L23.54 33.89Q25.54 33.45 25.73 33.45L25.73 33.45L25.73 33.64L25.54 34.13L25.73 34.13Q26.17 34.13 26.17 33.64L26.17 33.64Q25.98 33.64 25.98 33.45L25.98 33.45Q26.37 33.20 28.61 33.01L28.61 33.01L28.61 32.76L28.17 32.76ZM32.86 33.01L31.98 32.76L31.98 33.20L32.86 33.20L32.86 33.01ZM31.30 33.01L30.18 33.20L30.18 33.64L30.86 33.64Q31.20 33.64 31.54 33.01L31.54 33.01L31.30 33.01ZM29.74 33.20L29.30 33.20L29.30 33.89Q29.74 33.89 29.74 33.45L29.74 33.45L29.74 33.20ZM26.42 33.64L26.42 33.64L26.42 34.13L26.86 33.89L27.10 33.89Q27.59 33.89 27.98 34.13L27.98 34.13Q28.42 33.89 28.61 33.89L28.61 33.89Q28.61 33.45 28.17 33.45L28.17 33.45Q27.78 33.64 27.54 33.64L27.54 33.64L27.54 33.45Q27.15 33.64 26.42 33.64ZM23.54 34.33L21.53 34.77L21.53 35.01L21.73 35.01Q22.17 34.77 22.41 34.77L22.41 34.77Q22.85 35.01 23.10 35.01L23.10 35.01L23.54 34.33ZM24.61 34.33L23.97 34.33L23.97 34.77L24.17 34.77Q24.61 34.77 24.61 34.33L24.61 34.33ZM5.96 36.33L5.96 36.33L5.96 36.57L6.84 36.57Q7.28 36.33 7.47 36.33L7.47 36.33L7.47 36.13Q6.59 36.33 5.96 36.33ZM4.15 37.01L3.27 37.01L3.27 37.21L4.15 37.21L4.15 37.01ZM9.72 50.15L9.72 50.15L9.72 50.34Q10.16 50.34 10.16 49.90L10.16 49.90L10.16 49.71Q9.72 49.76 9.72 50.15ZM-2.54 68.85L-2.54 68.85L-2.54 69.29Q-2.54 69.73-2.98 69.73L-2.98 69.73L-2.98 69.29Q-2.88 68.85-2.54 68.85ZM44.24 77.73L44.24 77.73L44.24 77.93L44.68 77.93L44.68 77.29Q44.24 77.34 44.24 77.73ZM44.68 79.93L44.24 79.93L44.24 80.18Q44.43 80.62 44.43 80.86L44.43 80.86L44.68 80.86L44.68 79.93ZM39.55 87.30L39.55 87.30L39.55 87.50Q39.99 87.50 39.99 87.06L39.99 87.06L39.99 86.87Q39.55 86.91 39.55 87.30ZM39.55 89.31L39.31 89.31L39.31 90.63L39.55 90.63L39.55 89.31ZM43.99 89.31L43.99 89.31L43.99 91.06L43.55 91.06L43.55 90.63Q43.55 90.43 43.75 90.43L43.75 90.43L43.55 89.99L43.55 89.75Q43.60 89.31 43.99 89.31ZM41.55 91.50L41.31 91.50L41.31 92.43L41.55 92.43L41.55 91.50ZM43.12 91.31L43.12 91.31L43.55 91.31Q43.55 91.75 43.99 91.75L43.99 91.75L43.75 93.75L43.31 93.75Q43.31 93.51 43.55 93.51L43.55 93.51L43.31 93.07Q43.31 92.87 43.55 92.87L43.55 92.87Q43.12 91.75 43.12 91.31ZM39.11 93.07L38.87 93.07L38.87 94.19L39.11 94.19L39.11 93.07ZM43.31 95.51L43.31 94.63L43.55 94.63L43.55 95.51L43.31 95.51ZM42.68 97.07L42.68 95.75L43.12 95.75L43.31 97.75Q43.02 97.75 42.68 97.07L42.68 97.07ZM39.75 96.44L39.55 96.44Q39.55 96.92 39.31 97.31L39.31 97.31L39.55 97.31L39.75 96.88L39.75 96.44ZM42.68 99.32L42.68 98.88L43.31 98.88Q43.31 99.32 42.87 99.32L42.87 99.32L42.68 99.32ZM38.43 104.44L38.43 104.44Q38.43 104.69 38.18 105.08L38.18 105.08L38.67 105.32L38.87 104.88Q38.87 104.44 38.43 104.44ZM36.67 107.57L36.67 106.45L37.11 106.45L37.11 106.88L36.87 107.32Q37.11 107.32 37.11 107.57L37.11 107.57L36.67 107.57ZM38.18 108.89L37.74 108.89L37.74 109.57L37.99 109.57Q37.99 109.33 38.18 108.89L38.18 108.89ZM39.99 111.33L39.99 111.33L40.43 111.33L40.43 111.77Q40.43 112.01 40.19 112.01L40.19 112.01L40.43 112.45L40.43 112.65Q39.99 113.23 39.99 113.77L39.99 113.77L39.75 113.77L39.75 113.13Q39.99 111.87 39.99 111.33ZM37.99 114.01L37.99 113.77L38.67 113.77L38.67 114.01Q38.67 114.45 38.18 114.45L38.18 114.45L37.99 114.01Z" stroke="#578bfc" stroke-width="2" fill="none"/>
  <path d="M104.74-10.55L104.74-10.55L108.35-10.55Q114.65-10.55 117.58-9.13L117.58-9.13L117.97-9.33Q122.02-8.15 126.61-3.52L126.61-3.52Q128.81 0.10 128.81 3.32L128.81 3.32L128.81 4.10Q128.81 15.72 106.93 32.42L106.93 32.42Q102.20 35.94 93.90 41.26L93.90 41.26L93.51 41.06Q93.51 41.80 90.87 42.87L90.87 42.87Q87.40 45.21 83.64 46.68L83.64 46.68Q92.58 58.84 107.13 76.42L107.13 76.42Q107.13 76.81 109.57 79.64L109.57 79.64Q111.13 82.18 113.38 84.81L113.38 84.81Q121.19 95.90 123.19 99.51L123.19 99.51Q123.39 99.51 123.39 99.90L123.39 99.90L123.19 99.90Q120.21 97.46 119.58 95.90L119.58 95.90L119.38 95.90L119.38 96.29Q120.12 96.63 121.78 99.71L121.78 99.71L122.22 99.51L122.41 99.51Q122.41 101.12 126.61 105.71L126.61 105.71Q126.61 106.05 131.25 112.74L131.25 112.74Q131.45 113.87 131.45 114.36L131.45 114.36L131.05 114.36L126.81 108.74Q126.81 109.52 125.39 110.74L125.39 110.74Q115.38 99.71 107.76 90.04L107.76 90.04Q103.42 85.60 96.68 76.22L96.68 76.22Q80.22 54.74 76.22 49.90L76.22 49.90L76.03 49.90Q75 51.51 75 52.49L75 52.49Q74.85 52.49 74.41 53.13L74.41 53.13L74.61 53.52Q73.00 57.37 72.02 58.54L72.02 58.54L72.22 58.94Q72.22 59.08 69.38 65.14L69.38 65.14L69.19 65.14Q69.19 64.94 68.99 64.94L68.99 64.94L68.99 65.38Q69.38 65.38 69.38 65.58L69.38 65.58Q67.33 71.04 66.80 71.39L66.80 71.39L66.80 71.00Q67.19 69.78 67.38 69.78L67.38 69.78Q67.19 69.38 67.19 69.19L67.19 69.19L66.99 69.19Q66.06 72.41 63.18 78.81L63.18 78.81L61.96 78.81Q61.96 78.61 62.16 78.61L62.16 78.61Q62.16 77.83 60.94 77.59L60.94 77.59Q60.94 78.03 60.55 78.03L60.55 78.03Q60.55 77.83 60.35 77.83L60.35 77.83Q62.35 73.83 64.99 67.19L64.99 67.19Q66.55 64.16 66.55 63.13L66.55 63.13Q65.77 63.13 65.77 62.55L65.77 62.55L65.58 62.55Q63.96 66.31 63.38 68.55L63.38 68.55L62.94 68.55Q60.55 68.21 60.55 67.38L60.55 67.38Q62.55 62.99 62.55 62.35L62.55 62.35Q62.16 61.87 62.16 61.77L62.16 61.77Q70.41 42.09 81.25 19.38L81.25 19.38Q84.91 11.77 85.84 10.74L85.84 10.74L86.04 10.74L86.47 12.16L86.87 11.96Q86.96 11.96 87.45 12.35L87.45 12.35Q89.36 8.45 90.09 8.35L90.09 8.35Q90.67 9.52 90.67 9.72L90.67 9.72Q90.19 11.04 88.87 13.33L88.87 13.33L89.26 13.57Q92.24 7.18 92.87 7.13L92.87 7.13Q94.09 7.23 94.09 7.71L94.09 7.71L94.09 7.91Q93.07 9.57 93.07 10.94L93.07 10.94L93.26 10.94L82.23 35.64Q82.03 35.64 82.03 35.84L82.03 35.84Q82.23 35.84 82.23 36.04L82.23 36.04Q81.79 36.23 80.42 39.26L80.42 39.26L80.62 39.65L80.03 40.67L80.03 41.06L80.22 41.06Q86.18 37.94 109.57 20.56L109.57 20.56Q118.41 10.55 118.41 3.91L118.41 3.91L118.41 3.32Q118.41-0.24 110.55-4.74L110.55-4.74L108.15-5.13Q106.59-5.13 96.48-2.49L96.48-2.49Q90.77-1.51 89.65-1.51L89.65-1.51Q89.26-1.51 89.26-1.90L89.26-1.90Q89.26-2.25 92.68-3.13L92.68-3.13L92.68-3.32Q92.09-3.32 92.09-3.71L92.09-3.71Q95.36-5.13 95.70-5.13L95.70-5.13L95.70-5.32L95.51-5.32L86.67-2.49L86.47-2.49Q86.04-2.49 86.04-2.93L86.04-2.93Q91.99-5.81 92.29-6.15L92.29-6.15L92.09-6.15Q90.09-5.62 83.25-1.71L83.25-1.71L83.06-1.71Q82.62-1.71 82.62-2.10L82.62-2.10Q87.35-6.59 95.31-9.13L95.31-9.13Q96.97-9.67 100.54-10.35L100.54-10.35L100.54-10.16Q101.56-10.55 104.74-10.55ZM92.48-6.35L92.48-6.35L92.48-6.15L92.68-6.15Q95.95-6.93 99.71-8.15L99.71-8.15L99.71-8.35L99.51-8.35Q98.49-8.35 92.48-6.35ZM111.38-8.35L109.96-8.35L109.96-8.15Q110.94-8.15 115.58-6.93L115.58-6.93L115.77-6.93L115.77-7.13Q113.23-8.35 111.38-8.35L111.38-8.35ZM122.80-5.52L122.61-5.52Q125.83-2.10 125.83 2.93L125.83 2.93L125.83 4.10Q125.83 8.15 121.58 15.77L121.58 15.77Q116.89 21.00 113.38 24.61L113.38 24.61L113.38 25L113.57 25Q113.57 24.66 116.80 21.97L116.80 21.97Q119.09 19.14 120.21 17.97L120.21 17.97Q127.44 9.67 127.44 2.10L127.44 2.10Q127.44-2.59 122.80-5.52L122.80-5.52ZM113.38-4.74L113.18-4.74L113.18-4.54Q119.97 0.05 119.97 5.13L119.97 5.13Q119.78 5.47 119.78 5.91L119.78 5.91L119.78 6.30L119.97 6.30Q120.41 4.05 120.41 3.13L120.41 3.13L120.41 2.93Q120.41-1.61 116.16-3.71L116.16-3.71Q115.04-4.35 113.38-4.74L113.38-4.74ZM122.61-3.71L122.61-3.71L122.61-3.32Q123.19-2.64 123.19-2.29L123.19-2.29L123.39-2.29L123.39-2.49Q122.95-3.71 122.61-3.71ZM120.41-2.93L120.21-2.93Q122.02-1.07 122.02-0.49L122.02-0.49L122.22-0.49L122.22-1.12Q121.04-2.73 120.41-2.93L120.41-2.93ZM121.58 1.32L121.58 1.32L121.58 1.51Q121.78 3.32 122.22 3.32L122.22 3.32L122.22 2.49Q122.22 1.46 121.58 1.32ZM111.96 25.98L111.96 25.98L111.96 26.22L113.18 25.20L112.94 25.20Q112.06 25.59 111.96 25.98ZM90.09 41.65L90.09 41.65L90.09 41.85L90.28 41.85Q90.67 41.85 90.67 41.46L90.67 41.46L90.67 41.06Q90.38 41.06 90.09 41.65ZM86.67 43.85L86.28 43.85Q86.28 44.29 85.64 44.29L85.64 44.29L85.64 44.48L86.04 44.48Q86.04 44.09 86.67 44.09L86.67 44.09L86.67 43.85ZM78.61 50.29L78.61 50.29L78.61 50.49L79.83 51.71L79.83 51.32Q79.59 51.32 78.61 50.29ZM80.42 52.10L80.22 52.10L80.22 52.49Q80.32 52.49 80.81 52.93L80.81 52.93L80.81 52.69Q80.42 52.69 80.42 52.10L80.42 52.10ZM82.03 54.49L82.03 54.49Q82.42 55.42 82.86 55.52L82.86 55.52Q82.47 54.59 82.03 54.49ZM84.47 57.32L84.23 57.32L84.23 57.71Q84.67 57.71 84.67 58.35L84.67 58.35L85.06 58.35Q84.47 57.67 84.47 57.32L84.47 57.32ZM87.84 61.96L87.65 61.96L87.65 62.35L88.48 62.94Q87.84 62.16 87.84 61.96L87.84 61.96ZM88.87 63.57L88.87 63.57L88.87 63.77L89.65 64.55Q89.26 63.62 88.87 63.57ZM90.67 64.75L90.67 64.75L90.67 64.94Q91.31 65.33 99.71 76.61L99.71 76.61Q106.45 85.55 108.94 88.43L108.94 88.43L109.33 88.43Q101.32 76.71 90.67 64.75ZM66.36 71.97L66.36 71.97L66.80 71.97L66.80 72.17L66.55 72.61Q66.80 72.61 66.80 72.80L66.80 72.80Q66.26 72.80 65.77 74.80L65.77 74.80L65.58 74.80L65.58 74.17Q65.58 73.97 65.77 73.97L65.77 73.97L65.58 73.58L65.58 73.39Q66.11 73.39 66.36 71.97ZM105.96 81.64L105.96 81.64L105.96 81.84Q117.87 98.39 119.78 100.49L119.78 100.49Q120.85 101.22 121.19 102.10L121.19 102.10Q121.00 102.49 121.00 102.69L121.00 102.69L121.39 102.49L121.58 102.49Q123.00 103.52 123.00 104.10L123.00 104.10L123.19 104.10L123.19 103.91Q122.07 101.86 113.77 91.26L113.77 91.26Q108.45 84.38 105.96 81.64Z" stroke="#578bfc" stroke-width="2" fill="none"/>
  <path d="M253.22-21.48L253.22-21.48L253.22-21.14L253.86-21.48L254.15-21.48L254.15-21.14Q254.15-20.07 250.39-19.82L250.39-19.82Q250.39-20.17 250.10-20.17L250.10-20.17Q250.10-19.48 249.46-19.48L249.46-19.48L248.54-19.48L240.38-18.46L240.38-18.12Q241.94-18.12 241.94-17.48L241.94-17.48L241.94-17.14L242.58-17.48L243.51-17.48L243.51-16.80Q240.38-15.77 229.05-14.11L229.05-14.11L228.76-13.43L230.32-13.77L231.88-13.77L231.88-13.09L223.73-11.08L223.10-11.43Q185.21-5.03 175.39-2.34L175.39-2.34Q153.76 2.20 153.76 2.98L153.76 2.98Q153.76 4.00 150 14.06L150 14.06Q138.28 42.68 128.03 73.44L128.03 73.44Q122.36 91.65 120.80 93.90L120.80 93.90Q120.80 94.24 121.09 94.24L121.09 94.24Q121.09 94.97 118.31 102.29L118.31 102.29L117.68 101.95L116.41 103.96L116.11 103.96Q117.04 99.80 117.68 98.93L117.68 98.93L117.68 97.90Q116.11 97.90 116.11 96.58L116.11 96.58L122.07 79.44L121.73 77.44Q122.36 75.29 122.36 75.10L122.36 75.10L122.36 74.76L122.07 74.76Q120.36 80.81 118.90 80.81L118.90 80.81L118.60 80.81Q118.90 78.13 119.53 78.13L119.53 78.13Q119.24 77.49 119.24 77.10L119.24 77.10L129.59 45.61L129.25 44.92Q137.55 24.56 143.70 5.32L143.70 5.32L143.41 5.32L123.00 10.69Q121.88 10.40 121.73 10.40L121.73 10.40Q118.99 11.38 117.68 11.38L117.68 11.38L117.33 10.69L117.33 9.72L129.59 7.03L129.59 6.69L128.96 6.69Q122.80 8.01 122.07 8.01L122.07 8.01Q122.07 7.71 121.73 7.71L121.73 7.71Q121.73 8.35 121.09 8.35L121.09 8.35L120.51 8.01Q120.51 8.69 119.87 8.69L119.87 8.69L119.24 8.35L117.33 8.69Q117.04 8.69 117.04 8.35L117.04 8.35Q111.62 10.06 111.08 10.06L111.08 10.06L110.74 9.38L110.74 9.03Q110.99 8.25 115.14 7.03L115.14 7.03Q115.14 5.22 125.49 2.69L125.49 2.69L125.49 2.34L124.56 2.34Q123.44 2.98 122.07 2.98L122.07 2.98Q121.44 2.98 121.44 2.34L121.44 2.34L121.44 2.00Q121.44 0.63 161.91-6.74L161.91-6.74Q169.97-8.40 172.90-10.06L172.90-10.06Q189.94-13.43 202.69-15.43L202.69-15.43L202.69-15.09Q203.61-15.77 212.11-16.80L212.11-16.80L212.11-16.46L211.82-15.77L212.11-15.77L213.38-17.14L214.31-17.14Q214.31-16.75 214.65-16.11L214.65-16.11Q214.31-16.11 214.31-15.77L214.31-15.77L217.77-16.46L217.77-16.11Q218.75-16.70 231.25-18.80L231.25-18.80Q231.35-18.12 231.88-18.12L231.88-18.12Q231.88-19.38 240.04-19.82L240.04-19.82Q242.04-20.36 253.22-21.48ZM219.04-17.77L219.04-17.77L219.04-17.14L218.07-17.14Q217.24-17.14 216.21-16.46L216.21-16.46L215.87-17.14Q217.33-17.77 219.04-17.77ZM155.62-3.71L154.39-3.71L154.39-3.37L155.62-3.37L155.62-3.71ZM147.46-2.05L147.46-2.05L147.46-1.71L147.80-1.71L149.66-2.05L149.66-2.34L148.73-2.34Q148.19-2.05 147.46-2.05ZM152.49 2.98L152.20 2.98L150.29 8.35L150.29 9.03L150.59 9.03L152.49 3.32L152.49 2.98ZM133.35 5.66L131.45 6.01L131.45 6.35L132.08 6.35L133.98 6.01L133.98 5.66L133.35 5.66ZM131.15 6.35L129.88 6.35L129.88 6.69L131.15 6.69L131.15 6.35ZM125.49 65.38L125.20 65.38Q125.20 65.72 124.85 66.41L124.85 66.41L124.85 67.04L125.20 67.04Q125.20 66.31 125.49 65.72L125.49 65.72L125.49 65.38ZM124.27 69.09L123.93 69.09Q123.93 69.82 123.63 70.41L123.63 70.41L123.63 70.75L123.93 70.75Q123.93 70.41 124.27 69.73L124.27 69.73L124.27 69.09ZM123.63 71.09L123.29 71.09Q122.71 72.90 122.71 73.10L122.71 73.10L122.71 73.44L123.00 73.44Q123.00 72.85 123.63 71.44L123.63 71.44L123.63 71.09Z" stroke="#578bfc" stroke-width="2" fill="none"/>
  <path d="M237.21-0.54L239.79-1.27L240.04-1.27Q240.58-1.27 241.11 0.63L241.11 0.63L240.48 1.07L240.23 1.07Q239.26 1.07 233.74 1.56L233.74 1.56Q234.42 2.83 235.69 3.47L235.69 3.47Q236.08 3.22 237.65 2.98L237.65 2.98Q239.60 3.56 239.60 4.39L239.60 4.39Q239.55 5.08 238.28 5.57L238.28 5.57L238.28 5.81L237.84 5.81L237.84 5.32L237.21 5.32L237.21 5.81L236.77 5.57L236.57 5.57L236.57 6.05L235.69 6.05L234.57 6.30L234.57 5.81L234.18 5.81Q234.18 6.30 233.06 6.30L233.06 6.30L233.06 6.05L232.62 6.05L232.86 6.49Q232.57 6.74 229.83 6.98L229.83 6.98L229.83 6.49L229.15 6.49Q229.15 7.23 226.12 7.23L226.12 7.23L226.12 6.98L225.68 6.98Q225.68 7.71 225.24 7.71L225.24 7.71L224.80 7.71L224.80 7.23L223.93 7.23L224.17 7.71L223.73 7.91Q223.29 7.71 223.10 7.71L223.10 7.71Q222.36 8.15 221.78 8.15L221.78 8.15L221.78 7.71L220.90 7.71L221.14 8.15L221.14 8.40Q220.56 7.91 220.46 7.91L220.46 7.91Q220.02 7.91 220.02 8.64L220.02 8.64L219.38 8.64L219.38 8.15L218.95 8.15L218.95 8.64L218.75 8.64L218.75 8.15L217.87 8.15L218.07 8.64L216.99 8.40L216.80 8.40L216.99 8.89L216.55 9.13L215.92 9.13L215.92 8.64L215.48 8.64Q215.23 8.64 215.23 8.89L215.23 8.89L214.79 8.64Q209.91 10.55 201.37 11.23L201.37 11.23Q188.96 13.33 188.96 13.82L188.96 13.82Q188.72 13.82 188.72 13.57L188.72 13.57Q186.18 14.06 185.69 14.55L185.69 14.55Q185.30 14.31 184.81 14.31L184.81 14.31Q184.81 14.75 184.38 14.75L184.38 14.75L183.94 14.75Q183.74 14.75 183.74 14.55L183.74 14.55Q182.62 14.99 182.23 14.99L182.23 14.99L182.23 14.75Q178.96 15.58 178.96 17.58L178.96 17.58Q170.80 33.59 170.26 35.30L170.26 35.30L170.51 35.30Q175.20 34.33 175.93 34.33L175.93 34.33Q176.12 34.33 176.56 34.57L176.56 34.57Q178.86 34.08 183.30 33.89L183.30 33.89L183.30 34.33L185.94 34.08Q186.33 34.18 186.33 34.57L186.33 34.57Q184.62 35.40 184.62 35.74L184.62 35.74L184.81 35.74Q185.21 35.50 185.69 35.50L185.69 35.50L185.69 35.74L186.13 35.50L186.33 35.50Q186.57 35.50 186.57 35.74L186.57 35.74Q186.91 35.50 189.40 35.30L189.40 35.30L189.60 35.74L189.60 35.99Q189.60 36.87 185.25 37.65L185.25 37.65L185.25 37.89L185.69 37.89Q188.23 37.65 189.40 37.65L189.40 37.65L189.60 38.09Q188.33 40.19 185.94 40.48L185.94 40.48Q181.25 42.14 169.82 43.75L169.82 43.75L169.82 44.24L170.26 43.99L172.02 43.99Q172.02 45.17 166.80 45.90L166.80 45.90Q164.40 46.44 164.40 48.49L164.40 48.49Q162.21 52.73 156.59 67.09L156.59 67.09L156.79 67.09Q157.42 66.89 165.92 65.67L165.92 65.67L165.92 65.92Q166.85 65.48 169.38 64.99L169.38 64.99L169.38 65.23L169.82 64.99L170.26 65.23Q170.31 64.75 170.70 64.75L170.70 64.75L171.14 64.99Q171.14 64.50 175.05 64.06L175.05 64.06L175.05 64.50L174.85 64.99L175.24 64.99Q175.44 64.99 187.45 62.65L187.45 62.65Q188.48 64.01 188.53 65.23L188.53 65.23Q188.28 65.23 182.23 66.65L182.23 66.65L182.23 66.89L183.30 66.89Q183.54 66.89 183.54 66.65L183.54 66.65Q183.94 66.89 184.18 66.89L184.18 66.89Q184.33 66.89 187.01 66.65L187.01 66.65L187.89 67.58Q187.89 68.51 181.15 70.17L181.15 70.17L181.35 70.65Q180.91 70.70 180.91 71.09L180.91 71.09L180.47 70.90L179.83 70.90Q179.83 71.44 175.93 72.07L175.93 72.07L175.93 72.31L176.81 72.31Q176.81 72.75 165.92 74.66L165.92 74.66Q150.05 77.49 150.05 78.17L150.05 78.17Q148.44 80.27 148.34 81.25L148.34 81.25Q145.70 84.57 145.70 85.50L145.70 85.50Q144.19 85.50 144.19 85.01L144.19 85.01L145.95 80.08Q144.34 81.98 144.19 81.98L144.19 81.98L143.99 81.98L143.99 81.74Q143.99 81.49 144.19 81.49L144.19 81.49L143.99 81.01Q144.82 79.20 145.07 78.91L145.07 78.91L145.07 78.66Q141.80 78.66 141.80 76.07L141.80 76.07Q146.14 74.90 146.14 74.41L146.14 74.41Q146.34 74.02 146.34 73.49L146.34 73.49L145.51 72.07L145.51 71.83L145.70 71.34Q145.41 71.34 144.82 70.17L144.82 70.17Q144.82 69.68 148.54 68.99L148.54 68.99Q151.37 62.40 151.37 61.91L151.37 61.91Q149.85 63.82 149.61 63.82L149.61 63.82L149.41 63.82L149.41 62.84Q151.07 59.72 155.91 48.00L155.91 48.00L155.71 48.00Q149.17 49.17 148.34 49.17L148.34 49.17L147.46 48.73Q147.22 48.73 146.78 48.97L146.78 48.97Q145.31 48.97 143.31 47.31L143.31 47.31L143.31 46.58L143.99 46.58L143.99 46.34Q142.68 44.87 142.68 43.31L142.68 43.31Q145.70 42.14 147.02 42.14L147.02 42.14L147.02 41.65Q146.53 41.65 146.14 41.89L146.14 41.89Q144.29 41.16 143.75 41.16L143.75 41.16L143.75 40.72Q159.62 37.89 160.69 37.40L160.69 37.40Q167.19 23.93 170.70 17.58L170.70 17.58L170.70 17.38Q158.84 19.73 155.71 20.21L155.71 20.21L153.76 19.97Q152.54 20.21 152.00 20.21L152.00 20.21Q151.32 19.09 151.12 17.58L151.12 17.58Q153.47 17.24 153.76 16.89L153.76 16.89L153.96 16.89Q154.20 16.89 154.20 17.14L154.20 17.14Q158.74 16.21 158.74 15.72L158.74 15.72Q158.40 14.75 158.11 14.75L158.11 14.75Q156.25 14.99 155.27 14.99L155.27 14.99Q154.64 14.16 154.64 13.33L154.64 13.33L154.64 13.13L154.83 12.65Q155.03 12.65 155.03 12.89L155.03 12.89Q165.63 10.55 168.51 10.06L168.51 10.06L169.38 10.55L169.63 10.55L169.63 10.30L169.19 10.30L169.19 10.06Q169.48 10.06 171.58 9.57L171.58 9.57Q171.63 10.06 172.02 10.06L172.02 10.06Q172.02 9.23 174.61 8.89L174.61 8.89L175.68 9.33Q175.78 8.89 176.12 8.89L176.12 8.89L176.37 8.89L176.37 9.33L176.81 9.33L176.56 8.89L177.44 8.89Q177.44 8.35 179.39 8.15L179.39 8.15Q179.44 8.64 179.83 8.64L179.83 8.64Q179.83 7.71 184.18 7.47L184.18 7.47Q184.18 7.23 184.81 7.23L184.81 7.23L184.81 7.47L185.25 7.23Q185.69 7.47 185.94 7.47L185.94 7.47Q185.94 6.49 191.11 6.49L191.11 6.49Q191.11 6.10 196.58 5.32L196.58 5.32L196.58 6.05L196.97 6.05Q196.97 4.88 200.49 4.88L200.49 4.88Q202.54 4.15 203.71 4.15L203.71 4.15L204.39 4.15Q204.88 4.15 205.27 4.39L205.27 4.39Q205.27 3.52 214.60 2.49L214.60 2.49L214.60 2.98L215.23 2.98L215.04 2.49L215.04 2.29L216.55 2.05L216.55 2.29Q217.43 1.81 217.87 1.81L217.87 1.81L217.87 2.05L224.17 0.88L224.61 1.07Q227.25 0.44 234.57-0.54L234.57-0.54L234.57-0.78L235.01-0.54L235.89-0.54Q236.38-0.54 236.77-0.78L236.77-0.78L237.21-0.54ZM231.10 6.30L230.22 6.30L230.22 6.49L231.10 6.49L231.10 6.30ZM173.97 9.57L172.85 9.57L172.85 9.81L173.97 9.81L173.97 9.57ZM163.77 34.33L163.77 34.33L163.77 34.57L163.96 34.57Q163.96 34.03 164.60 33.15L164.60 33.15L164.60 32.91Q164.26 32.91 163.77 34.33ZM175.24 72.07L174.41 72.07L174.41 72.31L175.24 72.31L175.24 72.07ZM172.22 72.51L172.22 72.51L172.22 72.75Q173.10 72.51 173.73 72.51L173.73 72.51L173.73 72.31L172.85 72.31Q172.46 72.51 172.22 72.51ZM166.99 73.49L166.11 73.49L166.11 73.73L166.99 73.73L166.99 73.49Z" stroke="#578bfc" stroke-width="2" fill="none"/>
  <path d="M298.93-30.52L299.17-31.05Q299.71-30.76 300-30.76L300-30.76Q300-29.00 294.78-21.44L294.78-21.44L294.78-20.90L295.31-21.14L295.61-21.14L295.61-20.61L295.31-20.07L296.14-20.07Q296.14-20.90 298.63-23.10L298.63-23.10L298.63-22.56Q296.39-18.80 295.61-18.12L295.61-18.12L295.90-17.58Q295.90-15.58 295.07-15.14L295.07-15.14L295.31-14.55Q290.14 11.72 283.25 35.45L283.25 35.45L281.59 42.33L281.05 42.33L281.05 41.75L280.76 41.75L280.52 43.41L280.52 43.70L280.76 43.70L280.76 42.87L281.30 42.87L281.30 43.12Q280.76 44.92 280.76 45.61L280.76 45.61L280.22 45.31L279.93 45.31Q279.69 46.44 279.69 48.34L279.69 48.34L279.93 48.34Q279.93 49.07 278.32 55.76L278.32 55.76L278.03 55.76L277.49 55.52L277.49 56.59L278.03 56.59Q278.03 58.35 276.12 61.28L276.12 61.28L276.12 61.82L276.37 61.82L276.66 60.45L277.20 60.45Q277.20 63.48 275.54 63.48L275.54 63.48L275.54 64.55L276.12 64.55L275.83 66.50L275.29 66.50L275.29 65.97L275 65.97L275 67.04L275.54 67.04L275.29 68.95L274.71 68.95L275 67.58L275 67.33Q274.46 67.33 274.46 70.36L274.46 70.36L274.71 70.36L274.71 70.61Q274.27 73.93 273.63 73.93L273.63 73.93Q273.63 73.63 273.34 73.63L273.34 73.63L273.34 74.17L273.93 74.17Q273.68 77.49 273.10 77.49L273.10 77.49L272.80 77.49L273.10 76.37L273.10 75.59L272.80 75.59Q272.80 76.66 272.27 78.56L272.27 78.56Q272.80 78.66 272.80 79.15L272.80 79.15L272.80 79.98L272.51 79.98L271.97 79.69L271.97 80.76L272.51 80.76L272.51 81.35L272.27 81.35L271.73 81.05L271.73 82.18L272.27 82.18L272.27 82.71L271.97 82.71L271.44 82.42L271.14 84.38L271.14 84.91L271.73 84.91L271.73 85.74L270.61 86.82L270.61 87.94L271.14 88.77L270.61 89.01Q270.61 88.77 270.31 88.77L270.31 88.77Q269.78 92.97 269.24 93.41L269.24 93.41Q269.48 93.95 269.48 94.24L269.48 94.24Q269.14 94.24 268.12 99.22L268.12 99.22Q266.80 99.22 264.55 108.79L264.55 108.79L264.01 108.54L263.72 108.54L263.72 109.38Q263.72 110.11 263.18 111.04L263.18 111.04Q263.72 111.28 264.01 111.28L264.01 111.28L264.01 112.11L263.72 112.11L263.18 111.82L262.89 112.40Q262.89 112.65 263.18 112.65L263.18 112.65Q261.08 120.51 259.91 121.73L259.91 121.73L259.62 121.73L259.33 121.19Q260.06 117.63 260.45 117.63L260.45 117.63Q260.16 117.14 260.16 116.50L260.16 116.50L259.91 116.50Q259.91 117.14 259.62 117.63L259.62 117.63Q259.91 118.12 259.91 118.41L259.91 118.41L258.50 119.53L258.25 119.53Q257.71 119.53 257.71 118.70L257.71 118.70Q258.79 110.40 260.45 104.15L260.45 104.15L260.45 103.86L260.16 103.86Q260.16 105.03 258.50 106.35L258.50 106.35L258.25 106.35L258.25 106.05Q262.11 92.53 270.61 52.49L270.61 52.49Q277.20 25.24 284.08 0L284.08 0Q268.99 22.46 255.76 45.07L255.76 45.07L245.31 62.35L245.31 62.65Q256.88 45.02 257.96 43.95L257.96 43.95L258.25 43.95Q254.79 52.00 242.87 70.90L242.87 70.90Q242.87 71.29 237.89 75.83L237.89 75.83Q237.35 75.83 237.35 74.17L237.35 74.17L237.06 74.17L237.06 77.78Q237.06 79.30 234.86 80.52L234.86 80.52L234.33 80.52L234.33 78.03Q232.96 48.83 231.59 37.35L231.59 37.35L231.88 37.35Q231.30 35.01 230.47 21.97L230.47 21.97L230.22 21.97L215.92 54.15Q209.13 72.17 207.96 73.10L207.96 73.10L208.25 73.63Q206.10 78.56 204.10 78.56L204.10 78.56Q204.10 79.88 202.44 81.35L202.44 81.35L201.61 81.35Q201.61 81.05 202.73 77.78L202.73 77.78Q201.42 79.39 200.54 79.39L200.54 79.39L200.24 78.86Q200.68 78.86 202.20 74.17L202.20 74.17Q201.51 74.17 201.37 73.10L201.37 73.10L201.61 72.56L201.61 72.27L201.37 72.27Q199.27 76.76 198.34 76.95L198.34 76.95L198.05 76.37Q204.93 54.98 219.78 23.93L219.78 23.93Q223.68 15.72 226.66 10.69L226.66 10.69L227.20 10.45L227.44 10.45Q227.88 10.45 228.27 11.28L228.27 11.28L228.03 13.18Q228.86 13.18 228.86 14.31L228.86 14.31Q229.59 14.16 231.05 9.33L231.05 9.33L231.59 9.08L231.88 9.08L232.42 9.33Q232.42 6.88 234.08 6.88L234.08 6.88Q234.08 3.27 234.86 3.27L234.86 3.27L236.52 3.56L237.65 2.73L239.26 2.73Q239.99 2.73 240.38 5.22L240.38 5.22L240.09 5.76Q240.09 6.30 240.38 6.30L240.38 6.30L240.09 7.71Q240.38 18.07 240.38 22.51L240.38 22.51Q240.38 22.66 240.67 23.63L240.67 23.63L240.38 23.63L240.67 24.17L240.67 58.25L240.92 58.25Q240.92 57.62 241.75 56.59L241.75 56.59L241.75 56.35Q240.92 55.42 240.92 54.93L240.92 54.93L249.71 40.67L249.71 39.84Q249.17 39.84 249.17 39.55L249.17 39.55Q264.01 14.55 287.11-16.50L287.11-16.50Q287.11-16.75 293.70-25L293.70-25Q294.53-25.39 298.34-30.76L298.34-30.76L298.93-30.52ZM280.47 47.75L280.18 47.75L280.18 49.12L280.47 49.12L280.47 47.75ZM278.81 56.01L278.81 54.59L279.39 54.59L279.39 55.42Q279.39 56.01 278.81 56.01L278.81 56.01ZM243.12 65.58L242.82 65.58Q242.82 66.50 239.26 71.09L239.26 71.09L239.26 72.22L239.55 72.22Q239.99 70.80 243.12 65.87L243.12 65.87L243.12 65.58ZM276.07 66.16L275.78 66.16L275.78 67.24L276.07 67.24L276.07 66.16ZM243.12 72.75L242.82 72.75Q242.82 73.05 242.53 73.58L242.53 73.58L242.53 73.83L242.82 73.83Q242.82 73.54 243.12 73.00L243.12 73.00L243.12 72.75ZM203.52 74.12L202.98 74.12Q202.98 74.76 201.07 79.05L201.07 79.05L201.07 79.35L201.32 79.35Q201.32 78.76 203.52 74.12L203.52 74.12ZM270.31 92.82L270.31 91.70L270.85 91.70L270.85 92.82L270.31 92.82Z" stroke="#578bfc" stroke-width="2" fill="none"/>
  <path d="" stroke="#578bfc" stroke-width="2" fill="none"/>
  <path d="M395.51-6.54L405.57-13.62L406.35-13.62Q406.35-13.13 405.57-13.13L405.57-13.13L405.81-12.60L405.81-12.30Q397.56-5.13 390.53-0.20L390.53-0.20Q387.70 2.64 382.08 6.69L382.08 6.69L368.36 18.55Q368.31 18.85 351.76 33.59L351.76 33.59Q345.65 39.31 345.65 39.65L345.65 39.65L345.95 39.65Q374.37 33.06 390.23 33.06L390.23 33.06Q392.09 33.20 392.09 33.84L392.09 33.84Q392.09 34.62 389.21 34.62L389.21 34.62L389.21 34.91L392.63 34.91Q393.16 34.96 393.16 35.40L393.16 35.40L393.16 36.47Q393.16 36.72 392.87 36.72L392.87 36.72L393.16 37.26L393.16 37.55Q391.75 38.92 386.57 45.70L386.57 45.70Q362.11 69.58 348.83 85.01L348.83 85.01L340.38 94.48Q336.91 99.56 334.08 102.93L334.08 102.93L333.79 102.93L333.79 102.69L334.57 101.07L334.33 101.07Q334.33 101.51 333.25 102.15L333.25 102.15L333.25 101.61L333.01 101.61L333.01 102.69Q332.57 102.69 327.20 108.50L327.20 108.50L326.95 108.50L326.42 108.20L326.66 108.74L326.66 109.28Q326.27 109.28 325.34 110.84L325.34 110.84L324.02 111.67L324.02 111.38L324.85 110.30L324.85 110.06L324.56 110.06Q324.56 110.64 321.39 114.01L321.39 114.01L321.92 114.01L321.92 114.31Q321.53 114.31 320.90 115.33L320.90 115.33L320.61 115.33Q320.90 113.67 322.46 111.91L322.46 111.91L321.92 111.67Q321.92 112.01 321.14 112.45L321.14 112.45L321.14 112.16Q321.68 111.33 321.68 110.84L321.68 110.84L321.14 110.60Q321.14 111.67 320.07 111.67L320.07 111.67L318.75 111.38Q318.70 112.50 315.63 115.09L315.63 115.09Q315.63 115.87 310.84 120.90L310.84 120.90Q310.84 121.14 308.20 123.24L308.20 123.24Q308.20 122.71 307.67 122.71L307.67 122.71Q307.52 123.54 306.64 123.78L306.64 123.78L306.64 123.54Q311.52 115.97 329.05 97.12L329.05 97.12Q331.74 92.87 356.49 65.77L356.49 65.77Q372.07 49.22 379.15 42.29L379.15 42.29L378.66 42.29Q374.22 42.29 355.96 45.70L355.96 45.70L355.96 45.95L355.42 45.70L355.18 45.70L355.18 46.24L353.86 45.95Q353.86 46.48 353.32 46.48L353.32 46.48L352.78 46.48L352.25 46.24Q352.25 46.97 339.89 48.34L339.89 48.34Q337.30 49.12 329.83 50.44L329.83 50.44Q329.83 50.05 328.81 49.41L328.81 49.41Q329.30 49.12 329.59 49.12L329.59 49.12L329.59 48.88Q328.81 48.88 328.81 48.34L328.81 48.34L328.81 47.02Q328.91 46.63 335.64 40.19L335.64 40.19L335.64 39.89Q333.89 40.77 330.91 43.60L330.91 43.60L330.37 43.60L330.91 42.82Q330.37 42.82 330.37 42.29L330.37 42.29Q335.06 37.21 345.17 28.03L345.17 28.03Q359.03 14.50 368.36 8.25L368.36 8.25Q373.44 5.22 386.57-5.22L386.57-5.22Q390.48-8.64 391.02-8.64L391.02-8.64Q391.50-8.35 392.09-8.35L392.09-8.35Q392.09-8.84 393.95-9.96L393.95-9.96L394.48-9.96Q394.82-9.96 395.26-9.18L395.26-9.18L395.26-8.89L392.09-6.01L392.38-6.01Q392.48-6.01 393.16-6.54L393.16-6.54L393.16-6.25Q392.87-5.76 392.87-5.47L392.87-5.47L393.70-6.01L394.19-6.01Q394.48-6.01 394.48-5.71L394.48-5.71Q394.97-6.01 395.26-6.01L395.26-6.01L395.26-6.25L394.73-6.25L394.73-6.79L395.02-6.79L395.51-6.54ZM336.96 41.75L336.96 41.75L337.50 41.75Q338.18 41.75 349.12 30.42L349.12 30.42L348.83 30.42Q348.44 30.42 345.95 33.30L345.95 33.30Q339.94 37.99 336.96 41.75ZM387.06 34.91L386.04 34.91L386.04 35.16L387.06 35.16L387.06 34.91ZM390.23 36.47L390.23 36.47L390.23 36.72Q390.33 37.26 390.77 37.26L390.77 37.26L391.02 36.72Q390.77 36.72 390.23 36.47ZM329.59 46.78L329.59 46.78L329.83 46.78Q330.22 46.78 330.62 45.95L330.62 45.95L330.62 45.70Q330.22 45.70 329.59 46.78ZM329.30 101.90L329.05 101.90L328.81 102.39L328.81 102.69L329.05 102.69Q329.05 102.39 329.30 101.90L329.30 101.90ZM323.78 111.91L323.78 111.91L323.78 112.16Q323.78 112.70 323.24 112.70L323.24 112.70L323.00 112.70Q323.00 112.30 323.78 111.91ZM322.46 113.23L322.46 113.23L322.46 113.48Q322.46 114.01 321.92 114.01L321.92 114.01L321.92 113.77Q322.02 113.23 322.46 113.23Z" stroke="#578bfc" stroke-width="2" fill="none"/>
  <path d="M484.96-16.02L484.96-16.02L485.50-16.02Q485.84-16.02 486.28-15.19L486.28-15.19Q483.89-10.89 483.89-9.91L483.89-9.91Q485.06-9.91 485.50-8.84L485.50-8.84L485.50-8.54Q475.54 13.04 464.65 33.45L464.65 33.45L464.94 33.45Q465.09 33.45 468.41 33.20L468.41 33.20Q468.41 33.59 469.19 34.03L469.19 34.03Q470.36 33.45 478.27 32.62L478.27 32.62Q478.27 35.11 472.41 35.11L472.41 35.11Q472.36 35.25 466.50 36.52L466.50 36.52Q467.04 37.40 467.04 38.18L467.04 38.18Q469.97 37.60 471.34 37.60L471.34 37.60L471.88 38.43L471.88 39.26Q471.88 40.14 460.11 42.87L460.11 42.87Q452.39 59.77 444.38 80.71L444.38 80.71L443.85 81.01L443.55 81.01Q443.02 81.01 443.02 80.47L443.02 80.47L444.92 75.20L444.92 74.90L444.63 74.90Q441.60 82.96 440.92 83.20L440.92 83.20L440.38 83.20Q439.84 83.20 439.84 82.67L439.84 82.67Q441.60 77.59 446.53 66.65L446.53 66.65L446.53 66.36L446.24 66.36Q444.04 72.71 443.02 72.71L443.02 72.71L442.53 72.71Q440.53 72.71 440.38 71.88L440.38 71.88L451.86 44.78Q448.97 45.36 445.46 46.44L445.46 46.44Q444.92 46.19 444.63 46.19L444.63 46.19Q444.63 46.83 436.08 48.68L436.08 48.68Q432.37 49.61 431.01 50.34L431.01 50.34Q429.44 50.34 428.91 50.88L428.91 50.88L428.37 50.88L427.83 50.59Q427.83 51.66 420.61 52.83L420.61 52.83Q420.61 53.27 417.43 54.20L417.43 54.20Q404.35 86.13 404.35 89.55L404.35 89.55L403.81 89.84L403.27 89.84Q402.73 89.84 402.73 89.31L402.73 89.31Q403.52 85.84 404.59 82.67L404.59 82.67Q404.30 82.71 398.97 95.65L398.97 95.65Q397.66 99.51 396.88 99.51L396.88 99.51L396.58 98.97Q396.88 98.44 396.88 98.14L396.88 98.14L396.34 98.44Q395.80 98.44 395.80 97.85L395.80 97.85Q395.80 97.41 396.34 96.19L396.34 96.19L395.80 95.95L395.26 95.95Q395.26 97.02 393.65 97.02L393.65 97.02Q397.31 84.42 406.49 63.04L406.49 63.04Q405.81 63.04 405.13 62.50L405.13 62.50Q405.96 59.23 406.98 57.23L406.98 57.23L406.74 57.23Q406.40 57.23 397.12 59.72L397.12 59.72L396.04 58.06Q396.78 57.42 398.73 56.93L398.73 56.93L398.73 56.69Q397.95 56.69 397.41 55.57L397.41 55.57L397.41 55.32Q397.66 54.54 400.34 53.37L400.34 53.37Q400.34 51.71 402.49 51.71L402.49 51.71L402.49 51.42Q401.42 51.42 401.42 50.05L401.42 50.05Q404.05 48.68 405.42 48.68L405.42 48.68Q404.88 48.00 404.88 47.85L404.88 47.85L404.88 47.56Q407.08 46.00 412.60 44.53L412.60 44.53Q422.90 20.75 426.51 16.06L426.51 16.06L427.00 16.06Q427.54 16.11 427.54 16.60L427.54 16.60L427.54 17.14Q425.98 21.14 425.15 22.41L425.15 22.41L425.15 22.71L425.44 22.71Q426.56 19.92 427.00 19.92L427.00 19.92Q427.54 20.02 427.54 20.46L427.54 20.46Q427.54 21.00 419.53 35.69L419.53 35.69Q418.02 38.09 415.82 42.87L415.82 42.87L415.82 43.12L416.06 43.12Q416.06 42.68 430.52 16.60L430.52 16.60Q431.35 14.40 433.15 14.40L433.15 14.40Q433.15 12.55 436.38 12.16L436.38 12.16L436.62 12.74L436.62 12.99Q436.62 14.70 427.83 31.25L427.83 31.25L423.00 41.75L423.29 41.75Q434.67 38.72 456.40 34.86L456.40 34.86Q457.71 31.15 470.26 5.81L470.26 5.81Q474.17-3.32 476.66-6.64L476.66-6.64L476.95-6.64Q477.49-6.64 477.49-5.52L477.49-5.52L477.73-5.52Q477.73-6.84 480.96-10.74L480.96-10.74L481.20-10.74L482.03-10.21Q484.42-16.02 484.96-16.02ZM465.48 20.46L464.94 20.46L464.94 21.29L465.19 21.29Q465.19 21.00 465.48 20.46L465.48 20.46ZM464.94 21.58L464.40 21.58Q459.86 31.10 458.79 34.03L458.79 34.03L458.79 34.28Q459.18 34.18 464.94 21.58L464.94 21.58ZM452.64 47.85L452.64 47.85L452.64 48.10L452.93 48.10Q454.49 44.82 454.49 44.24L454.49 44.24Q454.05 44.24 452.64 47.85ZM452.64 48.39L452.39 48.39Q452.39 48.68 452.10 49.22L452.10 49.22L452.39 49.22L452.64 48.68L452.64 48.39ZM451.86 50.05L451.56 50.05Q451.56 50.34 451.32 50.88L451.32 50.88L451.32 51.17L451.56 51.17Q451.56 50.88 451.86 50.34L451.86 50.34L451.86 50.05ZM405.66 79.64L405.42 79.64Q405.42 79.93 405.13 80.47L405.13 80.47L405.13 81.01L405.42 81.01Q405.42 80.37 405.66 79.88L405.66 79.88L405.66 79.64ZM405.13 81.30L404.88 81.30Q404.88 81.59 404.59 82.13L404.59 82.13L404.59 82.37L404.88 82.37Q404.88 82.08 405.13 81.54L405.13 81.54L405.13 81.30Z" stroke="#578bfc" stroke-width="2" fill="none"/>
  <path d="M538.43 3.03L538.43 3.03L538.43 3.27Q538.62 3.27 538.62 3.03L538.62 3.03Q543.07 3.27 545.12 3.27L545.12 3.27L547.75 3.27L547.75 4.00Q544.97 4.25 543.21 4.74L543.21 4.74L543.21 4.49L534.08 6.40L534.08 6.64L534.81 6.64Q545.17 5.18 547.51 4.49L547.51 4.49L547.75 4.98L547.75 5.18Q544.63 6.40 530.27 8.06L530.27 8.06L530.27 8.30L535.30 8.30L535.30 8.79L535.06 8.79Q528.17 8.79 516.65 13.33L516.65 13.33L516.65 13.57L516.89 13.57Q518.60 12.84 525.98 10.45L525.98 10.45L525.98 10.69Q525.63 11.08 512.11 16.70L512.11 16.70Q510.16 16.85 499.90 23.63L499.90 23.63Q491.41 29.59 484.62 37.01L484.62 37.01L478.37 45.85Q478.37 46.34 475.98 49.90L475.98 49.90Q472.90 56.15 469.04 65.92L469.04 65.92L467.14 73.58Q467.14 74.61 467.87 76.22L467.87 76.22Q467.82 76.56 466.89 77.44L466.89 77.44Q466.89 82.67 476.22 86.77L476.22 86.77Q485.79 86.77 495.12 77.88L495.12 77.88Q495.65 77.88 508.98 64.99L508.98 64.99L509.47 64.99Q508.64 66.94 503.03 72.41L503.03 72.41L503.03 72.90Q503.52 72.90 511.13 65.48L511.13 65.48L519.04 58.79L519.29 58.79L519.29 59.23Q518.95 60.11 515.43 63.33L515.43 63.33Q514.31 65.33 511.38 68.31L511.38 68.31L511.87 68.31Q511.96 67.48 516.65 64.01L516.65 64.01Q518.07 62.35 518.31 62.35L518.31 62.35Q518.31 62.60 518.55 62.60L518.55 62.60Q518.55 63.09 514.01 68.12L514.01 68.12Q514.01 68.80 509.47 73.58L509.47 73.58Q509.47 74.90 497.75 85.30L497.75 85.30Q484.72 95.36 476.95 95.36L476.95 95.36Q465.92 95.36 461.38 82.23L461.38 82.23Q460.45 77.88 460.21 73.83L460.21 73.83Q460.21 63.72 467.14 51.61L467.14 51.61Q467.38 51.12 467.38 50.88L467.38 50.88L466.65 51.37Q466.65 51.12 466.41 50.63L466.41 50.63Q472.31 40.28 483.64 27.93L483.64 27.93L492.97 20.02Q493.55 20.02 498.00 16.89L498.00 16.89L506.84 11.43L506.84 11.67Q506.84 11.82 505.66 12.84L505.66 12.84L506.10 12.84Q518.90 6.15 524.51 6.15L524.51 6.15Q524.51 5.22 538.43 3.03ZM520.46 8.30L520.46 8.30L520.46 8.54L520.70 8.54L531.93 5.42L531.93 5.18L531.69 5.18Q527.34 6.15 520.46 8.30ZM529.30 10.94L530.52 10.69L530.52 11.18L529.30 11.43L529.30 10.94ZM512.35 11.91L512.35 11.91L512.60 11.91Q513.77 11.57 513.77 11.18L513.77 11.18L513.53 11.18Q512.35 11.47 512.35 11.91ZM528.61 11.18L528.61 11.18L528.61 11.67Q525.10 12.60 524.51 12.60L524.51 12.60Q524.51 12.06 528.61 11.18ZM510.21 12.60L510.21 12.60L510.21 12.84L510.45 12.84Q510.89 12.60 511.13 12.60L511.13 12.60L511.13 12.35L510.89 12.35Q510.45 12.60 510.21 12.60ZM524.32 12.60L524.32 12.60Q524.32 13.18 520.46 13.82L520.46 13.82L519.97 13.82L519.97 13.57Q523.78 12.60 524.32 12.60ZM505.86 16.21L505.86 16.21L505.86 16.46L506.10 16.46Q507.32 15.72 507.81 15.72L507.81 15.72L507.81 15.48L507.57 15.48Q506.35 16.21 505.86 16.21ZM485.30 33.89L485.30 33.89L485.55 33.89L491.06 28.42Q490.43 28.42 485.30 33.89ZM480.52 40.82L480.27 40.82L480.08 41.31L480.08 41.80L480.27 41.80Q480.27 41.26 480.52 40.82L480.52 40.82ZM470.70 58.30L470.70 58.30Q471.83 57.13 474.56 50.63L474.56 50.63Q475.10 50.39 476.22 47.51L476.22 47.51Q476.66 47.46 479.10 42.97L479.10 42.97Q479.59 42.97 479.83 41.55L479.83 41.55Q472.66 49.46 470.70 58.30ZM464.26 63.09L464.26 63.09Q464.50 63.48 464.50 64.01L464.50 64.01L464.75 64.01L464.99 62.84Q464.50 63.09 464.26 63.09ZM463.57 84.81L463.33 84.81L463.33 85.30Q466.06 89.55 466.41 89.60L466.41 89.60Q466.41 89.06 466.65 88.67L466.65 88.67Q465.09 88.28 463.57 84.81L463.57 84.81ZM471.19 85.06L471.19 85.06L471.19 85.30Q473.93 87.45 474.80 87.45L474.80 87.45L475.05 87.45L475.05 87.21Q472.71 86.47 471.19 85.06ZM482.91 92.72L482.91 92.72L482.91 92.97L483.15 92.97Q487.11 91.21 490.58 89.36L490.58 89.36L490.58 89.16L490.09 89.16Q483.40 92.72 482.91 92.72ZM470.95 91.75L470.70 91.75L470.70 91.99Q472.90 92.97 475.73 93.46L475.73 93.46L476.22 93.46L476.22 93.21Q475.44 93.21 470.95 91.75L470.95 91.75Z" stroke="#578bfc" stroke-width="2" fill="none"/>
  <path d="M610.99-16.02L610.99-16.02L611.52-16.02Q611.87-16.02 612.30-15.19L612.30-15.19Q609.91-10.89 609.91-9.91L609.91-9.91Q611.08-9.91 611.52-8.84L611.52-8.84L611.52-8.54Q601.56 13.04 590.67 33.45L590.67 33.45L590.97 33.45Q591.11 33.45 594.43 33.20L594.43 33.20Q594.43 33.59 595.21 34.03L595.21 34.03Q596.39 33.45 604.30 32.62L604.30 32.62Q604.30 35.11 598.44 35.11L598.44 35.11Q598.39 35.25 592.53 36.52L592.53 36.52Q593.07 37.40 593.07 38.18L593.07 38.18Q596.00 37.60 597.36 37.60L597.36 37.60L597.90 38.43L597.90 39.26Q597.90 40.14 586.13 42.87L586.13 42.87Q578.42 59.77 570.41 80.71L570.41 80.71L569.87 81.01L569.58 81.01Q569.04 81.01 569.04 80.47L569.04 80.47L570.95 75.20L570.95 74.90L570.65 74.90Q567.63 82.96 566.94 83.20L566.94 83.20L566.41 83.20Q565.87 83.20 565.87 82.67L565.87 82.67Q567.63 77.59 572.56 66.65L572.56 66.65L572.56 66.36L572.27 66.36Q570.07 72.71 569.04 72.71L569.04 72.71L568.55 72.71Q566.55 72.71 566.41 71.88L566.41 71.88L577.88 44.78Q575 45.36 571.48 46.44L571.48 46.44Q570.95 46.19 570.65 46.19L570.65 46.19Q570.65 46.83 562.11 48.68L562.11 48.68Q558.40 49.61 557.03 50.34L557.03 50.34Q555.47 50.34 554.93 50.88L554.93 50.88L554.39 50.88L553.86 50.59Q553.86 51.66 546.63 52.83L546.63 52.83Q546.63 53.27 543.46 54.20L543.46 54.20Q530.37 86.13 530.37 89.55L530.37 89.55L529.83 89.84L529.30 89.84Q528.76 89.84 528.76 89.31L528.76 89.31Q529.54 85.84 530.62 82.67L530.62 82.67Q530.32 82.71 525 95.65L525 95.65Q523.68 99.51 522.90 99.51L522.90 99.51L522.61 98.97Q522.90 98.44 522.90 98.14L522.90 98.14L522.36 98.44Q521.83 98.44 521.83 97.85L521.83 97.85Q521.83 97.41 522.36 96.19L522.36 96.19L521.83 95.95L521.29 95.95Q521.29 97.02 519.68 97.02L519.68 97.02Q523.34 84.42 532.52 63.04L532.52 63.04Q531.84 63.04 531.15 62.50L531.15 62.50Q531.98 59.23 533.01 57.23L533.01 57.23L532.76 57.23Q532.42 57.23 523.14 59.72L523.14 59.72L522.07 58.06Q522.80 57.42 524.76 56.93L524.76 56.93L524.76 56.69Q523.97 56.69 523.44 55.57L523.44 55.57L523.44 55.32Q523.68 54.54 526.37 53.37L526.37 53.37Q526.37 51.71 528.52 51.71L528.52 51.71L528.52 51.42Q527.44 51.42 527.44 50.05L527.44 50.05Q530.08 48.68 531.45 48.68L531.45 48.68Q530.91 48.00 530.91 47.85L530.91 47.85L530.91 47.56Q533.11 46.00 538.62 44.53L538.62 44.53Q548.93 20.75 552.54 16.06L552.54 16.06L553.03 16.06Q553.56 16.11 553.56 16.60L553.56 16.60L553.56 17.14Q552.00 21.14 551.17 22.41L551.17 22.41L551.17 22.71L551.46 22.71Q552.59 19.92 553.03 19.92L553.03 19.92Q553.56 20.02 553.56 20.46L553.56 20.46Q553.56 21.00 545.56 35.69L545.56 35.69Q544.04 38.09 541.85 42.87L541.85 42.87L541.85 43.12L542.09 43.12Q542.09 42.68 556.54 16.60L556.54 16.60Q557.37 14.40 559.18 14.40L559.18 14.40Q559.18 12.55 562.40 12.16L562.40 12.16L562.65 12.74L562.65 12.99Q562.65 14.70 553.86 31.25L553.86 31.25L549.02 41.75L549.32 41.75Q560.69 38.72 582.42 34.86L582.42 34.86Q583.74 31.15 596.29 5.81L596.29 5.81Q600.20-3.32 602.69-6.64L602.69-6.64L602.98-6.64Q603.52-6.64 603.52-5.52L603.52-5.52L603.76-5.52Q603.76-6.84 606.98-10.74L606.98-10.74L607.23-10.74L608.06-10.21Q610.45-16.02 610.99-16.02ZM591.50 20.46L590.97 20.46L590.97 21.29L591.21 21.29Q591.21 21.00 591.50 20.46L591.50 20.46ZM590.97 21.58L590.43 21.58Q585.89 31.10 584.81 34.03L584.81 34.03L584.81 34.28Q585.21 34.18 590.97 21.58L590.97 21.58ZM578.66 47.85L578.66 47.85L578.66 48.10L578.96 48.10Q580.52 44.82 580.52 44.24L580.52 44.24Q580.08 44.24 578.66 47.85ZM578.66 48.39L578.42 48.39Q578.42 48.68 578.13 49.22L578.13 49.22L578.42 49.22L578.66 48.68L578.66 48.39ZM577.88 50.05L577.59 50.05Q577.59 50.34 577.34 50.88L577.34 50.88L577.34 51.17L577.59 51.17Q577.59 50.88 577.88 50.34L577.88 50.34L577.88 50.05ZM531.69 79.64L531.45 79.64Q531.45 79.93 531.15 80.47L531.15 80.47L531.15 81.01L531.45 81.01Q531.45 80.37 531.69 79.88L531.69 79.88L531.69 79.64ZM531.15 81.30L530.91 81.30Q530.91 81.59 530.62 82.13L530.62 82.13L530.62 82.37L530.91 82.37Q530.91 82.08 531.15 81.54L531.15 81.54L531.15 81.30Z" stroke="#578bfc" stroke-width="2" fill="none"/>
  <path d="M679.05-0.54L681.64-1.27L681.88-1.27Q682.42-1.27 682.96 0.63L682.96 0.63L682.32 1.07L682.08 1.07Q681.10 1.07 675.59 1.56L675.59 1.56Q676.27 2.83 677.54 3.47L677.54 3.47Q677.93 3.22 679.49 2.98L679.49 2.98Q681.45 3.56 681.45 4.39L681.45 4.39Q681.40 5.08 680.13 5.57L680.13 5.57L680.13 5.81L679.69 5.81L679.69 5.32L679.05 5.32L679.05 5.81L678.61 5.57L678.42 5.57L678.42 6.05L677.54 6.05L676.42 6.30L676.42 5.81L676.03 5.81Q676.03 6.30 674.90 6.30L674.90 6.30L674.90 6.05L674.46 6.05L674.71 6.49Q674.41 6.74 671.68 6.98L671.68 6.98L671.68 6.49L671.00 6.49Q671.00 7.23 667.97 7.23L667.97 7.23L667.97 6.98L667.53 6.98Q667.53 7.71 667.09 7.71L667.09 7.71L666.65 7.71L666.65 7.23L665.77 7.23L666.02 7.71L665.58 7.91Q665.14 7.71 664.94 7.71L664.94 7.71Q664.21 8.15 663.62 8.15L663.62 8.15L663.62 7.71L662.74 7.71L662.99 8.15L662.99 8.40Q662.40 7.91 662.30 7.91L662.30 7.91Q661.87 7.91 661.87 8.64L661.87 8.64L661.23 8.64L661.23 8.15L660.79 8.15L660.79 8.64L660.60 8.64L660.60 8.15L659.72 8.15L659.91 8.64L658.84 8.40L658.64 8.40L658.84 8.89L658.40 9.13L657.76 9.13L657.76 8.64L657.32 8.64Q657.08 8.64 657.08 8.89L657.08 8.89L656.64 8.64Q651.76 10.55 643.21 11.23L643.21 11.23Q630.81 13.33 630.81 13.82L630.81 13.82Q630.57 13.82 630.57 13.57L630.57 13.57Q628.03 14.06 627.54 14.55L627.54 14.55Q627.15 14.31 626.66 14.31L626.66 14.31Q626.66 14.75 626.22 14.75L626.22 14.75L625.78 14.75Q625.59 14.75 625.59 14.55L625.59 14.55Q624.46 14.99 624.07 14.99L624.07 14.99L624.07 14.75Q620.80 15.58 620.80 17.58L620.80 17.58Q612.65 33.59 612.11 35.30L612.11 35.30L612.35 35.30Q617.04 34.33 617.77 34.33L617.77 34.33Q617.97 34.33 618.41 34.57L618.41 34.57Q620.70 34.08 625.15 33.89L625.15 33.89L625.15 34.33L627.78 34.08Q628.17 34.18 628.17 34.57L628.17 34.57Q626.46 35.40 626.46 35.74L626.46 35.74L626.66 35.74Q627.05 35.50 627.54 35.50L627.54 35.50L627.54 35.74L627.98 35.50L628.17 35.50Q628.42 35.50 628.42 35.74L628.42 35.74Q628.76 35.50 631.25 35.30L631.25 35.30L631.45 35.74L631.45 35.99Q631.45 36.87 627.10 37.65L627.10 37.65L627.10 37.89L627.54 37.89Q630.08 37.65 631.25 37.65L631.25 37.65L631.45 38.09Q630.18 40.19 627.78 40.48L627.78 40.48Q623.10 42.14 611.67 43.75L611.67 43.75L611.67 44.24L612.11 43.99L613.87 43.99Q613.87 45.17 608.64 45.90L608.64 45.90Q606.25 46.44 606.25 48.49L606.25 48.49Q604.05 52.73 598.44 67.09L598.44 67.09L598.63 67.09Q599.27 66.89 607.76 65.67L607.76 65.67L607.76 65.92Q608.69 65.48 611.23 64.99L611.23 64.99L611.23 65.23L611.67 64.99L612.11 65.23Q612.16 64.75 612.55 64.75L612.55 64.75L612.99 64.99Q612.99 64.50 616.89 64.06L616.89 64.06L616.89 64.50L616.70 64.99L617.09 64.99Q617.29 64.99 629.30 62.65L629.30 62.65Q630.32 64.01 630.37 65.23L630.37 65.23Q630.13 65.23 624.07 66.65L624.07 66.65L624.07 66.89L625.15 66.89Q625.39 66.89 625.39 66.65L625.39 66.65Q625.78 66.89 626.03 66.89L626.03 66.89Q626.17 66.89 628.86 66.65L628.86 66.65L629.74 67.58Q629.74 68.51 623.00 70.17L623.00 70.17L623.19 70.65Q622.75 70.70 622.75 71.09L622.75 71.09L622.31 70.90L621.68 70.90Q621.68 71.44 617.77 72.07L617.77 72.07L617.77 72.31L618.65 72.31Q618.65 72.75 607.76 74.66L607.76 74.66Q591.89 77.49 591.89 78.17L591.89 78.17Q590.28 80.27 590.19 81.25L590.19 81.25Q587.55 84.57 587.55 85.50L587.55 85.50Q586.04 85.50 586.04 85.01L586.04 85.01L587.79 80.08Q586.18 81.98 586.04 81.98L586.04 81.98L585.84 81.98L585.84 81.74Q585.84 81.49 586.04 81.49L586.04 81.49L585.84 81.01Q586.67 79.20 586.91 78.91L586.91 78.91L586.91 78.66Q583.64 78.66 583.64 76.07L583.64 76.07Q587.99 74.90 587.99 74.41L587.99 74.41Q588.18 74.02 588.18 73.49L588.18 73.49L587.35 72.07L587.35 71.83L587.55 71.34Q587.26 71.34 586.67 70.17L586.67 70.17Q586.67 69.68 590.38 68.99L590.38 68.99Q593.21 62.40 593.21 61.91L593.21 61.91Q591.70 63.82 591.46 63.82L591.46 63.82L591.26 63.82L591.26 62.84Q592.92 59.72 597.75 48.00L597.75 48.00L597.56 48.00Q591.02 49.17 590.19 49.17L590.19 49.17L589.31 48.73Q589.06 48.73 588.62 48.97L588.62 48.97Q587.16 48.97 585.16 47.31L585.16 47.31L585.16 46.58L585.84 46.58L585.84 46.34Q584.52 44.87 584.52 43.31L584.52 43.31Q587.55 42.14 588.87 42.14L588.87 42.14L588.87 41.65Q588.38 41.65 587.99 41.89L587.99 41.89Q586.13 41.16 585.60 41.16L585.60 41.16L585.60 40.72Q601.46 37.89 602.54 37.40L602.54 37.40Q609.03 23.93 612.55 17.58L612.55 17.58L612.55 17.38Q600.68 19.73 597.56 20.21L597.56 20.21L595.61 19.97Q594.38 20.21 593.85 20.21L593.85 20.21Q593.16 19.09 592.97 17.58L592.97 17.58Q595.31 17.24 595.61 16.89L595.61 16.89L595.80 16.89Q596.04 16.89 596.04 17.14L596.04 17.14Q600.59 16.21 600.59 15.72L600.59 15.72Q600.24 14.75 599.95 14.75L599.95 14.75Q598.10 14.99 597.12 14.99L597.12 14.99Q596.48 14.16 596.48 13.33L596.48 13.33L596.48 13.13L596.68 12.65Q596.88 12.65 596.88 12.89L596.88 12.89Q607.47 10.55 610.35 10.06L610.35 10.06L611.23 10.55L611.47 10.55L611.47 10.30L611.04 10.30L611.04 10.06Q611.33 10.06 613.43 9.57L613.43 9.57Q613.48 10.06 613.87 10.06L613.87 10.06Q613.87 9.23 616.46 8.89L616.46 8.89L617.53 9.33Q617.63 8.89 617.97 8.89L617.97 8.89L618.21 8.89L618.21 9.33L618.65 9.33L618.41 8.89L619.29 8.89Q619.29 8.35 621.24 8.15L621.24 8.15Q621.29 8.64 621.68 8.64L621.68 8.64Q621.68 7.71 626.03 7.47L626.03 7.47Q626.03 7.23 626.66 7.23L626.66 7.23L626.66 7.47L627.10 7.23Q627.54 7.47 627.78 7.47L627.78 7.47Q627.78 6.49 632.96 6.49L632.96 6.49Q632.96 6.10 638.43 5.32L638.43 5.32L638.43 6.05L638.82 6.05Q638.82 4.88 642.33 4.88L642.33 4.88Q644.38 4.15 645.56 4.15L645.56 4.15L646.24 4.15Q646.73 4.15 647.12 4.39L647.12 4.39Q647.12 3.52 656.45 2.49L656.45 2.49L656.45 2.98L657.08 2.98L656.88 2.49L656.88 2.29L658.40 2.05L658.40 2.29Q659.28 1.81 659.72 1.81L659.72 1.81L659.72 2.05L666.02 0.88L666.46 1.07Q669.09 0.44 676.42-0.54L676.42-0.54L676.42-0.78L676.86-0.54L677.73-0.54Q678.22-0.54 678.61-0.78L678.61-0.78L679.05-0.54ZM672.95 6.30L672.07 6.30L672.07 6.49L672.95 6.49L672.95 6.30ZM615.82 9.57L614.70 9.57L614.70 9.81L615.82 9.81L615.82 9.57ZM605.62 34.33L605.62 34.33L605.62 34.57L605.81 34.57Q605.81 34.03 606.45 33.15L606.45 33.15L606.45 32.91Q606.10 32.91 605.62 34.33ZM617.09 72.07L616.26 72.07L616.26 72.31L617.09 72.31L617.09 72.07ZM614.06 72.51L614.06 72.51L614.06 72.75Q614.94 72.51 615.58 72.51L615.58 72.51L615.58 72.31L614.70 72.31Q614.31 72.51 614.06 72.51ZM608.84 73.49L607.96 73.49L607.96 73.73L608.84 73.73L608.84 73.49Z" stroke="#578bfc" stroke-width="2" fill="none"/>
  <path d="M683.64-10.55L683.64-10.55L687.26-10.55Q693.55-10.55 696.48-9.13L696.48-9.13L696.88-9.33Q700.93-8.15 705.52-3.52L705.52-3.52Q707.71 0.10 707.71 3.32L707.71 3.32L707.71 4.10Q707.71 15.72 685.84 32.42L685.84 32.42Q681.10 35.94 672.80 41.26L672.80 41.26L672.41 41.06Q672.41 41.80 669.78 42.87L669.78 42.87Q666.31 45.21 662.55 46.68L662.55 46.68Q671.48 58.84 686.04 76.42L686.04 76.42Q686.04 76.81 688.48 79.64L688.48 79.64Q690.04 82.18 692.29 84.81L692.29 84.81Q700.10 95.90 702.10 99.51L702.10 99.51Q702.29 99.51 702.29 99.90L702.29 99.90L702.10 99.90Q699.12 97.46 698.49 95.90L698.49 95.90L698.29 95.90L698.29 96.29Q699.02 96.63 700.68 99.71L700.68 99.71L701.12 99.51L701.32 99.51Q701.32 101.12 705.52 105.71L705.52 105.71Q705.52 106.05 710.16 112.74L710.16 112.74Q710.35 113.87 710.35 114.36L710.35 114.36L709.96 114.36L705.71 108.74Q705.71 109.52 704.30 110.74L704.30 110.74Q694.29 99.71 686.67 90.04L686.67 90.04Q682.32 85.60 675.59 76.22L675.59 76.22Q659.13 54.74 655.13 49.90L655.13 49.90L654.93 49.90Q653.91 51.51 653.91 52.49L653.91 52.49Q653.76 52.49 653.32 53.13L653.32 53.13L653.52 53.52Q651.90 57.37 650.93 58.54L650.93 58.54L651.12 58.94Q651.12 59.08 648.29 65.14L648.29 65.14L648.10 65.14Q648.10 64.94 647.90 64.94L647.90 64.94L647.90 65.38Q648.29 65.38 648.29 65.58L648.29 65.58Q646.24 71.04 645.70 71.39L645.70 71.39L645.70 71.00Q646.09 69.78 646.29 69.78L646.29 69.78Q646.09 69.38 646.09 69.19L646.09 69.19L645.90 69.19Q644.97 72.41 642.09 78.81L642.09 78.81L640.87 78.81Q640.87 78.61 641.06 78.61L641.06 78.61Q641.06 77.83 639.84 77.59L639.84 77.59Q639.84 78.03 639.45 78.03L639.45 78.03Q639.45 77.83 639.26 77.83L639.26 77.83Q641.26 73.83 643.90 67.19L643.90 67.19Q645.46 64.16 645.46 63.13L645.46 63.13Q644.68 63.13 644.68 62.55L644.68 62.55L644.48 62.55Q642.87 66.31 642.29 68.55L642.29 68.55L641.85 68.55Q639.45 68.21 639.45 67.38L639.45 67.38Q641.46 62.99 641.46 62.35L641.46 62.35Q641.06 61.87 641.06 61.77L641.06 61.77Q649.32 42.09 660.16 19.38L660.16 19.38Q663.82 11.77 664.75 10.74L664.75 10.74L664.94 10.74L665.38 12.16L665.77 11.96Q665.87 11.96 666.36 12.35L666.36 12.35Q668.26 8.45 668.99 8.35L668.99 8.35Q669.58 9.52 669.58 9.72L669.58 9.72Q669.09 11.04 667.77 13.33L667.77 13.33L668.16 13.57Q671.14 7.18 671.78 7.13L671.78 7.13Q673.00 7.23 673.00 7.71L673.00 7.71L673.00 7.91Q671.97 9.57 671.97 10.94L671.97 10.94L672.17 10.94L661.13 35.64Q660.94 35.64 660.94 35.84L660.94 35.84Q661.13 35.84 661.13 36.04L661.13 36.04Q660.69 36.23 659.33 39.26L659.33 39.26L659.52 39.65L658.94 40.67L658.94 41.06L659.13 41.06Q665.09 37.94 688.48 20.56L688.48 20.56Q697.31 10.55 697.31 3.91L697.31 3.91L697.31 3.32Q697.31-0.24 689.45-4.74L689.45-4.74L687.06-5.13Q685.50-5.13 675.39-2.49L675.39-2.49Q669.68-1.51 668.55-1.51L668.55-1.51Q668.16-1.51 668.16-1.90L668.16-1.90Q668.16-2.25 671.58-3.13L671.58-3.13L671.58-3.32Q671.00-3.32 671.00-3.71L671.00-3.71Q674.27-5.13 674.61-5.13L674.61-5.13L674.61-5.32L674.41-5.32L665.58-2.49L665.38-2.49Q664.94-2.49 664.94-2.93L664.94-2.93Q670.90-5.81 671.19-6.15L671.19-6.15L671.00-6.15Q668.99-5.62 662.16-1.71L662.16-1.71L661.96-1.71Q661.52-1.71 661.52-2.10L661.52-2.10Q666.26-6.59 674.22-9.13L674.22-9.13Q675.88-9.67 679.44-10.35L679.44-10.35L679.44-10.16Q680.47-10.55 683.64-10.55ZM671.39-6.35L671.39-6.35L671.39-6.15L671.58-6.15Q674.85-6.93 678.61-8.15L678.61-8.15L678.61-8.35L678.42-8.35Q677.39-8.35 671.39-6.35ZM690.28-8.35L688.87-8.35L688.87-8.15Q689.84-8.15 694.48-6.93L694.48-6.93L694.68-6.93L694.68-7.13Q692.14-8.35 690.28-8.35L690.28-8.35ZM701.71-5.52L701.51-5.52Q704.74-2.10 704.74 2.93L704.74 2.93L704.74 4.10Q704.74 8.15 700.49 15.77L700.49 15.77Q695.80 21.00 692.29 24.61L692.29 24.61L692.29 25L692.48 25Q692.48 24.66 695.70 21.97L695.70 21.97Q698.00 19.14 699.12 17.97L699.12 17.97Q706.35 9.67 706.35 2.10L706.35 2.10Q706.35-2.59 701.71-5.52L701.71-5.52ZM692.29-4.74L692.09-4.74L692.09-4.54Q698.88 0.05 698.88 5.13L698.88 5.13Q698.68 5.47 698.68 5.91L698.68 5.91L698.68 6.30L698.88 6.30Q699.32 4.05 699.32 3.13L699.32 3.13L699.32 2.93Q699.32-1.61 695.07-3.71L695.07-3.71Q693.95-4.35 692.29-4.74L692.29-4.74ZM701.51-3.71L701.51-3.71L701.51-3.32Q702.10-2.64 702.10-2.29L702.10-2.29L702.29-2.29L702.29-2.49Q701.86-3.71 701.51-3.71ZM699.32-2.93L699.12-2.93Q700.93-1.07 700.93-0.49L700.93-0.49L701.12-0.49L701.12-1.12Q699.95-2.73 699.32-2.93L699.32-2.93ZM700.49 1.32L700.49 1.32L700.49 1.51Q700.68 3.32 701.12 3.32L701.12 3.32L701.12 2.49Q701.12 1.46 700.49 1.32ZM690.87 25.98L690.87 25.98L690.87 26.22L692.09 25.20L691.85 25.20Q690.97 25.59 690.87 25.98ZM668.99 41.65L668.99 41.65L668.99 41.85L669.19 41.85Q669.58 41.85 669.58 41.46L669.58 41.46L669.58 41.06Q669.29 41.06 668.99 41.65ZM665.58 43.85L665.19 43.85Q665.19 44.29 664.55 44.29L664.55 44.29L664.55 44.48L664.94 44.48Q664.94 44.09 665.58 44.09L665.58 44.09L665.58 43.85ZM657.52 50.29L657.52 50.29L657.52 50.49L658.74 51.71L658.74 51.32Q658.50 51.32 657.52 50.29ZM659.33 52.10L659.13 52.10L659.13 52.49Q659.23 52.49 659.72 52.93L659.72 52.93L659.72 52.69Q659.33 52.69 659.33 52.10L659.33 52.10ZM660.94 54.49L660.94 54.49Q661.33 55.42 661.77 55.52L661.77 55.52Q661.38 54.59 660.94 54.49ZM663.38 57.32L663.13 57.32L663.13 57.71Q663.57 57.71 663.57 58.35L663.57 58.35L663.96 58.35Q663.38 57.67 663.38 57.32L663.38 57.32ZM666.75 61.96L666.55 61.96L666.55 62.35L667.38 62.94Q666.75 62.16 666.75 61.96L666.75 61.96ZM667.77 63.57L667.77 63.57L667.77 63.77L668.55 64.55Q668.16 63.62 667.77 63.57ZM669.58 64.75L669.58 64.75L669.58 64.94Q670.21 65.33 678.61 76.61L678.61 76.61Q685.35 85.55 687.84 88.43L687.84 88.43L688.23 88.43Q680.22 76.71 669.58 64.75ZM645.26 71.97L645.26 71.97L645.70 71.97L645.70 72.17L645.46 72.61Q645.70 72.61 645.70 72.80L645.70 72.80Q645.17 72.80 644.68 74.80L644.68 74.80L644.48 74.80L644.48 74.17Q644.48 73.97 644.68 73.97L644.68 73.97L644.48 73.58L644.48 73.39Q645.02 73.39 645.26 71.97ZM684.86 81.64L684.86 81.64L684.86 81.84Q696.78 98.39 698.68 100.49L698.68 100.49Q699.76 101.22 700.10 102.10L700.10 102.10Q699.90 102.49 699.90 102.69L699.90 102.69L700.29 102.49L700.49 102.49Q701.90 103.52 701.90 104.10L701.90 104.10L702.10 104.10L702.10 103.91Q700.98 101.86 692.68 91.26L692.68 91.26Q687.35 84.38 684.86 81.64Z" stroke="#578bfc" stroke-width="2" fill="none"/>
  <path d="M764.60-12.89L764.60-12.89Q781.45-9.67 781.45-3.52L781.45-3.52L781.45-2.05Q781.45 4.59 751.32 29.30L751.32 29.30Q750.68 29.30 740.19 37.40L740.19 37.40L740.19 37.70L740.48 37.70Q755.91 31.98 763.67 31.98L763.67 31.98Q769.87 31.98 771.19 36.52L771.19 36.52Q771.19 37.21 772.12 38.92L772.12 38.92Q772.12 43.16 759.47 56.40L759.47 56.40Q741.50 71.14 740.48 71.14L740.48 71.14L728.13 80.18Q719.73 86.77 702.25 101.86L702.25 101.86Q691.99 112.21 690.19 112.40L690.19 112.40Q689.06 114.21 687.50 114.21L687.50 114.21L687.50 113.92L694.73 106.05L685.11 113.62L684.47 113.62Q684.47 113.28 687.21 110.89L687.21 110.89Q680.03 116.02 676.95 117.24L676.95 117.24L673.93 119.63Q673.00 119.63 670.65 121.73L670.65 121.73L669.73 121.73L669.73 121.44L677.54 114.21L677.25 114.21Q676.56 115.33 674.85 116.31L674.85 116.31Q674.85 116.02 674.56 116.02L674.56 116.02Q674.51 116.65 668.85 120.85L668.85 120.85L668.51 120.85L668.51 120.51Q673.83 114.94 689.89 101.27L689.89 101.27L695.61 96.44Q695.02 96.44 695.02 95.85L695.02 95.85Q696.83 90.33 703.17 74.46L703.17 74.46L703.17 74.17L702.83 74.17Q702.29 77.15 700.73 77.15L700.73 77.15L700.73 76.86Q700.73 76.17 701.66 75.05L701.66 75.05Q701.37 75.05 701.37 74.76L701.37 74.76Q701.86 74.76 702.83 71.73L702.83 71.73Q702.54 71.73 702.54 71.44L702.54 71.44Q703.37 71.34 706.15 62.70L706.15 62.70Q706.88 62.11 707.67 59.08L707.67 59.08L707.37 59.08L706.45 59.72Q706.45 59.38 706.15 59.38L706.15 59.38Q706.15 59.81 705.27 60.30L705.27 60.30L704.64 60.30Q708.89 56.98 708.89 56.40L708.89 56.40Q719.87 29.59 728.13 13.92L728.13 13.92Q729.93 9.62 732.08 8.79L732.08 8.79L732.08 9.13Q732.08 10.01 730.57 13.33L730.57 13.33L730.57 13.62L730.86 13.62Q731.10 12.16 734.77 8.50L734.77 8.50L735.06 8.50Q734.77 10.11 733.54 11.82L733.54 11.82L733.89 11.82Q736.38 8.20 736.87 8.20L736.87 8.20L737.16 8.20L737.16 9.72Q737.16 10.01 736.87 10.01L736.87 10.01Q737.50 10.99 737.50 11.52L737.50 11.52Q730.86 23.54 723.34 41.02L723.34 41.02L723.63 41.02Q735.84 32.76 757.37 14.21L757.37 14.21Q771.48 0.93 771.48-2.05L771.48-2.05L771.48-2.34Q771.48-4.00 763.96-5.66L763.96-5.66L761.57-5.66Q759.62-5.66 757.37-5.03L757.37-5.03Q755.22-5.32 754.93-5.32L754.93-5.32Q748.54-4.74 743.51-3.86L743.51-3.86L742.29-4.15Q738.38-2.93 733.25-2.05L733.25-2.05Q733.25-2.93 743.51-7.13L743.51-7.13Q744.48-7.76 745.31-7.76L745.31-7.76L745.31-8.06L745.02-8.06Q742.97-7.76 738.09-5.96L738.09-5.96Q737.01-6.25 736.87-6.25L736.87-6.25L732.67-4.44Q737.35-7.91 745.31-9.86L745.31-9.86Q745.31-10.55 754.93-11.67L754.93-11.67L755.57-11.38Q758.40-12.26 764.60-12.89ZM772.71-8.64L771.83-8.64Q771.83-8.06 773.63-7.76L773.63-7.76Q773.63-8.20 772.71-8.64L772.71-8.64ZM768.80-6.84L766.70-6.84L766.70-6.54Q768.60-6.54 772.41-3.22L772.41-3.22L772.41-5.32Q772.41-6.35 768.80-6.84L768.80-6.84ZM777.25-6.84L776.61-6.84L776.61-6.54Q777.54-5.03 777.54-4.15L777.54-4.15L778.13-4.15L778.42-5.66L778.42-6.25Q777.98-6.25 777.25-6.84L777.25-6.84ZM726.03 31.40L726.03 31.40L726.03 31.69L726.32 31.69L727.25 29.30Q726.76 29.30 726.03 31.40ZM725.15 33.50L724.85 33.50Q724.85 34.13 720.90 42.82L720.90 42.82Q722.71 40.23 725.15 34.08L725.15 34.08L725.15 33.50ZM717.92 37.70L717.63 37.70Q717.63 38.04 717.29 38.62L717.29 38.62L717.29 39.21L717.63 39.21Q717.63 38.53 717.92 38.04L717.92 38.04L717.92 37.70ZM717.29 39.50L716.99 39.50Q716.99 39.84 716.70 40.43L716.70 40.43L717.29 40.43L717.29 39.50ZM710.40 55.47L710.40 55.47L710.40 55.76L710.69 55.76L716.70 41.31L716.70 40.72Q716.26 40.77 710.40 55.47ZM703.17 90.14L703.17 90.14L703.47 90.14Q711.52 83.25 740.19 61.52L740.19 61.52Q750.63 52.98 760.35 43.12L760.35 43.12Q760.35 42.82 760.64 42.24L760.64 42.24Q759.77 42.24 759.77 41.94L759.77 41.94L759.18 42.24Q758.84 42.24 758.84 41.94L758.84 41.94L758.25 42.24L756.74 42.24L756.74 41.65L760.64 41.65L760.64 41.31L757.37 41.31Q747.41 41.31 729.64 49.46L729.64 49.46Q729.30 49.90 716.99 55.76L716.99 55.76Q712.50 66.41 703.17 90.14ZM750.15 43.12L750.15 42.53L751.03 42.53L751.03 43.12L750.15 43.12ZM707.96 61.52L707.96 61.52Q708.50 61.52 709.47 58.79L709.47 58.79L709.77 58.79L709.77 58.20Q708.89 58.20 707.96 61.52ZM707.96 61.82L707.67 61.82Q707.67 62.55 707.08 63.33L707.08 63.33L707.08 63.62L707.67 63.62Q707.96 62.55 707.96 62.40L707.96 62.40L707.96 61.82ZM707.08 63.92L706.79 63.92L706.15 66.02L706.15 66.31L706.45 66.31Q707.08 64.70 707.08 64.50L707.08 64.50L707.08 63.92ZM705.27 68.12L705.27 68.12L705.27 68.41L705.57 68.41Q705.86 67.38 705.86 67.24L705.86 67.24Q705.27 67.24 705.27 68.12ZM735.06 67.53L733.89 67.24L734.18 67.82L731.45 69.92L731.45 69.34L730.86 69.34L731.45 70.21Q730.71 70.85 730.57 70.85L730.57 70.85L729.93 70.56Q729.93 70.85 729.64 70.85L729.64 70.85L729.64 70.56Q729.05 70.85 728.76 70.85L728.76 70.85L728.76 71.14L729.35 71.14Q729.35 70.85 729.64 70.85L729.64 70.85L729.93 71.44Q729.69 71.44 728.13 72.66L728.13 72.66L727.83 72.66L727.83 72.36L728.13 71.73L727.83 71.73Q727.54 72.71 726.03 74.17L726.03 74.17Q726.03 73.54 725.44 73.54L725.44 73.54L725.44 73.83Q726.03 73.93 726.03 74.46L726.03 74.46L724.85 75.34Q724.27 75.05 723.93 75.05L723.93 75.05Q723.93 75.63 723.34 75.63L723.34 75.63L723.63 76.27L723.63 76.56Q721.34 78.08 720.90 78.08L720.90 78.08L721.53 76.86L721.53 76.56L721.24 76.56Q721.24 78.37 719.09 78.37L719.09 78.37L719.09 78.66L720.02 78.66L720.02 78.96Q720.02 79.39 718.51 80.18L718.51 80.18L717.92 80.18L717.29 79.88L717.63 80.47L717.63 81.10Q712.99 84.72 712.79 84.72L712.79 84.72L712.50 84.72L712.79 84.08L712.21 83.79Q712.21 84.38 711.57 84.38L711.57 84.38Q711.87 84.96 711.87 85.30L711.87 85.30L712.79 85.30Q725.24 77.05 735.06 67.53L735.06 67.53ZM705.27 68.75L704.98 68.75Q704.98 69.04 704.64 69.63L704.64 69.63L704.64 69.92L704.98 69.92Q704.98 69.63 705.27 69.04L705.27 69.04L705.27 68.75ZM704.64 70.21L704.35 70.21L704.05 71.44Q704.64 71.44 704.64 70.56L704.64 70.56L704.64 70.21ZM716.70 80.76L716.11 80.76L716.11 81.69Q716.70 81.69 716.70 81.10L716.70 81.10L716.70 80.76ZM714.60 82.28L714.60 82.28L714.89 82.28Q715.48 82.28 715.48 81.69L715.48 81.69L715.48 81.40Q715.09 81.40 714.60 82.28ZM695.95 98.24L695.95 98.24L695.95 98.83Q696.34 98.83 696.83 97.95L696.83 97.95Q696.24 98.24 695.95 98.24ZM692.33 101.86L691.70 101.86Q685.94 107.28 685.11 107.28L685.11 107.28Q685.16 107.86 685.69 107.86L685.69 107.86Q685.69 107.08 692.33 102.15L692.33 102.15L692.33 101.86ZM677.88 113.62L677.88 113.62L677.88 114.21Q685.11 108.25 685.11 107.86L685.11 107.86L684.77 107.86Q678.37 113.62 677.88 113.62Z" stroke="#578bfc" stroke-width="2" fill="none"/>
  <path d="M814.75-21.97L814.75-21.97L815.19-21.97Q815.43-18.85 815.87-16.65L815.87-16.65L815.87-16.41Q815.87-16.21 815.63-16.21L815.63-16.21L815.87-15.72Q815.87-15.19 815.63-13.96L815.63-13.96Q815.63-13.18 815.87-11.96L815.87-11.96Q815.43-6.15 815.43-2.83L815.43-2.83L815.19-2.83L815.43-2.39L815.43-2.15L814.99-1.51L814.99 0.29Q814.99 4.74 814.50 4.74L814.50 4.74L814.75 5.18Q814.75 8.30 814.06 8.30L814.06 8.30Q814.06 8.06 813.87 8.06L813.87 8.06L813.87 8.98L814.31 8.74L814.31 9.18Q814.31 9.42 814.06 9.42L814.06 9.42L814.31 9.86L814.06 10.99L813.62 10.74L813.62 11.43L814.06 11.43L814.06 11.87Q814.06 12.30 813.62 12.30L813.62 12.30L813.87 12.74L813.87 14.50Q813.87 15.63 813.43 15.63L813.43 15.63L813.62 16.06L813.62 16.99Q813.62 17.19 813.43 17.19L813.43 17.19L813.62 17.63L813.62 18.31Q813.62 18.75 813.18 18.75L813.18 18.75Q813.18 18.99 813.43 19.43L813.43 19.43Q813.18 21.39 812.99 21.88L812.99 21.88Q812.99 22.07 813.18 22.07L813.18 22.07Q812.99 24.07 812.74 24.07L812.74 24.07L812.99 24.56Q812.60 28.08 812.30 28.08L812.30 28.08L812.50 28.56Q812.06 30.22 812.06 30.57L812.06 30.57L812.30 31.01Q812.06 31.64 811.87 31.64L811.87 31.64Q812.06 32.08 812.06 32.32L812.06 32.32Q812.06 34.57 811.62 34.57L811.62 34.57L811.87 35.01L811.87 35.45Q811.87 35.64 811.62 35.64L811.62 35.64Q811.62 35.89 811.87 35.89L811.87 35.89Q811.28 41.21 810.74 42.14L810.74 42.14L811.18 43.02L810.74 43.21L810.74 42.77L810.50 42.77L810.50 43.21L810.99 43.46Q810.74 45.65 810.30 47.46L810.30 47.46Q810.30 47.71 810.50 47.71L810.50 47.71Q809.62 54.54 808.74 66.16L808.74 66.16L808.98 66.60Q808.50 66.60 808.06 76.61L808.06 76.61L808.06 76.86Q808.06 77.05 807.86 77.05L807.86 77.05Q807.86 77.29 808.06 77.29L808.06 77.29L807.86 79.49L807.86 80.86L807.62 81.30Q807.86 81.30 807.86 81.49L807.86 81.49L807.18 81.93Q807.18 81.74 806.98 81.74L806.98 81.74L806.30 82.86L806.30 84.62L806.49 84.62Q806.74 83.45 806.74 83.30L806.74 83.30L807.42 83.30L807.42 84.42Q807.42 85.99 806.74 85.99L806.74 85.99L806.74 86.18L806.98 86.62L806.49 86.62Q806.30 85.84 806.30 85.74L806.30 85.74Q806.74 85.74 806.74 85.30L806.74 85.30Q806.49 85.30 806.05 85.06L806.05 85.06L805.86 86.62L805.86 88.18L805.62 88.62L806.05 88.87Q806.05 86.87 806.74 86.87L806.74 86.87L806.98 87.30L806.98 88.87Q806.59 88.87 806.30 89.31L806.30 89.31Q805.86 89.06 805.62 89.06L805.62 89.06L805.62 89.75Q804.88 96.44 804.74 96.44L804.74 96.44Q804.74 96.63 804.93 96.63L804.93 96.63Q804.49 101.17 804.05 102.00L804.05 102.00Q804.05 102.20 804.30 102.20L804.30 102.20L803.86 105.32L804.05 105.76Q803.61 106.69 803.17 110.89L803.17 110.89L802.73 110.89Q802.93 106.40 803.42 105.32L803.42 105.32L803.17 104.88Q803.71 101.42 804.05 100.88L804.05 100.88L804.05 100.63L803.42 99.76Q803.61 98.19 804.05 98.19L804.05 98.19L803.86 96.63L803.86 96.44Q803.86 96.19 804.05 96.19L804.05 96.19Q803.86 95.75 803.86 95.51L803.86 95.51L803.61 95.51Q803.61 98.44 803.17 98.44L803.17 98.44Q803.17 98.63 803.42 98.63L803.42 98.63Q802.73 102.00 802.73 104.44L802.73 104.44Q802.73 104.74 802.05 105.08L802.05 105.08L802.29 106.20L802.29 106.64L801.86 107.32L801.86 108.89L801.61 108.89L801.86 110.45Q801.86 110.89 801.42 110.89L801.42 110.89L801.42 110.64Q801.03 110.89 800.29 110.89L800.29 110.89L800.29 111.57L801.42 111.13L801.61 111.57L801.61 112.89Q801.61 113.33 801.17 113.33L801.17 113.33Q800.73 112.79 800.73 112.45L800.73 112.45L800.49 112.45Q800.49 112.99 800.05 113.57L800.05 113.57L800.05 114.65L800.29 115.14Q799.90 115.14 799.61 117.14L799.61 117.14Q799.61 117.33 799.85 117.33L799.85 117.33Q799.61 119.73 799.17 120.90L799.17 120.90L798.73 120.90L799.85 109.77L799.61 109.77L799.85 109.33Q799.41 108.79 799.41 108.64L799.41 108.64L799.61 108.64L800.05 108.89L800.05 108.64Q799.85 108.25 799.85 108.01L799.85 108.01Q800.29 108.01 800.29 107.57L800.29 107.57L800.29 106.88Q800.29 105.76 799.61 105.76L799.61 105.76L799.61 105.57Q800.34 105.57 800.49 104.64L800.49 104.64Q800.29 104.25 800.29 104.00L800.29 104.00L800.05 104.00Q800.05 104.44 799.17 104.44L799.17 104.44L799.41 104.88L799.41 105.08Q799.41 105.57 798.93 105.57L798.93 105.57Q798.93 105.76 799.17 105.76L799.17 105.76Q798.73 108.20 798.49 108.20L798.49 108.20L798.73 108.64L798.73 110.21Q798.73 110.45 798.49 110.45L798.49 110.45L798.73 110.89Q798.73 111.33 798.29 111.33L798.29 111.33L798.49 111.77L798.49 112.21L798.29 113.77L797.85 113.77L798.49 105.08L798.49 104.88Q798.14 104.88 797.41 108.01L797.41 108.01L796.92 108.01Q797.61 102.29 798.05 100.88L798.05 100.88L797.85 100.44Q798.05 100.05 798.05 99.56L798.05 99.56Q797.85 99.12 797.85 98.88L797.85 98.88L798.29 98.63L798.05 98.19L798.05 97.07Q798.05 96.88 798.29 96.88L798.29 96.88L798.05 96.44Q798.29 95.75 798.49 95.75L798.49 95.75L798.29 95.31L798.29 95.07Q798.29 94.87 798.49 94.87L798.49 94.87Q798.49 94.63 798.29 94.63L798.29 94.63Q798.49 91.50 798.73 91.50L798.73 91.50L798.49 91.06L798.49 90.43Q798.58 89.99 798.93 89.99L798.93 89.99L798.73 89.50Q799.17 82.57 800.05 77.29L800.05 77.29Q799.85 76.86 799.85 76.61L799.85 76.61Q800.29 75.20 800.49 72.61L800.49 72.61L800.29 72.17Q800.44 71.29 800.73 71.29L800.73 71.29L800.49 70.85L800.49 70.61L800.73 70.17Q800.49 70.17 800.49 69.92L800.49 69.92L800.93 69.73L800.73 69.29Q800.88 68.36 801.17 68.36L801.17 68.36Q801.17 68.16 800.93 68.16L800.93 68.16L801.17 67.04L801.17 65.04Q801.17 64.84 801.42 64.84L801.42 64.84L801.17 64.36L801.61 63.72Q801.61 63.48 801.42 63.48L801.42 63.48Q801.71 59.72 802.05 59.72L802.05 59.72Q802.05 59.47 801.86 59.47L801.86 59.47Q802.15 55.03 802.49 55.03L802.49 55.03Q802.49 54.79 802.29 54.79L802.29 54.79Q803.86 44.78 804.93 32.13L804.93 32.13Q802.54 32.57 800.93 33.20L800.93 33.20L800.49 33.01Q797.27 33.84 796.92 34.13L796.92 34.13L796.48 34.13Q796.29 34.13 796.29 33.89L796.29 33.89Q783.20 36.33 782.03 37.01L782.03 37.01Q782.03 37.40 779.59 41.46L779.59 41.46Q775.78 47.71 774.71 48.34L774.71 48.34L774.71 48.58L774.90 49.02L774.46 49.22Q774.46 49.02 774.27 49.02L774.27 49.02Q773.58 49.61 773.58 50.34L773.58 50.34Q771.39 53.47 770.21 54.59L770.21 54.59L770.21 54.35L772.02 51.46L772.02 51.22Q771.48 51.37 769.78 54.79L769.78 54.79L770.02 55.27Q769.58 55.96 769.58 56.35L769.58 56.35L769.14 56.35Q769.14 56.10 769.34 55.71L769.34 55.71L769.34 55.27L769.14 55.27Q769.14 55.76 768.21 57.28L768.21 57.28Q768.46 57.28 768.46 57.47L768.46 57.47Q768.07 57.47 764.70 62.60L764.70 62.60L764.70 62.16L764.45 62.16L764.45 62.35Q764.70 62.79 764.70 63.04L764.70 63.04Q764.11 64.60 762.70 65.72L762.70 65.72Q762.89 66.16 762.89 66.36L762.89 66.36Q762.70 66.36 762.70 66.60L762.70 66.60L762.21 66.36L762.01 66.36Q762.01 67.48 760.21 68.85L760.21 68.85L760.21 68.36L761.13 66.85L761.13 66.60L760.89 66.60Q760.30 68.16 759.77 68.16L759.77 68.16L759.33 68.16Q759.03 68.16 758.64 67.48L758.64 67.48Q760.11 65.82 770.90 46.78L770.90 46.78Q773.10 43.21 774.02 41.21L774.02 41.21L773.58 41.02Q773.34 41.70 773.14 41.70L773.14 41.70L773.34 42.14L773.34 42.33Q772.36 43.16 770.90 46.34L770.90 46.34Q770.12 46.34 769.78 47.22L769.78 47.22L769.78 47.46L770.02 47.46L770.02 47.02L770.46 47.02Q769.29 48.49 767.33 52.59L767.33 52.59Q766.55 52.59 766.21 53.47L766.21 53.47L766.46 53.47Q766.02 54.59 766.02 55.03L766.02 55.03L765.58 55.03L765.77 54.59L765.77 54.35L765.58 54.35Q764.01 57.76 764.01 57.91L764.01 57.91Q762.21 57.67 762.21 57.03L762.21 57.03Q763.09 55.32 763.33 55.03L763.33 55.03L763.33 54.59Q762.45 54.59 762.45 54.15L762.45 54.15L762.45 53.71L771.14 39.21L770.70 39.01L767.14 40.14Q766.70 39.89 766.46 39.89L766.46 39.89Q766.46 40.33 766.02 40.33L766.02 40.33L765.77 40.33Q765.58 40.33 765.58 40.14L765.58 40.14L762.21 41.21L761.77 41.02Q753.76 43.21 751.12 43.21L751.12 43.21L750 43.21Q749.71 43.21 749.07 41.89L749.07 41.89Q749.07 41.41 750.88 41.02L750.88 41.02L750.88 40.77Q750.63 40.77 750.20 40.58L750.20 40.58L741.31 42.58L740.63 42.58Q740.04 42.58 739.75 40.77L739.75 40.77Q741.60 39.89 742.43 39.89L742.43 39.89L742.43 39.45L742.19 39.45L736.87 40.77L736.87 40.58L735.99 41.02L735.74 40.58Q735.74 40.14 736.43 40.14L736.43 40.14L736.43 39.89Q735.06 39.89 735.06 39.45L735.06 39.45Q735.06 38.62 744.19 37.01L744.19 37.01L759.33 33.45Q764.21 32.57 769.58 31.20L769.58 31.20Q769.58 31.45 769.78 31.45L769.78 31.45Q769.78 31.01 776.46 29.88L776.46 29.88Q777.54 29.39 782.03 21.63L782.03 21.63Q792.14 5.96 805.86-12.40L805.86-12.40Q808.74-15.28 812.06-20.21L812.06-20.21L812.99-20.85L813.43-20.85L813.87-20.65Q814.36-21.97 814.75-21.97ZM808.74-3.52L808.50-3.52Q806.98-0.73 805.18 1.17L805.18 1.17Q803.52 4.05 802.93 4.05L802.93 4.05L803.17 4.49Q800.44 8.15 799.41 10.30L799.41 10.30Q799.07 10.30 796.04 14.99L796.04 14.99Q793.90 18.90 789.84 24.76L789.84 24.76Q789.84 25.20 788.72 27.00L788.72 27.00L788.72 27.20L793.60 26.07L793.60 26.32L805.86 23.63Q805.86 22.31 808.74-3.27L808.74-3.27L808.74-3.52ZM794.04 9.62L793.60 9.62Q793.60 10.06 793.16 10.06L793.16 10.06L793.16 10.30L793.60 10.30L794.04 9.62ZM783.35 25.20L783.35 25.20L783.35 25.44L783.79 25.44L783.79 24.76Q783.35 24.85 783.35 25.20ZM805.62 26.56L804.49 26.56L804.49 27.00L805.62 26.76L805.62 26.56ZM804.49 29.64L802.93 30.08L802.49 29.88Q800.05 30.32 800.05 30.76L800.05 30.76L799.61 30.57Q799.17 30.57 797.85 31.45L797.85 31.45L797.85 31.64L798.29 31.64Q804.25 30.57 805.18 30.57L805.18 30.57L805.18 29.64L804.49 29.64ZM804.93 31.20L803.86 31.45L803.86 31.64L804.93 31.64L804.93 31.20ZM797.61 31.45L791.60 32.57L791.60 32.76L791.85 32.76L797.61 31.88L797.61 31.45ZM801.17 31.64L800.93 31.64L800.93 32.13L800.73 32.13Q800.49 32.13 800.49 31.88L800.49 31.88Q800.10 32.13 799.85 32.13L799.85 32.13L799.85 32.32L800.73 32.32Q801.17 32.32 801.17 31.88L801.17 31.88L801.17 31.64ZM790.92 32.76L785.60 33.64L785.60 33.89L786.28 33.89Q788.28 33.45 788.48 33.45L788.48 33.45L788.48 33.64L788.28 34.13L788.48 34.13Q788.92 34.13 788.92 33.64L788.92 33.64Q788.72 33.64 788.72 33.45L788.72 33.45Q789.11 33.20 791.36 33.01L791.36 33.01L791.36 32.76L790.92 32.76ZM795.61 33.01L794.73 32.76L794.73 33.20L795.61 33.20L795.61 33.01ZM794.04 33.01L792.92 33.20L792.92 33.64L793.60 33.64Q793.95 33.64 794.29 33.01L794.29 33.01L794.04 33.01ZM792.48 33.20L792.04 33.20L792.04 33.89Q792.48 33.89 792.48 33.45L792.48 33.45L792.48 33.20ZM789.16 33.64L789.16 33.64L789.16 34.13L789.60 33.89L789.84 33.89Q790.33 33.89 790.72 34.13L790.72 34.13Q791.16 33.89 791.36 33.89L791.36 33.89Q791.36 33.45 790.92 33.45L790.92 33.45Q790.53 33.64 790.28 33.64L790.28 33.64L790.28 33.45Q789.89 33.64 789.16 33.64ZM786.28 34.33L784.28 34.77L784.28 35.01L784.47 35.01Q784.91 34.77 785.16 34.77L785.16 34.77Q785.60 35.01 785.84 35.01L785.84 35.01L786.28 34.33ZM787.35 34.33L786.72 34.33L786.72 34.77L786.91 34.77Q787.35 34.77 787.35 34.33L787.35 34.33ZM768.70 36.33L768.70 36.33L768.70 36.57L769.58 36.57Q770.02 36.33 770.21 36.33L770.21 36.33L770.21 36.13Q769.34 36.33 768.70 36.33ZM766.89 37.01L766.02 37.01L766.02 37.21L766.89 37.21L766.89 37.01ZM772.46 50.15L772.46 50.15L772.46 50.34Q772.90 50.34 772.90 49.90L772.90 49.90L772.90 49.71Q772.46 49.76 772.46 50.15ZM760.21 68.85L760.21 68.85L760.21 69.29Q760.21 69.73 759.77 69.73L759.77 69.73L759.77 69.29Q759.86 68.85 760.21 68.85ZM806.98 77.73L806.98 77.73L806.98 77.93L807.42 77.93L807.42 77.29Q806.98 77.34 806.98 77.73ZM807.42 79.93L806.98 79.93L806.98 80.18Q807.18 80.62 807.18 80.86L807.18 80.86L807.42 80.86L807.42 79.93ZM802.29 87.30L802.29 87.30L802.29 87.50Q802.73 87.50 802.73 87.06L802.73 87.06L802.73 86.87Q802.29 86.91 802.29 87.30ZM802.29 89.31L802.05 89.31L802.05 90.63L802.29 90.63L802.29 89.31ZM806.74 89.31L806.74 89.31L806.74 91.06L806.30 91.06L806.30 90.63Q806.30 90.43 806.49 90.43L806.49 90.43L806.30 89.99L806.30 89.75Q806.35 89.31 806.74 89.31ZM804.30 91.50L804.05 91.50L804.05 92.43L804.30 92.43L804.30 91.50ZM805.86 91.31L805.86 91.31L806.30 91.31Q806.30 91.75 806.74 91.75L806.74 91.75L806.49 93.75L806.05 93.75Q806.05 93.51 806.30 93.51L806.30 93.51L806.05 93.07Q806.05 92.87 806.30 92.87L806.30 92.87Q805.86 91.75 805.86 91.31ZM801.86 93.07L801.61 93.07L801.61 94.19L801.86 94.19L801.86 93.07ZM806.05 95.51L806.05 94.63L806.30 94.63L806.30 95.51L806.05 95.51ZM805.42 97.07L805.42 95.75L805.86 95.75L806.05 97.75Q805.76 97.75 805.42 97.07L805.42 97.07ZM802.49 96.44L802.29 96.44Q802.29 96.92 802.05 97.31L802.05 97.31L802.29 97.31L802.49 96.88L802.49 96.44ZM805.42 99.32L805.42 98.88L806.05 98.88Q806.05 99.32 805.62 99.32L805.62 99.32L805.42 99.32ZM801.17 104.44L801.17 104.44Q801.17 104.69 800.93 105.08L800.93 105.08L801.42 105.32L801.61 104.88Q801.61 104.44 801.17 104.44ZM799.41 107.57L799.41 106.45L799.85 106.45L799.85 106.88L799.61 107.32Q799.85 107.32 799.85 107.57L799.85 107.57L799.41 107.57ZM800.93 108.89L800.49 108.89L800.49 109.57L800.73 109.57Q800.73 109.33 800.93 108.89L800.93 108.89ZM802.73 111.33L802.73 111.33L803.17 111.33L803.17 111.77Q803.17 112.01 802.93 112.01L802.93 112.01L803.17 112.45L803.17 112.65Q802.73 113.23 802.73 113.77L802.73 113.77L802.49 113.77L802.49 113.13Q802.73 111.87 802.73 111.33ZM800.73 114.01L800.73 113.77L801.42 113.77L801.42 114.01Q801.42 114.45 800.93 114.45L800.93 114.45L800.73 114.01Z" stroke="#578bfc" stroke-width="2" fill="none"/>
  <path d="M930.08-14.75L930.08-14.75L930.66-14.75Q927.15-10.25 922.51-7.71L922.51-7.71Q922.51-7.52 918.16-3.37L918.16-3.37Q918.46-3.37 918.46-3.13L918.46-3.13Q916.94-2.88 916.41-1.46L916.41-1.46Q914.36-0.39 913.82-0.39L913.82-0.39L914.11 0.15Q910.06 3.32 905.96 6.10L905.96 6.10L905.96 6.64Q921.00-4.44 921.92-4.44L921.92-4.44L921.92-4.20Q918.70-0.15 914.65 2.05L914.65 2.05L914.40 2.05L914.65 2.59Q914.65 3.13 913.53 3.13L913.53 3.13L913.53 3.66L913.82 3.66Q920.90-1.76 922.22-1.76L922.22-1.76L922.22-1.22Q921.73-1.22 918.16 2.59L918.16 2.59Q917.48 2.64 914.40 5.81L914.40 5.81Q913.87 5.81 898.39 18.26L898.39 18.26Q888.62 25.73 876.61 35.89L876.61 35.89Q867.72 43.07 851.32 57.28L851.32 57.28Q851.71 57.32 860.35 68.36L860.35 68.36Q870.02 79.00 878.08 87.01L878.08 87.01Q886.62 96.09 889.70 98.68L889.70 98.68Q891.11 100.44 891.11 101.37L891.11 101.37Q890.28 101.37 890.28 101.90L890.28 101.90Q891.41 102.05 891.41 102.73L891.41 102.73L891.11 103.27Q891.41 103.27 891.41 103.52L891.41 103.52L890.82 103.81L890.58 103.81Q890.58 103.27 887.35 100.83L887.35 100.83Q885.89 99.85 885.89 99.22L885.89 99.22L885.60 99.22L885.01 99.46Q885.01 99.07 884.18 98.68L884.18 98.68L884.18 98.93Q885.35 99.41 886.47 102.20L886.47 102.20Q885.74 102.20 885.30 104.05L885.30 104.05L885.01 104.05Q876.95 97.66 864.70 85.11L864.70 85.11Q850.54 70.31 846.39 63.77L846.39 63.77L846.09 63.77Q837.94 84.13 837.94 84.86L837.94 84.86Q834.52 94.82 831.84 96.24L831.84 96.24Q831.84 96.48 831.01 96.78L831.01 96.78Q829.54 96.44 829.54 95.95L829.54 95.95L831.54 89.75L831.30 89.75L830.13 90.53L829.83 89.99Q830.71 88.43 830.71 86.47L830.71 86.47Q830.22 86.47 829.54 85.94L829.54 85.94Q831.30 79.25 834.47 70.26L834.47 70.26L834.47 69.97L834.18 69.97Q828.08 74.56 827.49 74.56L827.49 74.56Q827.29 74.56 825.73 74.32L825.73 74.32L824.61 74.85Q822.56 74.22 822.56 73.78L822.56 73.78Q823.34 72.66 829.83 68.07L829.83 68.07Q829.49 68.07 828.96 67.82L828.96 67.82Q828.96 68.36 828.37 68.36L828.37 68.36L827.20 68.36Q826.61 68.36 826.61 67.82L826.61 67.82Q827.64 66.55 838.23 58.89L838.23 58.89L837.94 58.35Q840.19 57.13 842.04 51.32L842.04 51.32Q855.96 18.75 858.01 17.48L858.01 17.48L858.30 17.48L858.89 17.72Q860.06 15.04 860.94 15.04L860.94 15.04Q861.43 15.04 862.65 15.58L862.65 15.58L863.23 15.28L864.11 15.28Q865.67 12.30 866.46 12.06L866.46 12.06Q867.63 12.40 868.16 13.43L868.16 13.43Q864.84 18.95 862.94 23.68L862.94 23.68Q860.25 30.27 858.01 35.06L858.01 35.06L858.30 35.60Q857.52 37.79 856.25 39.65L856.25 39.65Q856.54 39.65 856.54 39.94L856.54 39.94L855.66 40.48L855.96 41.02L854.83 44.53Q890.28 14.75 901.61 6.88L901.61 6.88Q920.85-8.89 930.08-14.75ZM908.84 7.18L908.84 7.18L909.13 7.18Q909.72 7.18 909.72 6.64L909.72 6.64L909.42 6.64Q908.84 6.74 908.84 7.18ZM860.94 20.17L860.64 20.17Q860.64 20.85 859.47 22.61L859.47 22.61L859.47 22.90L859.77 22.90L860.94 20.46L860.94 20.17Z" stroke="#578bfc" stroke-width="2" fill="none"/>
  <path d="M934.13-18.70L934.13-18.70L934.33-18.70Q936.33-18.70 938.09-12.30L938.09-12.30L938.48-12.30Q938.09-14.11 938.09-14.36L938.09-14.36L938.09-15.33L938.28-15.67Q940.19-15.67 942.24-1.95L942.24-1.95Q943.16 8.74 943.16 9.86L943.16 9.86L943.16 11.38L943.36 12.30L943.16 12.30L943.36 12.70L943.36 12.89Q943.36 13.09 943.16 13.09L943.16 13.09L943.36 13.48L943.36 15.14Q943.36 17.97 943.16 22.85L943.16 22.85Q942.77 23.88 940.53 34.91L940.53 34.91L939.40 38.28Q939.40 38.43 939.60 39.40L939.60 39.40Q939.60 39.94 937.89 43.75L937.89 43.75L932.28 54.83Q929.05 61.18 919.29 72.12L919.29 72.12Q907.86 82.37 903.52 83.40L903.52 83.40Q899.51 85.45 896.34 85.64L896.34 85.64Q896.34 85.84 893.36 86.04L893.36 86.04Q886.52 86.04 881.10 78.91L881.10 78.91Q877.93 74.12 877.93 66.65L877.93 66.65Q877.93 51.66 886.96 36.57L886.96 36.57Q889.89 30.86 898.58 21.14L898.58 21.14Q909.86 9.96 919.29 4.98L919.29 4.98Q925.49 2.00 927.54 2.00L927.54 2.00L928.32 2.00L928.71 2.15Q928.71 3.66 926.81 4.25L926.81 4.25Q921.73 7.47 921.73 7.81L921.73 7.81Q921.19 8.84 914.21 14.01L914.21 14.01Q914.21 14.31 904.98 23.78L904.98 23.78Q894.43 36.08 892.04 41.31L892.04 41.31Q886.57 50.05 886.57 55.76L886.57 55.76Q886.43 55.76 885.84 62.16L885.84 62.16L885.84 69.14L886.18 69.68L886.18 70.61Q886.18 74.56 890.72 76.07L890.72 76.07L894.09 77.39Q894.29 77.39 894.29 77.20L894.29 77.20Q895.80 77.59 896.73 77.59L896.73 77.59Q900.59 77.59 904.64 75.34L904.64 75.34Q919.97 66.55 928.71 49.37L928.71 49.37Q934.38 40.82 937.16 27.54L937.16 27.54Q937.89 24.07 937.89 21.53L937.89 21.53L937.89 19.29L937.70 18.16Q937.89 17.82 937.89 17.24L937.89 17.24L937.89 15.92L937.70 15.92Q936.91 27.54 936.23 29.25L936.23 29.25Q936.23 30.76 935.84 30.76L935.84 30.76Q935.84 30.96 936.04 30.96L936.04 30.96Q932.96 42.38 927.00 50.88L927.00 50.88Q922.51 57.67 918.16 62.55L918.16 62.55Q917.53 62.89 914.21 66.31L914.21 66.31L914.01 66.31L914.01 66.11Q928.81 47.90 932.81 36.38L932.81 36.38Q936.77 24.17 936.77 14.60L936.77 14.60L936.77 9.86Q936.77 5.22 936.23-0.10L936.23-0.10Q936.23-0.29 936.43-0.29L936.43-0.29Q935.84-12.50 934.52-15.14L934.52-15.14Q934.13-15.53 933.59-17.97L933.59-17.97Q933.89-18.70 934.13-18.70ZM935.45-16.46L935.45-16.46L935.45-15.87Q935.84-15.43 935.84-14.55L935.84-14.55L936.23-14.55Q935.99-16.46 935.45-16.46ZM938.67-9.86L938.48-9.86L938.48-9.47Q940.09 1.61 940.72 1.61L940.72 1.61Q939.79-6.10 938.67-9.86L938.67-9.86ZM910.84 11.77L910.64 11.77L910.64 11.96L910.84 11.96Q917.04 8.74 919.87 6.69L919.87 6.69L924.95 3.86L924.95 3.66L924.56 3.66Q917.19 7.08 910.84 11.77L910.84 11.77ZM940.92 8.74L940.72 8.74L940.72 10.45L940.92 10.45L940.92 8.74ZM941.11 11.57L940.92 11.57L940.53 16.85L940.53 17.04L940.72 17.04L940.92 16.06L940.92 14.40L941.11 13.28Q941.11 13.09 940.92 13.09L940.92 13.09L941.11 12.16L941.11 11.57ZM883.94 45.07L883.20 46.53L883.35 46.92Q881.49 51.61 881.30 51.61L881.30 51.61Q881.49 52.00 881.49 52.20L881.49 52.20Q881.01 53.66 880.57 54.25L880.57 54.25L880.76 54.64Q880.18 56.54 879.44 61.77L879.44 61.77L879.79 61.77Q879.79 60.89 881.69 54.64L881.69 54.64Q881.69 51.07 885.99 41.65L885.99 41.65L885.84 41.65Q884.96 42.33 883.94 45.07L883.94 45.07ZM927.54 55.76L927.39 55.76Q927.39 56.10 926.81 56.69L926.81 56.69L926.81 56.88Q927.05 56.88 927.54 55.96L927.54 55.96L927.54 55.76ZM917.58 68.36L917.58 68.36L917.58 68.55Q919.19 67.92 923.24 62.35L923.24 62.35L926.27 58.01L926.07 58.01Q923.00 62.65 917.58 68.36ZM884.13 76.27L884.13 76.27Q884.13 77.54 887.50 79.30L887.50 79.30L887.70 79.30Q887.70 79.05 884.13 76.27ZM908.40 76.27L908.01 76.27L907.08 77.00L907.28 77.00Q908.11 76.46 908.40 76.46L908.40 76.46L908.40 76.27ZM883.74 78.91L883.74 78.91L883.74 79.30Q884.13 79.30 885.25 80.76L885.25 80.76Q888.48 83.06 891.06 83.06L891.06 83.06Q891.26 83.06 892.58 83.20L892.58 83.20L892.77 83.20L892.77 83.06Q887.74 82.08 884.86 80.22L884.86 80.22Q883.98 78.91 883.74 78.91ZM898.05 79.64L895.21 80.22L895.21 80.42L896.14 80.42L898.24 79.83L898.24 79.64L898.05 79.64ZM887.30 83.20L887.11 83.20L887.11 83.40Q890.09 84.72 893.90 84.72L893.90 84.72L894.48 84.72L894.48 84.52Q893.70 84.52 893.70 84.33L893.70 84.33Q893.51 84.33 893.51 84.52L893.51 84.52Q888.72 83.98 887.30 83.20L887.30 83.20ZM895.02 84.33L895.02 84.33L895.02 84.52L895.61 84.52L897.46 84.33L897.46 84.18L896.53 84.18Q895.51 84.33 895.02 84.33Z" stroke="#578bfc" stroke-width="2" fill="none"/>
  <path d="M1011.04-30.81L1011.04-30.81L1011.43-30.81Q1011.72-30.81 1012.06-30.22L1012.06-30.22Q1011.57-28.76 1002.78-14.11L1002.78-14.11L996.73-4.44L996.73-4.25Q1000.39-9.13 1000.78-9.28L1000.78-9.28Q1001.17-9.28 1002.39-11.67L1002.39-11.67Q1002.93-11.96 1005.62-16.50L1005.62-16.50Q1008.45-21.04 1008.84-21.14L1008.84-21.14L1009.23-21.14L1009.23-20.95Q1006.20-16.41 1002.59-10.06L1002.59-10.06L1002.59-9.86Q1005.96-13.48 1012.26-22.75L1012.26-22.75L1012.65-22.75Q1013.04-22.71 1013.04-22.36L1013.04-22.36L1013.04-22.17Q1011.33-19.24 1008.84-16.11L1008.84-16.11Q1001.76-5.81 996.34 3.42L996.34 3.42Q996.53 3.42 996.53 3.61L996.53 3.61Q995.80 3.76 994.53 7.23L994.53 7.23Q993.99 7.23 992.72 9.62L992.72 9.62Q992.92 9.62 992.92 9.86L992.92 9.86Q991.55 11.52 984.67 24.32L984.67 24.32Q983.01 27.00 982.86 28.17L982.86 28.17Q982.57 28.17 981.64 30.18L981.64 30.18Q970.85 49.66 961.72 67.63L961.72 67.63Q954.59 81.35 950.05 88.53L950.05 88.53Q950.05 88.96 949.85 89.36L949.85 89.36L950.05 90.53Q948.93 91.94 948.05 91.94L948.05 91.94Q947.85 91.94 947.85 89.75L947.85 89.75Q947.41 89.75 947.22 91.94L947.22 91.94Q947.02 91.94 947.02 92.14L947.02 92.14Q947.41 92.24 947.41 92.58L947.41 92.58Q947.12 92.58 946.63 94.58L946.63 94.58L946.24 94.78L945.61 94.78Q945.61 94.19 945.41 93.36L945.41 93.36Q945.61 90.67 945.61 88.72L945.61 88.72L945.61 87.94Q945.61 87.74 945.80 87.74L945.80 87.74Q945.80 87.55 945.61 87.55L945.61 87.55Q945.80 84.81 945.80 83.50L945.80 83.50L945.80 79.30L944.82 79.49Q944.82 79.30 944.63 79.30L944.63 79.30Q945.21 74.27 945.21 73.24L945.21 73.24L945.21 72.66Q945.61 72.22 945.80 70.02L945.80 70.02L945.41 67.19Q945.65 63.53 946.04 61.18L946.04 61.18Q946.04 60.99 945.80 60.99L945.80 60.99Q946.04 59.42 946.24 58.94L946.24 58.94Q946.24 58.74 946.04 58.74L946.04 58.74Q946.24 56.25 946.63 54.54L946.63 54.54Q946.63 54.35 946.44 54.35L946.44 54.35L946.63 53.32L946.63 51.71Q946.63 51.51 946.83 51.51L946.83 51.51Q946.83 51.32 946.63 51.32L946.63 51.32L946.83 50.29L946.83 47.27Q946.83 47.07 947.02 47.07L947.02 47.07L946.83 46.68L947.02 46.29Q947.02 45.85 946.83 45.85L946.83 45.85L947.02 44.48L947.02 40.82Q947.02 40.63 947.22 40.63L947.22 40.63Q947.22 40.43 947.02 40.43L947.02 40.43Q947.22 38.09 947.22 37.01L947.22 37.01L947.22 35.79Q947.22 35.35 947.02 35.01L947.02 35.01Q947.22 33.59 947.41 33.59L947.41 33.59L947.22 33.20L947.22 31.20Q947.22 30.96 947.02 30.96L947.02 30.96L947.22 30.57L947.22 25.73Q947.22 25.54 947.41 25.54L947.41 25.54L947.22 25.15L947.22 21.73Q947.22 21.29 947.02 20.90L947.02 20.90Q947.02 20.70 947.22 20.70L947.22 20.70L947.02 19.73L947.02 15.87L946.83 15.87Q946.83 16.21 946.44 16.70L946.44 16.70L946.44 16.89Q946.44 17.48 946.63 17.48L946.63 17.48L946.44 18.51L946.44 25.15L946.63 26.37Q946.63 26.56 946.44 26.56L946.44 26.56L946.63 27.54L946.63 30.18L946.24 30.18L946.24 30.57L946.63 30.57L946.63 31.40L946.24 31.40L946.24 31.79L946.63 31.79L946.63 32.18Q946.63 32.28 946.24 32.76L946.24 32.76Q946.29 33.20 946.63 33.20L946.63 33.20Q946.44 33.79 946.24 33.79L946.24 33.79L946.44 36.23L946.44 38.82Q946.44 39.01 946.24 39.01L946.24 39.01Q946.44 39.40 946.44 39.65L946.44 39.65Q946.24 40.23 946.04 40.23L946.04 40.23L946.24 40.63L946.24 41.85L945.80 41.85L945.80 42.24L946.24 42.24L946.24 42.43L945.80 42.43L945.80 42.87L946.24 42.87L946.24 43.46L945.80 43.46L945.80 43.85Q946.24 43.85 946.24 44.04L946.24 44.04Q945.80 50.73 945.80 53.13L945.80 53.13L945.80 53.91Q945.80 54.10 945.61 54.10L945.61 54.10Q945.61 54.35 945.80 54.35L945.80 54.35Q945.61 56.93 945.41 56.93L945.41 56.93L945.61 57.32Q944.63 80.47 943.41 80.47L943.41 80.47L943.02 80.66Q942.63 80.66 942.63 80.27L942.63 80.27Q942.97 77.69 943.21 77.69L943.21 77.69Q943.21 77.49 943.02 77.49L943.02 77.49Q943.46 71.68 943.80 71.24L943.80 71.24Q943.80 71.04 943.60 71.04L943.60 71.04Q943.80 70.31 943.80 70.21L943.80 70.21Q944.24 62.65 944.24 60.35L944.24 60.35L944.43 59.96Q944.43 59.77 944.24 59.77L944.24 59.77L944.43 58.74L944.43 57.96Q944.43 57.13 944.82 48.29L944.82 48.29L944.82 47.66L945.02 46.48Q945.02 46.29 944.82 46.29L944.82 46.29L945.02 44.87L945.02 41.02Q945.02 40.82 945.21 40.82L945.21 40.82Q945.21 40.63 945.02 40.63L945.02 40.63L945.21 39.65L945.21 33.40Q945.21 33.20 945.41 33.20L945.41 33.20Q945.41 33.01 945.21 33.01L945.21 33.01L945.41 31.98Q945.41 31.79 945.21 31.79L945.21 31.79Q945.61 29.98 945.61 26.95L945.61 26.95L945.61 17.68Q945.61 17.48 945.80 17.48L945.80 17.48Q945.80 17.29 945.61 17.29L945.61 17.29L945.80 15.87L945.80 11.23L946.04 9.23L946.63 9.23L946.63 9.42Q946.63 9.52 946.44 10.25L946.44 10.25L946.63 10.64Q946.63 10.84 946.44 10.84L946.44 10.84L946.63 11.87L946.63 12.65L946.44 13.09L946.63 13.09L946.83 12.65L946.83 9.62Q946.88 9.23 947.22 9.23L947.22 9.23L947.66 9.23Q947.95 9.23 948.24 9.86L948.24 9.86L948.24 13.28Q948.24 13.72 948.44 14.06L948.44 14.06L948.24 14.45L948.44 15.67L948.24 15.67L948.44 16.06L948.44 17.68Q948.44 18.16 948.63 18.51L948.63 18.51Q948.44 18.90 948.44 19.09L948.44 19.09L948.63 20.31L948.83 20.31L948.83 18.12L948.63 16.89Q948.83 16.50 948.83 16.26L948.83 16.26L948.83 15.48L949.02 15.48Q949.56 2.39 950.05 2.39L950.05 2.39L950.05 0Q950.44-0.54 950.44-1.03L950.44-1.03L950.63-1.03Q951.66-0.20 951.66 0.78L951.66 0.78L951.66 7.81Q951.76 7.81 952.49 7.62L952.49 7.62Q953.37 8.01 953.47 8.45L953.47 8.45L953.47 13.48Q953.47 13.92 953.66 14.26L953.66 14.26Q953.47 14.60 953.47 15.09L953.47 15.09L953.47 17.29Q953.47 17.87 953.66 17.87L953.66 17.87L953.47 18.90L953.47 22.95Q953.47 23.14 953.27 23.14L953.27 23.14L953.47 23.54L953.47 23.73Q953.47 23.93 953.27 23.93L953.27 23.93Q953.27 24.12 953.47 24.12L953.47 24.12Q953.08 28.76 953.08 31.20L953.08 31.20L953.27 31.20Q953.27 31.40 953.08 31.40L953.08 31.40L953.27 32.18L952.88 33.79L953.27 33.79L953.27 33.98Q952.88 33.98 952.88 34.18L952.88 34.18Q952.88 36.13 952.69 38.43L952.69 38.43Q952.69 38.53 952.88 41.02L952.88 41.02Q952.69 43.70 952.69 45.46L952.69 45.46L952.49 45.46L952.69 45.85Q952.69 54.35 951.86 54.35L951.86 54.35L951.86 54.74L952.25 54.74Q952.25 55.71 951.86 55.71L951.86 55.71L952.05 56.15L952.05 62.35Q952.05 62.84 951.86 63.18L951.86 63.18Q951.86 63.38 952.05 63.38L952.05 63.38L951.86 64.40Q951.86 67.48 951.66 72.85L951.66 72.85L951.27 72.85L951.27 73.63Q951.66 73.63 951.66 74.46L951.66 74.46L951.86 74.46Q964.75 46.19 979.05 20.12L979.05 20.12Q983.11 12.70 984.28 10.84L984.28 10.84Q991.89-2.64 998.54-12.50L998.54-12.50Q1002.78-19.19 1003.37-19.53L1003.37-19.53L1003.81-19.34Q1009.28-28.66 1011.04-30.81ZM1009.42-22.17L1009.42-22.17Q1009.42-21.92 1009.62-21.53L1009.62-21.53L1009.23-21.34L1009.03-21.78Q1009.08-22.17 1009.42-22.17ZM987.30 11.47L987.06 11.47Q987.06 11.67 986.87 12.06L986.87 12.06L986.87 12.26L987.06 12.26Q987.06 12.06 987.30 11.67L987.30 11.67L987.30 11.47ZM946.44 13.87L946.44 13.87Q946.44 14.06 946.63 14.06L946.63 14.06L946.44 14.45Q946.53 15.67 947.02 15.67L947.02 15.67L947.02 15.48L946.83 14.06L947.02 14.06Q946.83 13.67 946.83 13.48L946.83 13.48Q946.44 13.53 946.44 13.87ZM985.69 14.06L985.69 14.06L985.69 14.26Q986.08 14.26 986.08 13.87L986.08 13.87L986.08 13.67Q985.69 13.72 985.69 14.06ZM951.27 20.51L951.07 20.51Q950.88 28.17 950.88 30.96L950.88 30.96L950.63 30.96Q950.88 31.35 950.88 31.59L950.88 31.59Q950.88 31.74 950.63 32.76L950.63 32.76Q950.63 33.01 950.88 33.01L950.88 33.01L950.63 33.98L950.63 36.82L950.24 37.40Q950.63 37.50 950.63 37.84L950.63 37.84L950.24 37.84L950.24 38.04L950.63 38.04Q950.88 37.70 951.07 35.99L951.07 35.99Q951.07 33.64 951.27 23.93L951.27 23.93L951.27 20.51ZM947.85 86.72L947.66 86.72L947.66 87.55L947.85 87.55L947.85 86.72Z" stroke="#578bfc" stroke-width="2" fill="none"/>
</svg>
