<svg xmlns="http://www.w3.org/2000/svg" width="100%" height="200%" viewBox="-1 -33.2265625 745.896484375 172.3125" fill="none" preserveAspectRatio="xMidYMid meet">
  <path d="M53.61-14.16L53.61-14.16L58.50-14.16Q66.31-14.16 69.78-12.45L69.78-12.45L70.26-12.70Q75.20-11.23 80.76-5.62L80.76-5.62Q83.45-1.17 83.45 2.73L83.45 2.73L83.45 3.71Q83.45 17.63 57.03 38.23L57.03 38.23Q56.59 38.23 49.71 43.36L49.71 43.36Q49.27 43.36 43.55 47.27L43.55 47.27Q43.16 47.27 40.87 48.97L40.87 48.97L40.38 48.73Q39.99 49.85 37.21 50.93L37.21 50.93Q32.96 53.81 28.37 55.62L28.37 55.62Q39.26 70.41 57.03 91.85L57.03 91.85Q57.03 92.29 59.96 95.75L59.96 95.75Q61.43 98.44 61.91 98.44L61.91 98.44L68.07 106.98Q75.88 118.21 75.88 118.75L75.88 118.75Q76.61 119.09 76.61 120.46L76.61 120.46Q76.12 120.46 74.66 118.75L74.66 118.75L74.41 119.24L74.90 120.21L75.39 119.97L75.63 119.97Q75.63 121.78 80.76 127.78L80.76 127.78Q86.33 135.60 86.67 137.35L86.67 137.35L86.67 138.09L86.18 138.09L81.01 131.25Q81.01 132.18 79.30 133.69L79.30 133.69Q67.09 120.21 57.76 108.45L57.76 108.45Q52.49 103.03 44.29 91.60L44.29 91.60Q24.22 65.38 19.34 59.52L19.34 59.52L19.09 59.52Q17.87 61.47 17.87 62.70L17.87 62.70Q17.68 62.70 17.14 63.43L17.14 63.43L17.38 63.92Q15.43 68.65 14.21 70.02L14.21 70.02L14.45 70.51Q14.45 70.70 11.04 78.13L11.04 78.13L10.79 78.13Q10.79 77.88 10.55 77.88L10.55 77.88L10.55 78.37Q11.04 78.37 11.04 78.61L11.04 78.61Q8.50 85.30 7.81 85.69L7.81 85.69L7.81 85.21Q8.30 83.74 8.54 83.74L8.54 83.74Q8.30 83.25 8.30 83.01L8.30 83.01L8.06 83.01Q6.93 87.11 3.42 94.78L3.42 94.78L1.95 94.78Q1.95 94.53 2.20 94.53L2.20 94.53Q2.20 93.55 0.73 93.31L0.73 93.31Q0.73 93.80 0.24 93.80L0.24 93.80Q0.24 93.55 0 93.55L0 93.55Q2.54 88.53 5.62 80.57L5.62 80.57Q7.57 76.90 7.57 75.68L7.57 75.68Q6.59 75.68 6.59 74.95L6.59 74.95L6.35 74.95Q4.64 78.76 3.66 82.28L3.66 82.28L3.17 82.28Q0.24 81.74 0.24 81.05L0.24 81.05Q2.69 75.20 2.69 74.71L2.69 74.71Q2.20 74.07 2.20 73.97L2.20 73.97Q12.26 50 25.68 21.83L25.68 21.83Q29.88 13.09 31.10 11.77L31.10 11.77L31.35 11.77L31.84 13.48L32.32 13.23Q32.42 13.23 33.06 13.72L33.06 13.72Q35.30 8.98 36.23 8.84L36.23 8.84Q36.96 10.30 36.96 10.55L36.96 10.55Q36.38 12.16 34.77 14.99L34.77 14.99L35.25 15.23Q38.87 7.42 39.65 7.37L39.65 7.37Q41.11 7.52 41.11 8.11L41.11 8.11L41.11 8.35Q39.89 10.35 39.89 12.01L39.89 12.01L40.14 12.01L26.42 42.38Q26.66 42.38 26.66 42.63L26.66 42.63Q26.17 42.87 24.46 46.53L24.46 46.53L24.71 47.02L23.97 48.24L23.97 48.73L24.22 48.73Q31.49 44.92 59.96 23.78L59.96 23.78Q70.75 11.52 70.75 3.47L70.75 3.47L70.75 2.73Q70.75-1.61 61.18-7.08L61.18-7.08L58.25-7.57Q49.02-6.74 32.81 0.78L32.81 0.78Q26.61 4.05 20.56 8.59L20.56 8.59Q8.30 19.63 8.30 21.83L8.30 21.83L8.06 21.83L6.59 20.61L6.35 20.61Q5.81 20.61 5.62 22.31L5.62 22.31L4.88 22.31L4.88 22.07Q4.88 19.29 10.30 12.99L10.30 12.99Q12.84 10.06 13.23 10.06L13.23 10.06L13.23 9.81L12.74 9.81Q5.81 15.04 4.39 15.72L4.39 15.72L3.42 14.75L3.91 13.96L3.66 12.50Q4.83 9.33 15.43 1.51L15.43 1.51Q33.89-10.16 40.63-11.72L40.63-11.72Q42.33-12.79 49.22-13.92L49.22-13.92L49.22-13.67Q50.44-14.16 53.61-14.16ZM20.07 1.03L20.07 1.03L20.07 1.27L20.31 1.27Q39.65-10.01 44.53-10.01L44.53-10.01Q44.53-10.40 48.00-11.23L48.00-11.23L48.00-11.47L47.75-11.47Q38.62-10.16 20.07 1.03ZM62.16-11.47L60.45-11.47L60.45-11.23Q61.82-11.23 67.33-9.77L67.33-9.77L67.58-9.77L67.58-10.01Q64.45-11.47 62.16-11.47L62.16-11.47ZM76.12-8.06L75.88-8.06Q79.79-3.81 79.79 2.25L79.79 2.25L79.79 3.71Q79.79 8.64 74.66 17.92L74.66 17.92Q68.95 24.27 64.60 28.66L64.60 28.66L64.60 29.15L64.84 29.15Q64.84 28.76 68.80 25.49L68.80 25.49Q71.58 22.02 72.95 20.61L72.95 20.61Q81.74 10.45 81.74 1.27L81.74 1.27Q81.74-4.49 76.12-8.06L76.12-8.06ZM64.60-7.08L64.36-7.08L64.36-6.84Q72.71-1.27 72.71 4.93L72.71 4.93Q72.46 5.37 72.46 5.91L72.46 5.91L72.46 6.40L72.71 6.40Q73.19 3.61 73.19 2.49L73.19 2.49L73.19 2.25Q73.19-3.27 68.07-5.86L68.07-5.86Q66.65-6.59 64.60-7.08L64.60-7.08ZM75.88-5.86L75.88-5.86L75.88-5.37Q76.61-4.54 76.61-4.10L76.61-4.10L76.86-4.10L76.86-4.35Q76.27-5.86 75.88-5.86ZM73.19-4.88L72.95-4.88Q75.15-2.59 75.15-1.90L75.15-1.90L75.39-1.90L75.39-2.64Q73.97-4.64 73.19-4.88L73.19-4.88ZM36.23-4.10L36.23-4.10L36.23-3.86L36.47-3.86Q36.96-4.10 37.21-4.10L37.21-4.10L37.21-4.35L36.96-4.35Q36.47-4.10 36.23-4.10ZM34.77-3.13L34.77-3.13L35.01-3.13Q35.60-3.61 35.99-3.61L35.99-3.61L35.99-3.86L35.74-3.86Q34.77-3.52 34.77-3.13ZM33.06-2.64L33.06-2.64L33.06-2.39L33.30-2.39Q34.08-2.88 34.52-2.88L34.52-2.88L34.52-3.13L34.28-3.13Q33.50-2.64 33.06-2.64ZM74.66 0.29L74.66 0.29L74.66 0.54Q74.85 2.73 75.39 2.73L75.39 2.73L75.39 1.76Q75.39 0.49 74.66 0.29ZM13.48 12.01L13.48 12.01Q13.48 11.77 13.23 11.77L13.23 11.77L12.50 12.99L12.50 13.23L12.74 13.23Q12.74 12.84 18.60 7.62L18.60 7.62Q19.92 7.03 22.02 4.93L22.02 4.93L21.78 4.93Q19.29 6.25 14.45 10.79L14.45 10.79Q13.82 12.01 13.48 12.01ZM9.28 9.33L9.03 9.33L8.54 10.06L9.03 10.06Q9.03 9.81 9.28 9.33L9.28 9.33ZM7.08 11.52L7.08 11.52L7.57 11.52Q7.57 10.79 8.30 10.79L8.30 10.79L8.30 10.30Q8.01 10.30 7.08 11.52ZM62.89 30.37L62.89 30.37L62.89 30.62L64.36 29.39L64.11 29.39Q62.99 29.88 62.89 30.37ZM36.23 49.46L36.23 49.46L36.23 49.71L36.47 49.71Q36.96 49.71 36.96 49.22L36.96 49.22L36.96 48.73Q36.62 48.73 36.23 49.46ZM32.08 52.15L31.59 52.15Q31.59 52.69 30.86 52.69L30.86 52.69L30.86 52.93L31.35 52.93Q31.35 52.39 32.08 52.39L32.08 52.39L32.08 52.15ZM22.27 60.01L22.27 60.01L22.27 60.25L23.73 61.72L23.73 61.23Q23.44 61.23 22.27 60.01ZM24.46 62.21L24.22 62.21L24.22 62.70Q24.37 62.70 24.95 63.18L24.95 63.18L24.95 62.94Q24.46 62.94 24.46 62.21L24.46 62.21ZM26.42 65.14L26.42 65.14Q26.90 66.26 27.39 66.36L27.39 66.36Q26.95 65.23 26.42 65.14ZM28.37 67.82L28.37 67.82L28.37 68.07Q28.96 68.07 29.64 69.78L29.64 69.78L30.13 69.78Q28.76 67.82 28.37 67.82ZM33.54 74.22L33.30 74.22L33.30 74.71L34.28 75.44Q33.54 74.46 33.54 74.22L33.54 74.22ZM34.77 76.17L34.77 76.17L34.77 76.42L35.74 77.39Q35.25 76.27 34.77 76.17ZM37.21 77.88L37.21 77.88L37.21 78.13Q53.27 98.58 55.81 102.59L55.81 102.59Q59.23 105.91 59.23 106.49L59.23 106.49L59.72 106.49Q49.85 92.19 37.21 77.88ZM7.32 86.43L7.32 86.43L7.81 86.43L7.81 86.67L7.57 87.16Q7.81 87.16 7.81 87.40L7.81 87.40Q7.23 87.40 6.59 89.84L6.59 89.84L6.35 89.84L6.35 89.36Q6.35 89.06 7.32 86.43ZM55.57 98.19L55.57 98.19L55.57 98.44Q70.12 118.65 72.46 121.19L72.46 121.19Q73.73 122.07 74.17 123.14L74.17 123.14L74.17 123.88Q74.27 123.88 74.90 124.37L74.90 124.37L74.90 124.12Q74.41 124.12 74.41 123.63L74.41 123.63L74.66 123.63Q76.37 124.85 76.37 125.59L76.37 125.59L76.61 125.59L76.61 125.34Q72.02 118.31 59.72 103.08L59.72 103.08Q55.91 98.19 55.57 98.19ZM72.22 115.58L71.97 115.58L71.97 116.06L74.17 118.75L74.41 118.75Q72.22 115.87 72.22 115.58L72.22 115.58Z" stroke="#ff00cf" stroke-width="2" fill="none"/>
  <path d="M129.05-32.23L129.05-32.23L129.64-31.25Q129.25-28.76 129.05-28.76L129.05-28.76L129.25-28.37L129.25-28.17L126.76-21.04Q126.95-21.04 126.95-20.85L126.95-20.85Q126.37-20.85 126.37-20.31L126.37-20.31Q126.56-19.92 126.56-19.73L126.56-19.73Q126.17-19.53 125.98-19.53L125.98-19.53L125.98-19.14L126.37-19.34L126.37-19.14L125.78-18.36Q125.78-18.16 125.98-18.16L125.98-18.16Q125.98-15.87 124.66-15.67L124.66-15.67L124.66-15.48L125.05-14.89Q125.05-14.50 124.66-14.50L124.66-14.50Q124.66-14.70 124.46-14.70L124.46-14.70L124.27-14.31L124.66-14.31L124.66-14.11L124.27-14.11Q124.27-13.92 124.46-13.57L124.46-13.57Q124.46-12.60 123.10-10.84L123.10-10.84Q122.95-8.74 122.71-8.74L122.71-8.74L123.88-7.42Q120.02 3.86 114.84 17.82L114.84 17.82L115.04 17.82Q111.91 25.83 110.79 30.13L110.79 30.13L108.11 36.67Q108.30 36.67 108.30 36.87L108.30 36.87L107.91 37.06L108.11 37.45Q106.93 39.65 105.03 45.51L105.03 45.51Q104.20 47.85 103.66 47.85L103.66 47.85L103.86 48.24Q100.73 56.05 99.61 58.06L99.61 58.06Q98.39 61.13 97.31 63.04L97.31 63.04Q94.19 70.02 89.21 76.32L89.21 76.32Q82.86 84.47 76.90 87.89L76.90 87.89Q73.83 89.99 69.97 89.99L69.97 89.99Q59.77 89.99 59.77 73.83L59.77 73.83Q60.25 62.65 60.74 62.65L60.74 62.65L60.55 62.26L60.55 61.33Q60.55 60.35 61.13 60.35L61.13 60.35L61.13 59.96L60.74 59.96L62.45 51.90L62.65 51.90L63.04 52.05L63.04 51.51Q63.04 51.12 62.65 51.12L62.65 51.12Q62.65 50.98 66.11 40.53L66.11 40.53L66.31 40.53L66.31 39.94Q68.60 33.35 70.36 30.32L70.36 30.32Q70.36 29.88 72.46 25.34L72.46 25.34L72.31 25.34Q74.02 22.61 74.02 22.27L74.02 22.27Q74.02 21.83 75.93 18.80L75.93 18.80Q77.69 14.70 79.59 12.40L79.59 12.40Q79.59 12.60 79.79 12.60L79.79 12.60L79.39 13.38L79.59 13.38Q79.98 13.18 80.18 13.18L80.18 13.18L80.18 13.38L78.66 17.04L79.20 17.04Q80.37 13.77 83.06 8.79L83.06 8.79Q83.15 8.79 83.64 8.40L83.64 8.40L83.84 8.79L83.45 9.72L83.84 9.91L83.84 9.52L84.23 9.52Q84.23 10.30 83.06 12.06L83.06 12.06L83.06 12.26Q84.13 10.84 85.40 8.01L85.40 8.01L85.74 7.81L85.94 8.20L85.94 8.40L85.55 8.98L85.55 9.13L85.74 9.13Q86.13 8.98 86.33 8.98L86.33 8.98L86.33 9.13Q85.89 10.35 82.86 16.65L82.86 16.65Q82.37 18.99 82.13 18.99L82.13 18.99Q80.76 21.39 80.37 22.80L80.37 22.80Q80.18 22.80 80.18 23.00L80.18 23.00Q80.37 23.00 80.37 23.19L80.37 23.19Q79.98 23.39 79.79 23.39L79.79 23.39L79.79 23.58Q79.79 23.78 79.98 23.78L79.98 23.78Q79.54 25.15 79.20 25.15L79.20 25.15L79.39 25.54L79.39 25.88Q78.91 25.88 78.27 28.81L78.27 28.81Q77.88 28.96 74.22 39.16L74.22 39.16Q74.22 40.33 73.44 40.33L73.44 40.33L73.44 41.50Q69.09 53.17 67.68 61.33L67.68 61.33Q67.87 61.67 67.87 62.06L67.87 62.06Q67.68 62.65 67.48 62.65L67.48 62.65L67.68 63.04L67.68 63.23Q67.68 63.43 67.48 63.43L67.48 63.43L67.68 63.82L67.68 64.01Q67.68 64.21 67.48 64.21L67.48 64.21L67.68 64.60L67.68 67.68Q67.68 69.24 67.48 71.34L67.48 71.34Q67.68 71.68 67.68 71.88L67.68 71.88L67.48 71.88Q68.26 76.71 71.34 79.79L71.34 79.79Q71.68 79.79 72.66 80.76L72.66 80.76Q76.12 79.64 81.15 74.80L81.15 74.80Q85.21 70.26 87.11 65.92L87.11 65.92Q90.77 59.91 90.77 59.18L90.77 59.18Q91.60 58.54 91.94 57.67L91.94 57.67Q91.75 57.28 91.75 57.08L91.75 57.08Q92.24 57.08 92.87 55.71L92.87 55.71L92.87 54.59Q93.60 54.59 93.85 53.81L93.85 53.81Q93.65 53.42 93.65 53.22L93.65 53.22L94.04 53.03Q94.04 53.22 94.24 53.22L94.24 53.22L94.24 52.83L93.85 52.83Q93.90 52.44 94.24 52.44L94.24 52.44Q94.24 52.64 94.43 52.64L94.43 52.64Q94.43 51.76 95.02 51.51L95.02 51.51L94.82 51.12Q95.36 50.15 95.56 50.15L95.56 50.15L95.41 49.76L95.41 49.56Q97.12 46.63 100.59 35.50L100.59 35.50Q108.30 15.33 110.79 7.42L110.79 7.42Q111.82 3.61 112.50 3.37L112.50 3.37L113.09 3.37Q113.09 2.83 115.77-5.27L115.77-5.27L119.24-16.46Q120.21-19.92 120.80-19.92L120.80-19.92Q121.00-19.53 121.00-19.34L121.00-19.34Q120.80-18.95 120.80-18.75L120.80-18.75Q121.68-19.38 123.88-27.39L123.88-27.39Q124.46-28.17 124.66-28.17L124.66-28.17Q125.59-27.69 125.59-27.39L125.59-27.39L125.39-26.66L125.39-26.27L125.59-26.27L125.59-27.05L125.98-27.05L126.37-26.86L126.17-26.46L126.17-25.88L126.37-25.88Q128.76-32.18 129.05-32.23ZM82.67 12.99L82.67 12.99L82.67 13.38L82.86 13.38L83.06 12.40Q82.67 12.40 82.67 12.99ZM79.00 14.16L79.00 14.16L79.00 14.36Q79.39 14.36 79.39 13.96L79.39 13.96L79.39 13.77Q79.00 13.82 79.00 14.16ZM81.54 15.87L81.35 15.87Q81.35 16.21 80.96 16.85L80.96 16.85L81.35 16.85Q81.35 16.41 81.54 16.06L81.54 16.06L81.54 15.87ZM89.79 72.07L89.60 72.07Q87.50 75.15 86.33 76.51L86.33 76.51L86.33 76.71Q89.16 73.58 89.79 72.07L89.79 72.07ZM64.01 84.03L63.82 84.03L63.82 84.23Q65.33 87.11 66.70 87.70L66.70 87.70L66.70 87.50Q64.01 84.47 64.01 84.03L64.01 84.03ZM69.38 87.70L69.38 87.70L69.38 87.89L70.36 88.09L70.95 88.09Q71.97 88.09 73.63 87.50L73.63 87.50L73.63 87.30L73.05 87.30Q71.73 87.70 69.38 87.70Z" stroke="#ff00cf" stroke-width="2" fill="none"/>
  <path d="M177.20-6.54L187.26-13.62L188.04-13.62Q188.04-13.13 187.26-13.13L187.26-13.13L187.50-12.60L187.50-12.30Q179.25-5.13 172.22-0.20L172.22-0.20Q169.38 2.64 163.77 6.69L163.77 6.69L150.05 18.55Q150 18.85 133.45 33.59L133.45 33.59Q127.34 39.31 127.34 39.65L127.34 39.65L127.64 39.65Q156.05 33.06 171.92 33.06L171.92 33.06Q173.78 33.20 173.78 33.84L173.78 33.84Q173.78 34.62 170.90 34.62L170.90 34.62L170.90 34.91L174.32 34.91Q174.85 34.96 174.85 35.40L174.85 35.40L174.85 36.47Q174.85 36.72 174.56 36.72L174.56 36.72L174.85 37.26L174.85 37.55Q173.44 38.92 168.26 45.70L168.26 45.70Q143.80 69.58 130.52 85.01L130.52 85.01L122.07 94.48Q118.60 99.56 115.77 102.93L115.77 102.93L115.48 102.93L115.48 102.69L116.26 101.07L116.02 101.07Q116.02 101.51 114.94 102.15L114.94 102.15L114.94 101.61L114.70 101.61L114.70 102.69Q114.26 102.69 108.89 108.50L108.89 108.50L108.64 108.50L108.11 108.20L108.35 108.74L108.35 109.28Q107.96 109.28 107.03 110.84L107.03 110.84L105.71 111.67L105.71 111.38L106.54 110.30L106.54 110.06L106.25 110.06Q106.25 110.64 103.08 114.01L103.08 114.01L103.61 114.01L103.61 114.31Q103.22 114.31 102.59 115.33L102.59 115.33L102.29 115.33Q102.59 113.67 104.15 111.91L104.15 111.91L103.61 111.67Q103.61 112.01 102.83 112.45L102.83 112.45L102.83 112.16Q103.37 111.33 103.37 110.84L103.37 110.84L102.83 110.60Q102.83 111.67 101.76 111.67L101.76 111.67L100.44 111.38Q100.39 112.50 97.31 115.09L97.31 115.09Q97.31 115.87 92.53 120.90L92.53 120.90Q92.53 121.14 89.89 123.24L89.89 123.24Q89.89 122.71 89.36 122.71L89.36 122.71Q89.21 123.54 88.33 123.78L88.33 123.78L88.33 123.54Q93.21 115.97 110.74 97.12L110.74 97.12Q113.43 92.87 138.18 65.77L138.18 65.77Q153.76 49.22 160.84 42.29L160.84 42.29L160.35 42.29Q155.91 42.29 137.65 45.70L137.65 45.70L137.65 45.95L137.11 45.70L136.87 45.70L136.87 46.24L135.55 45.95Q135.55 46.48 135.01 46.48L135.01 46.48L134.47 46.48L133.94 46.24Q133.94 46.97 121.58 48.34L121.58 48.34Q118.99 49.12 111.52 50.44L111.52 50.44Q111.52 50.05 110.50 49.41L110.50 49.41Q110.99 49.12 111.28 49.12L111.28 49.12L111.28 48.88Q110.50 48.88 110.50 48.34L110.50 48.34L110.50 47.02Q110.60 46.63 117.33 40.19L117.33 40.19L117.33 39.89Q115.58 40.77 112.60 43.60L112.60 43.60L112.06 43.60L112.60 42.82Q112.06 42.82 112.06 42.29L112.06 42.29Q116.75 37.21 126.86 28.03L126.86 28.03Q140.72 14.50 150.05 8.25L150.05 8.25Q155.13 5.22 168.26-5.22L168.26-5.22Q172.17-8.64 172.71-8.64L172.71-8.64Q173.19-8.35 173.78-8.35L173.78-8.35Q173.78-8.84 175.63-9.96L175.63-9.96L176.17-9.96Q176.51-9.96 176.95-9.18L176.95-9.18L176.95-8.89L173.78-6.01L174.07-6.01Q174.17-6.01 174.85-6.54L174.85-6.54L174.85-6.25Q174.56-5.76 174.56-5.47L174.56-5.47L175.39-6.01L175.88-6.01Q176.17-6.01 176.17-5.71L176.17-5.71Q176.66-6.01 176.95-6.01L176.95-6.01L176.95-6.25L176.42-6.25L176.42-6.79L176.71-6.79L177.20-6.54ZM118.65 41.75L118.65 41.75L119.19 41.75Q119.87 41.75 130.81 30.42L130.81 30.42L130.52 30.42Q130.13 30.42 127.64 33.30L127.64 33.30Q121.63 37.99 118.65 41.75ZM168.75 34.91L167.72 34.91L167.72 35.16L168.75 35.16L168.75 34.91ZM171.92 36.47L171.92 36.47L171.92 36.72Q172.02 37.26 172.46 37.26L172.46 37.26L172.71 36.72Q172.46 36.72 171.92 36.47ZM111.28 46.78L111.28 46.78L111.52 46.78Q111.91 46.78 112.30 45.95L112.30 45.95L112.30 45.70Q111.91 45.70 111.28 46.78ZM110.99 101.90L110.74 101.90L110.50 102.39L110.50 102.69L110.74 102.69Q110.74 102.39 110.99 101.90L110.99 101.90ZM105.47 111.91L105.47 111.91L105.47 112.16Q105.47 112.70 104.93 112.70L104.93 112.70L104.69 112.70Q104.69 112.30 105.47 111.91ZM104.15 113.23L104.15 113.23L104.15 113.48Q104.15 114.01 103.61 114.01L103.61 114.01L103.61 113.77Q103.71 113.23 104.15 113.23Z" stroke="#ff00cf" stroke-width="2" fill="none"/>
  <path d="M240.92-6.54L250.98-13.62L251.76-13.62Q251.76-13.13 250.98-13.13L250.98-13.13L251.22-12.60L251.22-12.30Q242.97-5.13 235.94-0.20L235.94-0.20Q233.11 2.64 227.49 6.69L227.49 6.69L213.77 18.55Q213.72 18.85 197.17 33.59L197.17 33.59Q191.06 39.31 191.06 39.65L191.06 39.65L191.36 39.65Q219.78 33.06 235.64 33.06L235.64 33.06Q237.50 33.20 237.50 33.84L237.50 33.84Q237.50 34.62 234.62 34.62L234.62 34.62L234.62 34.91L238.04 34.91Q238.57 34.96 238.57 35.40L238.57 35.40L238.57 36.47Q238.57 36.72 238.28 36.72L238.28 36.72L238.57 37.26L238.57 37.55Q237.16 38.92 231.98 45.70L231.98 45.70Q207.52 69.58 194.24 85.01L194.24 85.01L185.79 94.48Q182.32 99.56 179.49 102.93L179.49 102.93L179.20 102.93L179.20 102.69L179.98 101.07L179.74 101.07Q179.74 101.51 178.66 102.15L178.66 102.15L178.66 101.61L178.42 101.61L178.42 102.69Q177.98 102.69 172.61 108.50L172.61 108.50L172.36 108.50L171.83 108.20L172.07 108.74L172.07 109.28Q171.68 109.28 170.75 110.84L170.75 110.84L169.43 111.67L169.43 111.38L170.26 110.30L170.26 110.06L169.97 110.06Q169.97 110.64 166.80 114.01L166.80 114.01L167.33 114.01L167.33 114.31Q166.94 114.31 166.31 115.33L166.31 115.33L166.02 115.33Q166.31 113.67 167.87 111.91L167.87 111.91L167.33 111.67Q167.33 112.01 166.55 112.45L166.55 112.45L166.55 112.16Q167.09 111.33 167.09 110.84L167.09 110.84L166.55 110.60Q166.55 111.67 165.48 111.67L165.48 111.67L164.16 111.38Q164.11 112.50 161.04 115.09L161.04 115.09Q161.04 115.87 156.25 120.90L156.25 120.90Q156.25 121.14 153.61 123.24L153.61 123.24Q153.61 122.71 153.08 122.71L153.08 122.71Q152.93 123.54 152.05 123.78L152.05 123.78L152.05 123.54Q156.93 115.97 174.46 97.12L174.46 97.12Q177.15 92.87 201.90 65.77L201.90 65.77Q217.48 49.22 224.56 42.29L224.56 42.29L224.07 42.29Q219.63 42.29 201.37 45.70L201.37 45.70L201.37 45.95L200.83 45.70L200.59 45.70L200.59 46.24L199.27 45.95Q199.27 46.48 198.73 46.48L198.73 46.48L198.19 46.48L197.66 46.24Q197.66 46.97 185.30 48.34L185.30 48.34Q182.71 49.12 175.24 50.44L175.24 50.44Q175.24 50.05 174.22 49.41L174.22 49.41Q174.71 49.12 175 49.12L175 49.12L175 48.88Q174.22 48.88 174.22 48.34L174.22 48.34L174.22 47.02Q174.32 46.63 181.05 40.19L181.05 40.19L181.05 39.89Q179.30 40.77 176.32 43.60L176.32 43.60L175.78 43.60L176.32 42.82Q175.78 42.82 175.78 42.29L175.78 42.29Q180.47 37.21 190.58 28.03L190.58 28.03Q204.44 14.50 213.77 8.25L213.77 8.25Q218.85 5.22 231.98-5.22L231.98-5.22Q235.89-8.64 236.43-8.64L236.43-8.64Q236.91-8.35 237.50-8.35L237.50-8.35Q237.50-8.84 239.36-9.96L239.36-9.96L239.89-9.96Q240.23-9.96 240.67-9.18L240.67-9.18L240.67-8.89L237.50-6.01L237.79-6.01Q237.89-6.01 238.57-6.54L238.57-6.54L238.57-6.25Q238.28-5.76 238.28-5.47L238.28-5.47L239.11-6.01L239.60-6.01Q239.89-6.01 239.89-5.71L239.89-5.71Q240.38-6.01 240.67-6.01L240.67-6.01L240.67-6.25L240.14-6.25L240.14-6.79L240.43-6.79L240.92-6.54ZM182.37 41.75L182.37 41.75L182.91 41.75Q183.59 41.75 194.53 30.42L194.53 30.42L194.24 30.42Q193.85 30.42 191.36 33.30L191.36 33.30Q185.35 37.99 182.37 41.75ZM232.47 34.91L231.45 34.91L231.45 35.16L232.47 35.16L232.47 34.91ZM235.64 36.47L235.64 36.47L235.64 36.72Q235.74 37.26 236.18 37.26L236.18 37.26L236.43 36.72Q236.18 36.72 235.64 36.47ZM175 46.78L175 46.78L175.24 46.78Q175.63 46.78 176.03 45.95L176.03 45.95L176.03 45.70Q175.63 45.70 175 46.78ZM174.71 101.90L174.46 101.90L174.22 102.39L174.22 102.69L174.46 102.69Q174.46 102.39 174.71 101.90L174.71 101.90ZM169.19 111.91L169.19 111.91L169.19 112.16Q169.19 112.70 168.65 112.70L168.65 112.70L168.41 112.70Q168.41 112.30 169.19 111.91ZM167.87 113.23L167.87 113.23L167.87 113.48Q167.87 114.01 167.33 114.01L167.33 114.01L167.33 113.77Q167.43 113.23 167.87 113.23Z" stroke="#ff00cf" stroke-width="2" fill="none"/>
  <path d="" stroke="#ff00cf" stroke-width="2" fill="none"/>
  <path d="M353.37-6.54L363.43-13.62L364.21-13.62Q364.21-13.13 363.43-13.13L363.43-13.13L363.67-12.60L363.67-12.30Q355.42-5.13 348.39-0.20L348.39-0.20Q345.56 2.64 339.94 6.69L339.94 6.69L326.22 18.55Q326.17 18.85 309.62 33.59L309.62 33.59Q303.52 39.31 303.52 39.65L303.52 39.65L303.81 39.65Q332.23 33.06 348.10 33.06L348.10 33.06Q349.95 33.20 349.95 33.84L349.95 33.84Q349.95 34.62 347.07 34.62L347.07 34.62L347.07 34.91L350.49 34.91Q351.03 34.96 351.03 35.40L351.03 35.40L351.03 36.47Q351.03 36.72 350.73 36.72L350.73 36.72L351.03 37.26L351.03 37.55Q349.61 38.92 344.43 45.70L344.43 45.70Q319.97 69.58 306.69 85.01L306.69 85.01L298.24 94.48Q294.78 99.56 291.94 102.93L291.94 102.93L291.65 102.93L291.65 102.69L292.43 101.07L292.19 101.07Q292.19 101.51 291.11 102.15L291.11 102.15L291.11 101.61L290.87 101.61L290.87 102.69Q290.43 102.69 285.06 108.50L285.06 108.50L284.81 108.50L284.28 108.20L284.52 108.74L284.52 109.28Q284.13 109.28 283.20 110.84L283.20 110.84L281.88 111.67L281.88 111.38L282.71 110.30L282.71 110.06L282.42 110.06Q282.42 110.64 279.25 114.01L279.25 114.01L279.79 114.01L279.79 114.31Q279.39 114.31 278.76 115.33L278.76 115.33L278.47 115.33Q278.76 113.67 280.32 111.91L280.32 111.91L279.79 111.67Q279.79 112.01 279.00 112.45L279.00 112.45L279.00 112.16Q279.54 111.33 279.54 110.84L279.54 110.84L279.00 110.60Q279.00 111.67 277.93 111.67L277.93 111.67L276.61 111.38Q276.56 112.50 273.49 115.09L273.49 115.09Q273.49 115.87 268.70 120.90L268.70 120.90Q268.70 121.14 266.06 123.24L266.06 123.24Q266.06 122.71 265.53 122.71L265.53 122.71Q265.38 123.54 264.50 123.78L264.50 123.78L264.50 123.54Q269.38 115.97 286.91 97.12L286.91 97.12Q289.60 92.87 314.36 65.77L314.36 65.77Q329.93 49.22 337.01 42.29L337.01 42.29L336.52 42.29Q332.08 42.29 313.82 45.70L313.82 45.70L313.82 45.95L313.28 45.70L313.04 45.70L313.04 46.24L311.72 45.95Q311.72 46.48 311.18 46.48L311.18 46.48L310.64 46.48L310.11 46.24Q310.11 46.97 297.75 48.34L297.75 48.34Q295.17 49.12 287.70 50.44L287.70 50.44Q287.70 50.05 286.67 49.41L286.67 49.41Q287.16 49.12 287.45 49.12L287.45 49.12L287.45 48.88Q286.67 48.88 286.67 48.34L286.67 48.34L286.67 47.02Q286.77 46.63 293.51 40.19L293.51 40.19L293.51 39.89Q291.75 40.77 288.77 43.60L288.77 43.60L288.23 43.60L288.77 42.82Q288.23 42.82 288.23 42.29L288.23 42.29Q292.92 37.21 303.03 28.03L303.03 28.03Q316.89 14.50 326.22 8.25L326.22 8.25Q331.30 5.22 344.43-5.22L344.43-5.22Q348.34-8.64 348.88-8.64L348.88-8.64Q349.37-8.35 349.95-8.35L349.95-8.35Q349.95-8.84 351.81-9.96L351.81-9.96L352.34-9.96Q352.69-9.96 353.13-9.18L353.13-9.18L353.13-8.89L349.95-6.01L350.24-6.01Q350.34-6.01 351.03-6.54L351.03-6.54L351.03-6.25Q350.73-5.76 350.73-5.47L350.73-5.47L351.56-6.01L352.05-6.01Q352.34-6.01 352.34-5.71L352.34-5.71Q352.83-6.01 353.13-6.01L353.13-6.01L353.13-6.25L352.59-6.25L352.59-6.79L352.88-6.79L353.37-6.54ZM294.82 41.75L294.82 41.75L295.36 41.75Q296.04 41.75 306.98 30.42L306.98 30.42L306.69 30.42Q306.30 30.42 303.81 33.30L303.81 33.30Q297.80 37.99 294.82 41.75ZM344.92 34.91L343.90 34.91L343.90 35.16L344.92 35.16L344.92 34.91ZM348.10 36.47L348.10 36.47L348.10 36.72Q348.19 37.26 348.63 37.26L348.63 37.26L348.88 36.72Q348.63 36.72 348.10 36.47ZM287.45 46.78L287.45 46.78L287.70 46.78Q288.09 46.78 288.48 45.95L288.48 45.95L288.48 45.70Q288.09 45.70 287.45 46.78ZM287.16 101.90L286.91 101.90L286.67 102.39L286.67 102.69L286.91 102.69Q286.91 102.39 287.16 101.90L287.16 101.90ZM281.64 111.91L281.64 111.91L281.64 112.16Q281.64 112.70 281.10 112.70L281.10 112.70L280.86 112.70Q280.86 112.30 281.64 111.91ZM280.32 113.23L280.32 113.23L280.32 113.48Q280.32 114.01 279.79 114.01L279.79 114.01L279.79 113.77Q279.88 113.23 280.32 113.23Z" stroke="#ff00cf" stroke-width="2" fill="none"/>
  <path d="M447.27-22.61L447.27-22.61L447.80-22.61L447.56-22.07L447.56-21.83L447.80-21.83L447.80-22.36L448.34-22.36L448.34-21.83L448.63-20.21Q434.47 9.96 428.47 24.85L428.47 24.85L428.47 25.15L428.71 25.15Q428.81 23.97 431.88 19.04L431.88 19.04L432.18 19.04L432.18 19.29Q430.42 23.19 428.71 25.93L428.71 25.93L429.00 26.46Q427.64 28.08 427.64 28.32L427.64 28.32L427.93 28.32Q421.73 43.31 418.90 48.49L418.90 48.49L419.19 49.02L404.83 86.96Q404.39 87.99 402.98 87.99L402.98 87.99Q402.54 87.99 401.90 86.43L401.90 86.43Q401.46 86.43 400.05 87.99L400.05 87.99L399.56 87.99Q398.78 87.99 397.41 75.78L397.41 75.78Q396.63 73.88 396.63 71.83L396.63 71.83L396.63 70.21Q395.65 70.21 395.31 67.04L395.31 67.04L394.78 67.04L394.78 67.33L395.31 67.33Q395.31 68.21 395.02 68.65L395.02 68.65L395.85 76.61L395.02 76.61Q394.38 76.61 392.92 62.79L392.92 62.79L388.67 32.81L388.13 32.81Q374.61 73.10 371.44 83.20L371.44 83.20Q366.65 98.88 365.58 100.20L365.58 100.20L365.33 100.20L364.79 99.95Q357.37 124.12 354.20 129.93L354.20 129.93L353.13 130.18L352.83 129.64Q354.98 123.63 355.52 121.68L355.52 121.68L355.22 121.68L354.74 121.97Q354.74 121.44 354.20 121.44L354.20 121.44Q354.20 123.93 351.81 125.68L351.81 125.68L351.51 125.68Q355.52 107.28 359.77 92.77L359.77 92.77Q360.21 92.04 364.01 79.79L364.01 79.79Q363.33 79.79 363.18 78.71L363.18 78.71Q364.79 75.05 365.58 72.36L365.58 72.36L365.33 71.83Q377.05 36.82 383.11 25.39L383.11 25.39L383.64 25.15L384.13 25.39Q385.16 22.41 387.06 20.12L387.06 20.12Q388.92 14.01 391.31 14.01L391.31 14.01Q393.16 16.60 393.16 19.04L393.16 19.04Q395.02 19.04 395.02 25.39L395.02 25.39Q395.02 27.29 399.27 51.12L399.27 51.12L399.02 51.12L402.44 70.75L402.73 70.75Q402.73 69.34 415.19 39.75L415.19 39.75Q425 14.06 437.45-10.40L437.45-10.40L437.99-10.69Q437.99-10.40 438.28-10.40L438.28-10.40Q437.65-6.84 431.35 6.30L431.35 6.30Q430.86 7.18 430.86 7.62L430.86 7.62Q431.88 6.59 439.31-9.08L439.31-9.08Q446.04-21.53 447.27-22.61ZM398.19 69.19L398.19 69.19L398.19 69.68Q398.19 69.97 399.56 78.71L399.56 78.71L399.80 78.71L399.80 78.17Q398.83 69.19 398.19 69.19ZM400.05 79.25L399.80 79.25L399.80 79.49Q400.05 83.01 400.59 85.35L400.59 85.35L400.88 85.35L401.12 84.03Q401.12 83.45 400.05 79.25L400.05 79.25ZM355.52 116.89L355.52 116.89L355.52 117.19L355.76 117.19L361.87 98.63L361.62 98.63Q360.79 98.63 355.52 116.89Z" stroke="#ff00cf" stroke-width="2" fill="none"/>
  <path d="M447.17-7.76L447.17-7.76L447.46-7.76Q447.75-7.76 447.75-7.32L447.75-7.32Q447.07-4.54 445.36-2.00L445.36-2.00Q445.21-1.51 442.29 4.20L442.29 4.20Q442.29 4.59 441.50 7.18L441.50 7.18Q441.50 8.25 441.02 9.08L441.02 9.08Q435.60 22.17 434.91 24.32L434.91 24.32Q434.18 25.63 433.30 28.08L433.30 28.08L431.15 33.25L431.25 33.50Q430.96 33.74 429.74 36.82L429.74 36.82Q429.49 37.21 429.05 38.57L429.05 38.57Q428.86 38.62 428.66 40.14L428.66 40.14Q428.27 40.14 427.98 41.36L427.98 41.36L427.39 43.02Q427.15 43.02 426.81 44.58L426.81 44.58Q426.51 44.58 425.88 46.78L425.88 46.78Q425 48.78 423.63 52.73L423.63 52.73Q423.73 52.73 423.73 52.83L423.73 52.83Q422.95 54.10 420.95 59.91L420.95 59.91Q420.70 60.11 420.26 61.91L420.26 61.91Q420.02 62.45 419.87 62.45L419.87 62.45L419.97 62.70Q419.29 64.65 418.99 64.99L418.99 64.99L419.09 65.23L419.09 65.33Q418.21 67.58 418.21 67.77L418.21 67.77L418.07 67.77L418.21 68.02Q417.63 68.75 417.38 69.87L417.38 69.87L417.09 69.87L417.09 70.12L417.29 70.12L417.29 70.31Q416.94 70.31 416.70 71.78L416.70 71.78L416.41 72.07Q416.41 71.97 416.31 71.97L416.31 71.97L415.82 72.66L415.82 72.75L415.53 72.75Q415.53 72.66 415.43 72.41L415.43 72.41Q415.43 71.09 418.41 62.79L418.41 62.79L420.07 58.15Q421.34 54.44 423.34 49.41L423.34 49.41Q423.44 49.41 423.63 48.44L423.63 48.44L423.24 48.44Q423.24 49.22 422.75 49.22L422.75 49.22L422.85 49.41Q422.31 51.51 421.92 51.51L421.92 51.51Q421.58 53.37 421.04 53.96L421.04 53.96Q421.14 53.96 421.14 54.05L421.14 54.05L420.95 54.20L421.04 54.39Q419.48 58.06 417.58 63.82L417.58 63.82Q416.99 65.92 416.70 65.92L416.70 65.92L416.21 66.11Q415.63 65.72 415.63 65.48L415.63 65.48Q415.82 64.45 415.82 64.36L415.82 64.36L415.33 64.45L415.23 64.45Q415.09 64.45 414.94 64.11L414.94 64.11L416.99 57.47Q417.29 55.86 418.90 51.61L418.90 51.61L418.90 51.51L418.80 51.51Q418.80 52.15 417.77 52.64L417.77 52.64Q416.80 52.29 416.80 51.95L416.80 51.95L416.80 51.61Q417.04 51.27 417.58 48.97L417.58 48.97Q417.97 48.34 417.97 47.75L417.97 47.75Q417.72 47.75 417.48 47.31L417.48 47.31Q417.77 45.80 418.80 43.21L418.80 43.21Q419.58 40.58 422.36 33.50L422.36 33.50Q424.41 27.88 426.71 22.46L426.71 22.46Q427.44 19.97 428.86 17.04L428.86 17.04Q431.25 10.94 433.30 7.18L433.30 7.18L433.79 7.18Q434.13 7.18 434.72 7.71L434.72 7.71Q435.25 6.69 436.38 3.96L436.38 3.96Q436.52 3.96 436.96 2.98L436.96 2.98Q437.94 2.98 437.94 3.86L437.94 3.86L438.13 3.86Q438.92 1.46 440.53-0.44L440.53-0.44Q440.97-0.44 441.31-0.24L441.31-0.24Q441.31-0.39 441.60-0.59L441.60-0.59L442.09-0.59L442.29-0.44Q442.33-0.68 442.53-0.68L442.53-0.68L443.21-0.68Q443.21-0.93 445.26-4.64L445.26-4.64Q445.95-6.30 447.17-7.76ZM435.40 9.62L435.21 9.62L435.21 9.96L435.30 9.96Q435.30 9.81 435.40 9.62L435.40 9.62ZM434.28 11.72L434.18 11.72L434.08 12.16Q434.28 12.16 434.28 11.82L434.28 11.82L434.28 11.72ZM433.50 13.72L433.50 13.72L433.50 13.82L433.59 13.82Q433.59 13.62 433.79 12.94L433.79 12.94Q433.59 12.94 433.50 13.72ZM433.11 14.26L433.11 14.26L433.11 14.45Q433.30 14.45 433.30 14.26L433.30 14.26L433.30 14.01Q433.11 14.06 433.11 14.26ZM432.42 15.67L432.42 15.67Q432.47 15.92 432.62 15.92L432.62 15.92Q432.62 15.72 432.81 15.48L432.81 15.48L432.81 15.23Q432.57 15.67 432.42 15.67ZM432.13 16.46L432.13 16.46L432.13 16.70Q432.28 16.70 432.42 16.36L432.42 16.36L432.42 16.11Q432.28 16.11 432.13 16.46ZM431.25 18.90L431.05 18.90Q430.91 19.58 430.57 19.58L430.57 19.58L430.57 19.78Q430.57 20.02 430.76 20.02L430.76 20.02Q430.76 19.68 431.25 18.90L431.25 18.90ZM434.28 21.44L434.18 21.44Q434.18 21.58 434.08 21.78L434.08 21.78L434.28 21.78L434.28 21.44ZM433.79 22.66L433.69 22.66Q433.69 22.75 433.59 23.00L433.59 23.00L433.59 23.10L433.69 23.10Q433.69 23.00 433.79 22.75L433.79 22.75L433.79 22.66ZM433.59 23.19L433.50 23.19L433.40 23.63L433.59 23.63L433.59 23.19ZM433.11 24.32L433.11 24.32L433.11 24.41L433.20 24.41Q433.30 24.02 433.30 23.97L433.30 23.97Q433.11 23.97 433.11 24.32ZM432.91 24.76L432.91 24.76L432.91 24.85Q433.11 24.85 433.11 24.66L433.11 24.66L433.11 24.56Q432.91 24.56 432.91 24.76ZM432.23 26.66L432.03 26.66L432.03 27.10L432.13 27.10L432.23 26.66ZM432.03 27.20L431.84 27.10L431.84 27.54L431.93 27.54Q431.93 27.39 432.03 27.20L432.03 27.20ZM431.05 29.39L431.05 29.39L431.05 29.49L431.15 29.49Q431.15 29.35 431.35 29.05L431.35 29.05L431.35 28.96Q431.10 28.96 431.05 29.39ZM430.47 30.96L430.47 30.96L430.47 31.05L430.57 31.05L430.76 30.27L430.76 30.18Q430.57 30.18 430.47 30.96ZM429.54 32.96L429.54 32.96L429.54 33.25L429.64 33.25L430.37 31.30Q430.18 31.30 429.54 32.96ZM429.15 34.28L429.05 34.28Q429.05 34.38 428.86 34.81L428.86 34.81L428.86 35.06L428.96 35.06Q428.96 34.77 429.15 34.38L429.15 34.38L429.15 34.28ZM428.76 35.40L428.56 35.40L428.56 35.69Q428.76 35.69 428.76 35.50L428.76 35.50L428.76 35.40ZM427.88 37.26L427.88 37.26L427.88 37.35L427.98 37.35Q427.98 37.11 428.27 36.72L428.27 36.72L428.27 36.57Q428.13 36.57 427.88 37.26ZM427.88 37.50L427.78 37.50L427.59 38.13Q427.73 38.13 427.88 37.60L427.88 37.60L427.88 37.50Z" stroke="#ff00cf" stroke-width="2" fill="none"/>
  <path d="M477.64-21.97L477.64-21.97Q478.13-21.88 478.13-21.48L478.13-21.48L478.13-20.56Q478.13-19.48 476.71-16.70L476.71-16.70L476.95-15.28Q474.71-12.70 470.70-2.20L470.70-2.20L470.70-1.95L470.95-1.95L470.95-2.44L471.39-2.44Q471.88-2.44 471.88-1.22L471.88-1.22L472.12-1.22Q476.27-12.79 476.95-14.11L476.95-14.11L478.32-14.79L478.81-14.79Q479.15-14.79 479.49-13.87L479.49-13.87Q478.81-12.84 473.93 0.68L473.93 0.68Q490.04-6.25 500.05-6.25L500.05-6.25Q513.72-5.96 518.02 4.74L518.02 4.74Q518.31 6.84 518.51 7.32L518.51 7.32L518.26 7.81L518.51 8.30Q518.51 15.04 508.35 27.34L508.35 27.34Q497.66 38.82 490.33 43.55L490.33 43.55Q480.66 50.49 474.17 53.56L474.17 53.56Q468.46 57.13 457.08 60.21L457.08 60.21Q453.96 60.45 453.17 60.45L453.17 60.45L452.93 59.96L452.93 59.52L453.86 59.52L453.86 59.28L452.69 59.03Q451.86 62.60 451.32 62.60L451.32 62.60Q451.32 62.35 451.07 62.35L451.07 62.35L451.07 62.60L451.32 63.09Q448.34 72.61 445.56 82.86L445.56 82.86Q444.53 86.18 443.95 86.18L443.95 86.18L444.14 86.67Q443.75 86.67 442.77 89.75L442.77 89.75L441.85 90.72L441.60 90.72L441.60 90.48L442.09 88.82L441.60 88.82L437.70 101.17Q436.77 105.47 435.84 105.47L435.84 105.47L435.16 105.47Q434.72 105.47 434.72 104.74L434.72 104.74Q437.01 95.75 439.55 87.60L439.55 87.60Q439.16 87.89 437.70 91.89L437.70 91.89Q437.16 92.63 437.01 92.63L437.01 92.63L436.77 92.63L436.77 92.38Q440.48 80.37 440.48 79.74L440.48 79.74L439.79 79.74Q439.79 78.47 440.92 75L440.92 75L440.92 74.51L440.72 74.51Q440.72 76.17 439.55 76.17L439.55 76.17L438.38 75.44Q442.77 58.79 454.79 24.46L454.79 24.46Q460.30 8.20 463.57 0.44L463.57 0.44L463.77 0.44L463.57-0.05L468.41-10.79L469.09-10.79L469.58-10.55Q469.58-9.96 464.70 1.61L464.70 1.61Q462.40 7.32 462.40 8.30L462.40 8.30Q463.33 8.11 466.80-1.03L466.80-1.03Q467.09-1.03 470.46-8.89L470.46-8.89Q472.36-12.45 472.56-12.45L472.56-12.45L473.05-12.21Q475.93-19.73 477.64-21.97ZM511.13-1.22L511.13-1.22L511.13-1.03Q514.79 3.32 515.28 5.42L515.28 5.42L515.48 5.42L515.48 4.25Q515.48 1.32 511.13-1.22ZM502.34-0.54L501.42-0.54L501.42-0.29L502.34-0.29L502.34-0.54ZM503.03-0.29L502.59-0.29L502.59-0.05L503.96 0.20L504.44 0.20L504.44-0.05L503.03-0.29ZM507.67-0.05L507.67-0.05L507.67 0.20Q507.67 1.32 510.64 2.10L510.64 2.10L510.64 1.61Q510.64 1.07 507.67-0.05ZM506.05 3.03L505.81 3.03Q505.86 3.47 507.67 4.49L507.67 4.49L507.67 4.00Q507.28 3.03 506.05 3.03L506.05 3.03ZM472.80 11.38L471.63 11.38Q471.63 12.79 469.78 12.79L469.78 12.79L469.78 12.60Q469.34 12.65 469.34 13.04L469.34 13.04Q469.58 13.04 469.58 13.28L469.58 13.28Q468.41 13.28 467.48 17.33L467.48 17.33Q457.76 42.77 454.79 53.08L454.79 53.08L455.22 53.08Q467.68 48.49 489.16 34.03L489.16 34.03Q502.34 23.73 505.81 13.04L505.81 13.04L505.81 11.13Q505.81 6.74 498.19 4.49L498.19 4.49Q496.00 4.00 494.73 4.00L494.73 4.00L492.19 4.00Q485.35 4.00 472.80 11.38L472.80 11.38ZM502.59 4.00L502.10 4.00L502.10 4.25Q503.91 4.74 507.67 9.72L507.67 9.72L507.86 8.30Q503.42 4.00 502.59 4.00L502.59 4.00ZM510.40 4.25L509.96 4.25Q510.21 4.64 510.40 6.40L510.40 6.40L510.64 6.40Q510.64 5.81 510.89 4.49L510.89 4.49L510.40 4.25ZM515.48 7.81L515.28 7.81L515.28 8.74L515.48 8.74L515.48 7.81ZM470.26 9.72L470.26 9.72L470.26 9.96Q472.95 8.54 473.24 8.54L473.24 8.54L473.24 8.30L472.80 8.30Q470.26 9.33 470.26 9.72ZM462.16 9.72L461.72 9.47L458.94 17.33L458.94 17.58L459.18 17.58L462.16 9.72ZM473.24 9.96L472.56 9.96Q472.56 10.45 472.12 10.45L472.12 10.45L472.12 10.69L472.56 10.69Q472.56 10.21 473.24 10.21L473.24 10.21L473.24 9.96ZM514.79 10.45L514.60 10.45Q514.60 10.99 514.36 11.38L514.36 11.38L514.36 11.62L514.60 11.62Q514.60 11.38 514.79 10.89L514.79 10.89L514.79 10.45ZM470.70 11.13L470.70 11.13L470.70 11.38L470.95 11.38Q471.39 11.13 471.63 11.13L471.63 11.13L471.63 10.89L471.39 10.89Q470.95 11.13 470.70 11.13ZM513.43 13.53L513.18 13.53Q513.18 13.77 512.94 14.26L512.94 14.26L512.94 14.50L513.18 14.50Q513.18 14.21 513.43 13.77L513.43 13.77L513.43 13.53ZM512.50 15.43L512.26 15.43Q512.26 15.67 512.06 16.16L512.06 16.16L512.26 16.16L512.50 15.67L512.50 15.43ZM458.94 18.31L458.50 18.31L458.50 18.99L458.69 18.99Q458.69 18.75 458.94 18.31L458.94 18.31ZM460.11 20.46L459.86 20.46L459.62 21.39Q460.11 21.39 460.11 20.65L460.11 20.65L460.11 20.46ZM459.62 21.63L459.42 21.63Q459.42 22.02 458.94 22.56L458.94 22.56L459.42 22.56Q459.42 22.31 459.62 21.88L459.62 21.88L459.62 21.63ZM458.94 23.05L458.69 23.05Q458.69 23.58 458.50 24.02L458.50 24.02L458.50 24.27L458.69 24.27Q458.69 23.97 458.94 23.54L458.94 23.54L458.94 23.05ZM458.50 24.46L458.25 24.46Q457.57 26.71 457.08 27.59L457.08 27.59L457.08 28.08L457.32 28.08Q457.32 27.49 458.50 24.71L458.50 24.71L458.50 24.46ZM455.47 31.88L455.47 31.88L455.47 32.13L455.71 32.13Q457.08 28.71 457.08 28.27L457.08 28.27Q456.79 28.27 455.47 31.88ZM455.47 32.32L455.22 32.32L454.79 34.03L455.22 34.03L455.47 32.57L455.47 32.32ZM454.10 35.69L454.10 35.69L454.10 35.94L454.35 35.94Q454.35 35.55 454.79 34.96L454.79 34.96L454.54 34.96Q454.10 34.96 454.10 35.69ZM452.93 58.06L452.93 58.06L453.42 58.30Q453.86 58.30 459.18 55.47L459.18 55.47L459.42 55.47L459.42 55.22L459.18 55.22L453.42 57.13Q453.42 57.47 452.93 58.06ZM441.85 71.88L441.41 71.88Q441.41 72.31 440.72 74.02L440.72 74.02L441.16 74.27Q441.16 73.63 441.85 71.88L441.85 71.88ZM439.79 86.67L439.55 86.67Q439.55 86.91 439.31 87.35L439.31 87.35L439.79 87.35L439.79 86.67Z" stroke="#ff00cf" stroke-width="2" fill="none"/>
  <path d="M535.21-21.97L535.21-21.97Q535.69-21.88 535.69-21.48L535.69-21.48L535.69-20.56Q535.69-19.48 534.28-16.70L534.28-16.70L534.52-15.28Q532.28-12.70 528.27-2.20L528.27-2.20L528.27-1.95L528.52-1.95L528.52-2.44L528.96-2.44Q529.44-2.44 529.44-1.22L529.44-1.22L529.69-1.22Q533.84-12.79 534.52-14.11L534.52-14.11L535.89-14.79L536.38-14.79Q536.72-14.79 537.06-13.87L537.06-13.87Q536.38-12.84 531.49 0.68L531.49 0.68Q547.61-6.25 557.62-6.25L557.62-6.25Q571.29-5.96 575.59 4.74L575.59 4.74Q575.88 6.84 576.07 7.32L576.07 7.32L575.83 7.81L576.07 8.30Q576.07 15.04 565.92 27.34L565.92 27.34Q555.22 38.82 547.90 43.55L547.90 43.55Q538.23 50.49 531.74 53.56L531.74 53.56Q526.03 57.13 514.65 60.21L514.65 60.21Q511.52 60.45 510.74 60.45L510.74 60.45L510.50 59.96L510.50 59.52L511.43 59.52L511.43 59.28L510.25 59.03Q509.42 62.60 508.89 62.60L508.89 62.60Q508.89 62.35 508.64 62.35L508.64 62.35L508.64 62.60L508.89 63.09Q505.91 72.61 503.13 82.86L503.13 82.86Q502.10 86.18 501.51 86.18L501.51 86.18L501.71 86.67Q501.32 86.67 500.34 89.75L500.34 89.75L499.41 90.72L499.17 90.72L499.17 90.48L499.66 88.82L499.17 88.82L495.26 101.17Q494.34 105.47 493.41 105.47L493.41 105.47L492.72 105.47Q492.29 105.47 492.29 104.74L492.29 104.74Q494.58 95.75 497.12 87.60L497.12 87.60Q496.73 87.89 495.26 91.89L495.26 91.89Q494.73 92.63 494.58 92.63L494.58 92.63L494.34 92.63L494.34 92.38Q498.05 80.37 498.05 79.74L498.05 79.74L497.36 79.74Q497.36 78.47 498.49 75L498.49 75L498.49 74.51L498.29 74.51Q498.29 76.17 497.12 76.17L497.12 76.17L495.95 75.44Q500.34 58.79 512.35 24.46L512.35 24.46Q517.87 8.20 521.14 0.44L521.14 0.44L521.34 0.44L521.14-0.05L525.98-10.79L526.66-10.79L527.15-10.55Q527.15-9.96 522.27 1.61L522.27 1.61Q519.97 7.32 519.97 8.30L519.97 8.30Q520.90 8.11 524.37-1.03L524.37-1.03Q524.66-1.03 528.03-8.89L528.03-8.89Q529.93-12.45 530.13-12.45L530.13-12.45L530.62-12.21Q533.50-19.73 535.21-21.97ZM568.70-1.22L568.70-1.22L568.70-1.03Q572.36 3.32 572.85 5.42L572.85 5.42L573.05 5.42L573.05 4.25Q573.05 1.32 568.70-1.22ZM559.91-0.54L558.98-0.54L558.98-0.29L559.91-0.29L559.91-0.54ZM560.60-0.29L560.16-0.29L560.16-0.05L561.52 0.20L562.01 0.20L562.01-0.05L560.60-0.29ZM565.23-0.05L565.23-0.05L565.23 0.20Q565.23 1.32 568.21 2.10L568.21 2.10L568.21 1.61Q568.21 1.07 565.23-0.05ZM563.62 3.03L563.38 3.03Q563.43 3.47 565.23 4.49L565.23 4.49L565.23 4.00Q564.84 3.03 563.62 3.03L563.62 3.03ZM530.37 11.38L529.20 11.38Q529.20 12.79 527.34 12.79L527.34 12.79L527.34 12.60Q526.90 12.65 526.90 13.04L526.90 13.04Q527.15 13.04 527.15 13.28L527.15 13.28Q525.98 13.28 525.05 17.33L525.05 17.33Q515.33 42.77 512.35 53.08L512.35 53.08L512.79 53.08Q525.24 48.49 546.73 34.03L546.73 34.03Q559.91 23.73 563.38 13.04L563.38 13.04L563.38 11.13Q563.38 6.74 555.76 4.49L555.76 4.49Q553.56 4.00 552.29 4.00L552.29 4.00L549.76 4.00Q542.92 4.00 530.37 11.38L530.37 11.38ZM560.16 4.00L559.67 4.00L559.67 4.25Q561.47 4.74 565.23 9.72L565.23 9.72L565.43 8.30Q560.99 4.00 560.16 4.00L560.16 4.00ZM567.97 4.25L567.53 4.25Q567.77 4.64 567.97 6.40L567.97 6.40L568.21 6.40Q568.21 5.81 568.46 4.49L568.46 4.49L567.97 4.25ZM573.05 7.81L572.85 7.81L572.85 8.74L573.05 8.74L573.05 7.81ZM527.83 9.72L527.83 9.72L527.83 9.96Q530.52 8.54 530.81 8.54L530.81 8.54L530.81 8.30L530.37 8.30Q527.83 9.33 527.83 9.72ZM519.73 9.72L519.29 9.47L516.50 17.33L516.50 17.58L516.75 17.58L519.73 9.72ZM530.81 9.96L530.13 9.96Q530.13 10.45 529.69 10.45L529.69 10.45L529.69 10.69L530.13 10.69Q530.13 10.21 530.81 10.21L530.81 10.21L530.81 9.96ZM572.36 10.45L572.17 10.45Q572.17 10.99 571.92 11.38L571.92 11.38L571.92 11.62L572.17 11.62Q572.17 11.38 572.36 10.89L572.36 10.89L572.36 10.45ZM528.27 11.13L528.27 11.13L528.27 11.38L528.52 11.38Q528.96 11.13 529.20 11.13L529.20 11.13L529.20 10.89L528.96 10.89Q528.52 11.13 528.27 11.13ZM571.00 13.53L570.75 13.53Q570.75 13.77 570.51 14.26L570.51 14.26L570.51 14.50L570.75 14.50Q570.75 14.21 571.00 13.77L571.00 13.77L571.00 13.53ZM570.07 15.43L569.82 15.43Q569.82 15.67 569.63 16.16L569.63 16.16L569.82 16.16L570.07 15.67L570.07 15.43ZM516.50 18.31L516.06 18.31L516.06 18.99L516.26 18.99Q516.26 18.75 516.50 18.31L516.50 18.31ZM517.68 20.46L517.43 20.46L517.19 21.39Q517.68 21.39 517.68 20.65L517.68 20.65L517.68 20.46ZM517.19 21.63L516.99 21.63Q516.99 22.02 516.50 22.56L516.50 22.56L516.99 22.56Q516.99 22.31 517.19 21.88L517.19 21.88L517.19 21.63ZM516.50 23.05L516.26 23.05Q516.26 23.58 516.06 24.02L516.06 24.02L516.06 24.27L516.26 24.27Q516.26 23.97 516.50 23.54L516.50 23.54L516.50 23.05ZM516.06 24.46L515.82 24.46Q515.14 26.71 514.65 27.59L514.65 27.59L514.65 28.08L514.89 28.08Q514.89 27.49 516.06 24.71L516.06 24.71L516.06 24.46ZM513.04 31.88L513.04 31.88L513.04 32.13L513.28 32.13Q514.65 28.71 514.65 28.27L514.65 28.27Q514.36 28.27 513.04 31.88ZM513.04 32.32L512.79 32.32L512.35 34.03L512.79 34.03L513.04 32.57L513.04 32.32ZM511.67 35.69L511.67 35.69L511.67 35.94L511.91 35.94Q511.91 35.55 512.35 34.96L512.35 34.96L512.11 34.96Q511.67 34.96 511.67 35.69ZM510.50 58.06L510.50 58.06L510.99 58.30Q511.43 58.30 516.75 55.47L516.75 55.47L516.99 55.47L516.99 55.22L516.75 55.22L510.99 57.13Q510.99 57.47 510.50 58.06ZM499.41 71.88L498.97 71.88Q498.97 72.31 498.29 74.02L498.29 74.02L498.73 74.27Q498.73 73.63 499.41 71.88L499.41 71.88ZM497.36 86.67L497.12 86.67Q497.12 86.91 496.88 87.35L496.88 87.35L497.36 87.35L497.36 86.67Z" stroke="#ff00cf" stroke-width="2" fill="none"/>
  <path d="M644.14-0.54L646.73-1.27L646.97-1.27Q647.51-1.27 648.05 0.63L648.05 0.63L647.41 1.07L647.17 1.07Q646.19 1.07 640.67 1.56L640.67 1.56Q641.36 2.83 642.63 3.47L642.63 3.47Q643.02 3.22 644.58 2.98L644.58 2.98Q646.53 3.56 646.53 4.39L646.53 4.39Q646.48 5.08 645.21 5.57L645.21 5.57L645.21 5.81L644.78 5.81L644.78 5.32L644.14 5.32L644.14 5.81L643.70 5.57L643.51 5.57L643.51 6.05L642.63 6.05L641.50 6.30L641.50 5.81L641.11 5.81Q641.11 6.30 639.99 6.30L639.99 6.30L639.99 6.05L639.55 6.05L639.79 6.49Q639.50 6.74 636.77 6.98L636.77 6.98L636.77 6.49L636.08 6.49Q636.08 7.23 633.06 7.23L633.06 7.23L633.06 6.98L632.62 6.98Q632.62 7.71 632.18 7.71L632.18 7.71L631.74 7.71L631.74 7.23L630.86 7.23L631.10 7.71L630.66 7.91Q630.22 7.71 630.03 7.71L630.03 7.71Q629.30 8.15 628.71 8.15L628.71 8.15L628.71 7.71L627.83 7.71L628.08 8.15L628.08 8.40Q627.49 7.91 627.39 7.91L627.39 7.91Q626.95 7.91 626.95 8.64L626.95 8.64L626.32 8.64L626.32 8.15L625.88 8.15L625.88 8.64L625.68 8.64L625.68 8.15L624.80 8.15L625 8.64L623.93 8.40L623.73 8.40L623.93 8.89L623.49 9.13L622.85 9.13L622.85 8.64L622.41 8.64Q622.17 8.64 622.17 8.89L622.17 8.89L621.73 8.64Q616.85 10.55 608.30 11.23L608.30 11.23Q595.90 13.33 595.90 13.82L595.90 13.82Q595.65 13.82 595.65 13.57L595.65 13.57Q593.12 14.06 592.63 14.55L592.63 14.55Q592.24 14.31 591.75 14.31L591.75 14.31Q591.75 14.75 591.31 14.75L591.31 14.75L590.87 14.75Q590.67 14.75 590.67 14.55L590.67 14.55Q589.55 14.99 589.16 14.99L589.16 14.99L589.16 14.75Q585.89 15.58 585.89 17.58L585.89 17.58Q577.73 33.59 577.20 35.30L577.20 35.30L577.44 35.30Q582.13 34.33 582.86 34.33L582.86 34.33Q583.06 34.33 583.50 34.57L583.50 34.57Q585.79 34.08 590.23 33.89L590.23 33.89L590.23 34.33L592.87 34.08Q593.26 34.18 593.26 34.57L593.26 34.57Q591.55 35.40 591.55 35.74L591.55 35.74L591.75 35.74Q592.14 35.50 592.63 35.50L592.63 35.50L592.63 35.74L593.07 35.50L593.26 35.50Q593.51 35.50 593.51 35.74L593.51 35.74Q593.85 35.50 596.34 35.30L596.34 35.30L596.53 35.74L596.53 35.99Q596.53 36.87 592.19 37.65L592.19 37.65L592.19 37.89L592.63 37.89Q595.17 37.65 596.34 37.65L596.34 37.65L596.53 38.09Q595.26 40.19 592.87 40.48L592.87 40.48Q588.18 42.14 576.76 43.75L576.76 43.75L576.76 44.24L577.20 43.99L578.96 43.99Q578.96 45.17 573.73 45.90L573.73 45.90Q571.34 46.44 571.34 48.49L571.34 48.49Q569.14 52.73 563.53 67.09L563.53 67.09L563.72 67.09Q564.36 66.89 572.85 65.67L572.85 65.67L572.85 65.92Q573.78 65.48 576.32 64.99L576.32 64.99L576.32 65.23L576.76 64.99L577.20 65.23Q577.25 64.75 577.64 64.75L577.64 64.75L578.08 64.99Q578.08 64.50 581.98 64.06L581.98 64.06L581.98 64.50L581.79 64.99L582.18 64.99Q582.37 64.99 594.38 62.65L594.38 62.65Q595.41 64.01 595.46 65.23L595.46 65.23Q595.21 65.23 589.16 66.65L589.16 66.65L589.16 66.89L590.23 66.89Q590.48 66.89 590.48 66.65L590.48 66.65Q590.87 66.89 591.11 66.89L591.11 66.89Q591.26 66.89 593.95 66.65L593.95 66.65L594.82 67.58Q594.82 68.51 588.09 70.17L588.09 70.17L588.28 70.65Q587.84 70.70 587.84 71.09L587.84 71.09L587.40 70.90L586.77 70.90Q586.77 71.44 582.86 72.07L582.86 72.07L582.86 72.31L583.74 72.31Q583.74 72.75 572.85 74.66L572.85 74.66Q556.98 77.49 556.98 78.17L556.98 78.17Q555.37 80.27 555.27 81.25L555.27 81.25Q552.64 84.57 552.64 85.50L552.64 85.50Q551.12 85.50 551.12 85.01L551.12 85.01L552.88 80.08Q551.27 81.98 551.12 81.98L551.12 81.98L550.93 81.98L550.93 81.74Q550.93 81.49 551.12 81.49L551.12 81.49L550.93 81.01Q551.76 79.20 552.00 78.91L552.00 78.91L552.00 78.66Q548.73 78.66 548.73 76.07L548.73 76.07Q553.08 74.90 553.08 74.41L553.08 74.41Q553.27 74.02 553.27 73.49L553.27 73.49L552.44 72.07L552.44 71.83L552.64 71.34Q552.34 71.34 551.76 70.17L551.76 70.17Q551.76 69.68 555.47 68.99L555.47 68.99Q558.30 62.40 558.30 61.91L558.30 61.91Q556.79 63.82 556.54 63.82L556.54 63.82L556.35 63.82L556.35 62.84Q558.01 59.72 562.84 48.00L562.84 48.00L562.65 48.00Q556.10 49.17 555.27 49.17L555.27 49.17L554.39 48.73Q554.15 48.73 553.71 48.97L553.71 48.97Q552.25 48.97 550.24 47.31L550.24 47.31L550.24 46.58L550.93 46.58L550.93 46.34Q549.61 44.87 549.61 43.31L549.61 43.31Q552.64 42.14 553.96 42.14L553.96 42.14L553.96 41.65Q553.47 41.65 553.08 41.89L553.08 41.89Q551.22 41.16 550.68 41.16L550.68 41.16L550.68 40.72Q566.55 37.89 567.63 37.40L567.63 37.40Q574.12 23.93 577.64 17.58L577.64 17.58L577.64 17.38Q565.77 19.73 562.65 20.21L562.65 20.21L560.69 19.97Q559.47 20.21 558.94 20.21L558.94 20.21Q558.25 19.09 558.06 17.58L558.06 17.58Q560.40 17.24 560.69 16.89L560.69 16.89L560.89 16.89Q561.13 16.89 561.13 17.14L561.13 17.14Q565.67 16.21 565.67 15.72L565.67 15.72Q565.33 14.75 565.04 14.75L565.04 14.75Q563.18 14.99 562.21 14.99L562.21 14.99Q561.57 14.16 561.57 13.33L561.57 13.33L561.57 13.13L561.77 12.65Q561.96 12.65 561.96 12.89L561.96 12.89Q572.56 10.55 575.44 10.06L575.44 10.06L576.32 10.55L576.56 10.55L576.56 10.30L576.12 10.30L576.12 10.06Q576.42 10.06 578.52 9.57L578.52 9.57Q578.56 10.06 578.96 10.06L578.96 10.06Q578.96 9.23 581.54 8.89L581.54 8.89L582.62 9.33Q582.71 8.89 583.06 8.89L583.06 8.89L583.30 8.89L583.30 9.33L583.74 9.33L583.50 8.89L584.38 8.89Q584.38 8.35 586.33 8.15L586.33 8.15Q586.38 8.64 586.77 8.64L586.77 8.64Q586.77 7.71 591.11 7.47L591.11 7.47Q591.11 7.23 591.75 7.23L591.75 7.23L591.75 7.47L592.19 7.23Q592.63 7.47 592.87 7.47L592.87 7.47Q592.87 6.49 598.05 6.49L598.05 6.49Q598.05 6.10 603.52 5.32L603.52 5.32L603.52 6.05L603.91 6.05Q603.91 4.88 607.42 4.88L607.42 4.88Q609.47 4.15 610.64 4.15L610.64 4.15L611.33 4.15Q611.82 4.15 612.21 4.39L612.21 4.39Q612.21 3.52 621.53 2.49L621.53 2.49L621.53 2.98L622.17 2.98L621.97 2.49L621.97 2.29L623.49 2.05L623.49 2.29Q624.37 1.81 624.80 1.81L624.80 1.81L624.80 2.05L631.10 0.88L631.54 1.07Q634.18 0.44 641.50-0.54L641.50-0.54L641.50-0.78L641.94-0.54L642.82-0.54Q643.31-0.54 643.70-0.78L643.70-0.78L644.14-0.54ZM638.04 6.30L637.16 6.30L637.16 6.49L638.04 6.49L638.04 6.30ZM580.91 9.57L579.79 9.57L579.79 9.81L580.91 9.81L580.91 9.57ZM570.70 34.33L570.70 34.33L570.70 34.57L570.90 34.57Q570.90 34.03 571.53 33.15L571.53 33.15L571.53 32.91Q571.19 32.91 570.70 34.33ZM582.18 72.07L581.35 72.07L581.35 72.31L582.18 72.31L582.18 72.07ZM579.15 72.51L579.15 72.51L579.15 72.75Q580.03 72.51 580.66 72.51L580.66 72.51L580.66 72.31L579.79 72.31Q579.39 72.51 579.15 72.51ZM573.93 73.49L573.05 73.49L573.05 73.73L573.93 73.73L573.93 73.49Z" stroke="#ff00cf" stroke-width="2" fill="none"/>
  <path d="M742.97-21.48L742.97-21.48L742.97-21.14L743.60-21.48L743.90-21.48L743.90-21.14Q743.90-20.07 740.14-19.82L740.14-19.82Q740.14-20.17 739.84-20.17L739.84-20.17Q739.84-19.48 739.21-19.48L739.21-19.48L738.28-19.48L730.13-18.46L730.13-18.12Q731.69-18.12 731.69-17.48L731.69-17.48L731.69-17.14L732.32-17.48L733.25-17.48L733.25-16.80Q730.13-15.77 718.80-14.11L718.80-14.11L718.51-13.43L720.07-13.77L721.63-13.77L721.63-13.09L713.48-11.08L712.84-11.43Q674.95-5.03 665.14-2.34L665.14-2.34Q643.51 2.20 643.51 2.98L643.51 2.98Q643.51 4.00 639.75 14.06L639.75 14.06Q628.03 42.68 617.77 73.44L617.77 73.44Q612.11 91.65 610.55 93.90L610.55 93.90Q610.55 94.24 610.84 94.24L610.84 94.24Q610.84 94.97 608.06 102.29L608.06 102.29L607.42 101.95L606.15 103.96L605.86 103.96Q606.79 99.80 607.42 98.93L607.42 98.93L607.42 97.90Q605.86 97.90 605.86 96.58L605.86 96.58L611.82 79.44L611.47 77.44Q612.11 75.29 612.11 75.10L612.11 75.10L612.11 74.76L611.82 74.76Q610.11 80.81 608.64 80.81L608.64 80.81L608.35 80.81Q608.64 78.13 609.28 78.13L609.28 78.13Q608.98 77.49 608.98 77.10L608.98 77.10L619.34 45.61L618.99 44.92Q627.29 24.56 633.45 5.32L633.45 5.32L633.15 5.32L612.74 10.69Q611.62 10.40 611.47 10.40L611.47 10.40Q608.74 11.38 607.42 11.38L607.42 11.38L607.08 10.69L607.08 9.72L619.34 7.03L619.34 6.69L618.70 6.69Q612.55 8.01 611.82 8.01L611.82 8.01Q611.82 7.71 611.47 7.71L611.47 7.71Q611.47 8.35 610.84 8.35L610.84 8.35L610.25 8.01Q610.25 8.69 609.62 8.69L609.62 8.69L608.98 8.35L607.08 8.69Q606.79 8.69 606.79 8.35L606.79 8.35Q601.37 10.06 600.83 10.06L600.83 10.06L600.49 9.38L600.49 9.03Q600.73 8.25 604.88 7.03L604.88 7.03Q604.88 5.22 615.23 2.69L615.23 2.69L615.23 2.34L614.31 2.34Q613.18 2.98 611.82 2.98L611.82 2.98Q611.18 2.98 611.18 2.34L611.18 2.34L611.18 2.00Q611.18 0.63 651.66-6.74L651.66-6.74Q659.72-8.40 662.65-10.06L662.65-10.06Q679.69-13.43 692.43-15.43L692.43-15.43L692.43-15.09Q693.36-15.77 701.86-16.80L701.86-16.80L701.86-16.46L701.56-15.77L701.86-15.77L703.13-17.14L704.05-17.14Q704.05-16.75 704.39-16.11L704.39-16.11Q704.05-16.11 704.05-15.77L704.05-15.77L707.52-16.46L707.52-16.11Q708.50-16.70 721.00-18.80L721.00-18.80Q721.09-18.12 721.63-18.12L721.63-18.12Q721.63-19.38 729.79-19.82L729.79-19.82Q731.79-20.36 742.97-21.48ZM708.79-17.77L708.79-17.77L708.79-17.14L707.81-17.14Q706.98-17.14 705.96-16.46L705.96-16.46L705.62-17.14Q707.08-17.77 708.79-17.77ZM645.36-3.71L644.14-3.71L644.14-3.37L645.36-3.37L645.36-3.71ZM637.21-2.05L637.21-2.05L637.21-1.71L637.55-1.71L639.40-2.05L639.40-2.34L638.48-2.34Q637.94-2.05 637.21-2.05ZM642.24 2.98L641.94 2.98L640.04 8.35L640.04 9.03L640.33 9.03L642.24 3.32L642.24 2.98ZM623.10 5.66L621.19 6.01L621.19 6.35L621.83 6.35L623.73 6.01L623.73 5.66L623.10 5.66ZM620.90 6.35L619.63 6.35L619.63 6.69L620.90 6.69L620.90 6.35ZM615.23 65.38L614.94 65.38Q614.94 65.72 614.60 66.41L614.60 66.41L614.60 67.04L614.94 67.04Q614.94 66.31 615.23 65.72L615.23 65.72L615.23 65.38ZM614.01 69.09L613.67 69.09Q613.67 69.82 613.38 70.41L613.38 70.41L613.38 70.75L613.67 70.75Q613.67 70.41 614.01 69.73L614.01 69.73L614.01 69.09ZM613.38 71.09L613.04 71.09Q612.45 72.90 612.45 73.10L612.45 73.10L612.45 73.44L612.74 73.44Q612.74 72.85 613.38 71.44L613.38 71.44L613.38 71.09Z" stroke="#ff00cf" stroke-width="2" fill="none"/>
</svg>
